<svg xmlns="http://www.w3.org/2000/svg" xmlns:xlink="http://www.w3.org/1999/xlink" width="1920" height="1080" viewBox="0 0 1920 1080">
  <defs>
    <radialGradient id="radial-gradient" cx="0.5" cy="0.5" r="0.5" gradientUnits="objectBoundingBox">
      <stop offset="0" stop-color="#adbdf8" stop-opacity="0"/>
      <stop offset="1" stop-color="#adbdf8" stop-opacity="0.702"/>
    </radialGradient>
    <clipPath id="clip-ack">
      <rect width="1920" height="1080"/>
    </clipPath>
  </defs>
  <g id="ack" clip-path="url(#clip-ack)">
    <rect id="bg" width="1920" height="1080" fill="#adbdf8"/>
    <g id="waves_side">
      <path id="Path_40" data-name="Path 40" d="M267.5,0h953.373V1080H105.471S-35.206,978.891,5.3,820.248,305.377,524.074,370.926,319.012,267.5,0,267.5,0Z" transform="translate(699.132)" fill="#cbd5fb"/>
      <path id="Path_41" data-name="Path 41" d="M257.719,0H1176.51V1080H101.571S-34,978.891,5.034,820.248,294.227,524.074,357.4,319.012,257.719,0,257.719,0Z" transform="translate(743.489)" fill="#e1e7fd"/>
      <path id="Path_42" data-name="Path 42" d="M244.935,0h873.57V1080H96.473S-32.429,978.891,4.687,820.248,279.646,524.074,339.708,319.012,244.935,0,244.935,0Z" transform="translate(801.495)" fill="#edf0fe"/>
      <path id="Path_43" data-name="Path 43" d="M232.9,0h831.01V1080H91.674S-30.948,978.891,4.36,820.248s261.563-296.174,318.7-501.236S232.9,0,232.9,0Z" transform="translate(856.088)" fill="#fff"/>
    </g>
    <g id="name" transform="translate(464 273)">
      <text id="Patient_Consent_System" data-name="Patient Consent System" transform="translate(870 559)" fill="#476aea" font-size="27" font-family="ArialMT, Arial" opacity="0.69"><tspan x="0" y="0">Patient Consent System</tspan></text>
      <text id="CONTIENT" transform="translate(859 522)" fill="#476aea" font-size="60" font-family="Arial-BoldMT, Arial" font-weight="700"><tspan x="0" y="0">CONTIENT</tspan></text>
    </g>
    <line id="Line_2" data-name="Line 2" x2="307" transform="translate(1323.5 803.5)" fill="none" stroke="#496cea" stroke-width="3"/>
    <g id="Group_1" data-name="Group 1" transform="translate(290.273 -155.485)">
      <g id="logo_consentForm" transform="translate(1029.461 442.667)">
        <g id="chart" transform="translate(0 0)">
          <g id="Rectangle_938" data-name="Rectangle 938" transform="translate(0.266 24.819)" fill="none" stroke="#476aea" stroke-width="6">
            <rect width="313" height="390" rx="18" stroke="none"/>
            <rect x="3" y="3" width="307" height="384" rx="15" fill="none"/>
          </g>
          <rect id="Rectangle_940" data-name="Rectangle 940" width="44" height="36" rx="18" transform="translate(135.266 -0.181)" fill="#476aea"/>
          <rect id="Rectangle_939" data-name="Rectangle 939" width="113" height="41" rx="5" transform="translate(100.266 17.819)" fill="#7c96f3"/>
          <ellipse id="Ellipse_2" data-name="Ellipse 2" cx="5.5" cy="6" rx="5.5" ry="6" transform="translate(151.266 3.819)" fill="#fff"/>
        </g>
        <g id="heart_beating" transform="translate(37.517 77.434)">
          <ellipse id="Ellipse_1" data-name="Ellipse 1" cx="81.991" cy="16.358" rx="81.991" ry="16.358" transform="translate(41.073 183.206)" fill="#cbd5fb"/>
          <path id="Path_271" data-name="Path 271" d="M4756.869,2640.372s-9.277-11.584-24.818-14.181c-9.068-1.517-23.321,1.634-31.479,7.923-17.122,13.059-15.581,38.746-15.581,38.746s.706,13.651,11.341,31.3,16.049,24.52,31.2,39.286,29.4,19.78,29.4,19.78a260.929,260.929,0,0,0,28.449-19.78,139.974,139.974,0,0,0,21.9-23.43s10.164-14.392,14.16-24.564,4.975-27.089,4.975-27.089l-69.541,68.251-41.234-39.844s-7.351-7.695.856-16.073,15.561-1.539,15.561-1.539l24.818,25.822,62.737-61.656s-.9-1.35-1.376-1.994c-5.886-8.021-16.15-15.189-30.955-15.135C4768.308,2626.261,4756.869,2640.372,4756.869,2640.372Z" transform="translate(-4636.744 -2563.659)" fill="#476aea"/>
          <path id="Path_274" data-name="Path 274" d="M848.839,165.661l92.132-91.727,2.224-2.214s3.705-5.025-.95-9.072-9.179.584-9.179.584l-2.4,2.331L848.839,145.12,822.21,117.4s-4.688-5.13-9.988,0-.9,10.568-.9,10.568Z" transform="translate(-728.714 1.168)" fill="#c5d0fa"/>
          <g id="Path_38" data-name="Path 38" transform="translate(0 0)" fill="url(#radial-gradient)">
            <path d="M121.682,0A121.722,121.722,0,0,1,229.01,179.064c-20.53,38.286-60.412,39.416-106.849,39.416-46.236,0-86.928-.9-107.579-38.99A121.721,121.721,0,0,1,121.682,0Z" stroke="none"/>
            <path d="M 121.6816482543945 5 C 113.7616882324219 5 105.8481903076172 5.797607421875 98.16093444824219 7.370651245117188 C 90.67161560058594 8.903182983398438 83.30490112304688 11.18994140625 76.26542663574219 14.1673583984375 C 69.35264587402344 17.09126281738281 62.68486022949219 20.71043395996094 56.44732666015625 24.9244384765625 C 50.26776123046875 29.09928894042969 44.45661926269531 33.89393615722656 39.17529296875 39.17529296875 C 33.89393615722656 44.45661926269531 29.09928894042969 50.26776123046875 24.9244384765625 56.44732666015625 C 20.71043395996094 62.68486022949219 17.09126281738281 69.35264587402344 14.1673583984375 76.26544189453125 C 11.18994140625 83.30490112304688 8.903182983398438 90.67161560058594 7.370651245117188 98.16093444824219 C 5.797607421875 105.8481826782227 5 113.7616882324219 5 121.6816482543945 C 5 131.5401458740234 6.229644775390625 141.3334350585938 8.654754638671875 150.7893981933594 C 11.00543212890625 159.9551086425781 14.47860717773438 168.8097534179688 18.97785949707031 177.1073913574219 C 21.32504272460938 181.4362182617188 24.02967834472656 185.379150390625 27.01661682128906 188.8266906738281 C 29.86325073242188 192.1123352050781 33.07171630859375 195.0687866210938 36.55290222167969 197.6139373779297 C 43.10057067871094 202.4011535644531 50.79533386230469 205.9422149658203 60.07679748535156 208.4395751953125 C 68.15272521972656 210.612548828125 77.63629150390625 212.0240020751953 89.06942749023438 212.7546539306641 C 99.56532287597656 213.4253997802734 110.7117919921875 213.4809417724609 122.1613616943359 213.4809417724609 C 133.0809326171875 213.4809417724609 144.6288299560547 213.4219665527344 155.2284698486328 212.7171478271484 C 166.5662536621094 211.9632263183594 175.9674682617188 210.5218658447266 183.9693603515625 208.3106842041016 C 202.9392547607422 203.0686492919922 215.8511505126953 193.0246887207031 224.6038665771484 176.7016906738281 C 229.0397186279297 168.4291534423828 232.4609985351563 159.623291015625 234.7726135253906 150.5286102294922 C 237.1552124023438 141.1548309326172 238.3632965087891 131.4492950439453 238.3632965087891 121.6816482543945 C 238.3632965087891 113.7616882324219 237.5656890869141 105.8481826782227 235.9926452636719 98.16093444824219 C 234.4601135253906 90.67161560058594 232.1733703613281 83.30490112304688 229.1959381103516 76.26544189453125 C 226.2720336914063 69.35264587402344 222.6528625488281 62.68486022949219 218.4388580322266 56.44732666015625 C 214.2640075683594 50.26776123046875 209.4693603515625 44.45661926269531 204.1880035400391 39.17529296875 C 198.9066772460938 33.89393615722656 193.0955505371094 29.09928894042969 186.9159698486328 24.9244384765625 C 180.6784362792969 20.71043395996094 174.0106506347656 17.09126281738281 167.0978698730469 14.1673583984375 C 160.0583953857422 11.18994140625 152.6916809082031 8.903182983398438 145.2023620605469 7.370651245117188 C 137.5151062011719 5.797607421875 129.6016235351563 5 121.6816482543945 5 M 121.6816482543945 0 C 188.8845367431641 0 243.3632965087891 54.478759765625 243.3632965087891 121.6816482543945 C 243.3632965087891 142.4473571777344 238.1616058349609 161.9981536865234 229.0103302001953 179.0645141601563 C 208.4805450439453 217.3507232666016 168.5985717773438 218.4809417724609 122.1613616943359 218.4809417724609 C 75.92575073242188 218.4809417724609 35.23336791992188 217.5761108398438 14.58242797851563 179.49072265625 C 5.303176879882813 162.3776550292969 0 142.6489715576172 0 121.6816482543945 C 0 54.478759765625 54.478759765625 0 121.6816482543945 0 Z" stroke="none" fill="rgba(173,189,248,0.14)"/>
          </g>
        </g>
        <line id="Line_3" data-name="Line 3" x2="234.901" transform="translate(37.517 332.603)" fill="none" stroke="#476aea" stroke-linecap="round" stroke-width="8"/>
        <line id="Line_4" data-name="Line 4" x2="234.901" transform="translate(38.984 366.727)" fill="none" stroke="#476aea" stroke-linecap="round" stroke-width="8"/>
        <path id="Subtraction_1" data-name="Subtraction 1" d="M11.583,207.027c-3.421,0-7.445-.005-11.353-.043,37.259-.363,72.2-3.487,90.342-37.305a115.431,115.431,0,0,0,13.6-54.374A114.781,114.781,0,0,0,0,.53C3.686.178,7.43,0,11.131,0A114.556,114.556,0,0,1,56.009,9.061,115.337,115.337,0,0,1,75.6,19.693,115.93,115.93,0,0,1,106.74,50.838a115.259,115.259,0,0,1,10.63,19.586,114.58,114.58,0,0,1,9.062,44.881,115.7,115.7,0,0,1-3.552,28.5,114.444,114.444,0,0,1-10.05,25.873,62.553,62.553,0,0,1-17.839,21.14,69.59,69.59,0,0,1-23.58,11.138,141.259,141.259,0,0,1-28.18,4.335C33.043,206.971,22.01,207.027,11.583,207.027Z" transform="translate(147.453 83.162)" fill="rgba(254,254,254,0.22)"/>
      </g>
    </g>
    <path id="bg-2" data-name="bg" d="M0,0H1920V1080H0Z" fill="rgba(173,189,248,0.52)"/>
  </g>
</svg>
