<svg id="bapples-Icon" xmlns="http://www.w3.org/2000/svg" xmlns:xlink="http://www.w3.org/1999/xlink" width="860" height="860" viewBox="0 0 860 860">
  <defs>
    <radialGradient id="radial-gradient" cx="0.5" cy="0.5" r="0.5" gradientUnits="objectBoundingBox">
      <stop offset="0" stop-color="#bb3939"/>
      <stop offset="1" stop-color="#5e1d1d"/>
    </radialGradient>
    <linearGradient id="linear-gradient" x1="0.5" x2="0.5" y2="1" gradientUnits="objectBoundingBox">
      <stop offset="0" stop-color="#916342"/>
      <stop offset="1" stop-color="#46230a"/>
    </linearGradient>
    <linearGradient id="linear-gradient-2" x1="0.5" x2="0.5" y2="1" gradientUnits="objectBoundingBox">
      <stop offset="0" stop-color="#52d15f"/>
      <stop offset="1" stop-color="#093a0d"/>
    </linearGradient>
  </defs>
  <rect id="Rectangle_36" data-name="Rectangle 36" width="860" height="860" fill="#fff"/>
  <ellipse id="Ellipse_1" data-name="Ellipse 1" cx="178" cy="54" rx="178" ry="54" transform="translate(292 159)" fill="#5e1d1d"/>
  <path id="Exclusion_1" data-name="Exclusion 1" d="M-11048.19,426.634c-10.738,0-23.176-2.544-42.929-8.782-7.313-2.31-15.095-5.016-23.128-8.043-9.772-3.682-19.648-7.745-29.354-12.074a494.336,494.336,0,0,1-68.322-36.906c-25.927-16.9-48.146-35.409-66.04-55.026a241.189,241.189,0,0,1-26.5-34.724,206.915,206.915,0,0,1-10.631-19.238,191.8,191.8,0,0,1-8.506-20.516c-10.365-29.844-17.372-53.919-22.05-75.765-2.492-11.64-4.295-22.5-5.512-33.206A279.184,279.184,0,0,1-11353,90.5a278.36,278.36,0,0,1,1.838-31.82c1.217-10.683,3.02-21.514,5.512-33.111,4.678-21.765,11.685-45.719,22.05-75.385a240.588,240.588,0,0,1,17.99-39.411,274.618,274.618,0,0,1,23.044-34.1,336.382,336.382,0,0,1,52.059-52.355c7.823-6.358,16.039-12.509,24.422-18.281,6.7-4.615,13.527-9,20.288-13.038,11.422-6.82,18.911-10.377,18.986-10.412a81.05,81.05,0,0,1,20.01-2.73,55.979,55.979,0,0,1,21.336,4.032,66.384,66.384,0,0,1,17.348,10.573c-.187.093-.381.19-.572.29-8.8,4.551-12.5,11.271-10.707,19.434,2.58,11.716,16.282,25.074,36.654,35.732,22.866,11.963,51.438,19.252,80.451,20.523,2.652.116,5.38.175,8.106.175,30.532,0,65.373-7.427,95.588-20.376,13.643-5.847,25.547-12.524,34.424-19.31,9.08-6.94,14.754-13.826,16.41-19.915,1.784-6.557-.965-12.029-8.171-16.264-.631-.37-1.3-.735-1.99-1.086-20.7,4.838-36.657,18.614-53.557,33.2l0,0-.137.118c-1.082.934-2.2,1.9-3.306,2.849-5.34,4.59-11.1,9.455-17.084,13.944a143.568,143.568,0,0,1-18.856,12.164,100.891,100.891,0,0,1-21.735,8.6,97.2,97.2,0,0,1-12.292,2.41,104.563,104.563,0,0,1-13.428.853h0c-1.316,0-2.651-.025-3.967-.071a99.718,99.718,0,0,1-14.662-1.578,87.347,87.347,0,0,1-12.961-3.446,87.09,87.09,0,0,1-21.718-11.334c-12.9-9.144-23.042-20.927-32.846-32.321-7.82-9.091-15.208-17.678-23.64-24.6,9.4-4.64,27.661-8.575,52.813-11.383a746.688,746.688,0,0,1,79.793-4.078,626.469,626.469,0,0,1,69.813,3.518,263.112,263.112,0,0,1,27.91,4.564c8.342,1.906,15.024,4.121,19.863,6.582a69.414,69.414,0,0,1,15.777-1.8,85.454,85.454,0,0,1,21.354,2.887c10.436,2.706,19.363,5.362,27.291,8.12a183.941,183.941,0,0,1,22.779,9.514,122.208,122.208,0,0,1,19.063,11.827,110.015,110.015,0,0,1,16.14,15.058,136.994,136.994,0,0,1,14.013,19.208,220.305,220.305,0,0,1,12.681,24.277c4,8.837,7.975,18.736,12.146,30.264,3.871,10.7,7.929,22.86,12.4,37.169.912,2.923,4.344,14.319,4.372,14.412a50.8,50.8,0,0,0-6.913-4.938,41.073,41.073,0,0,0-7.014-3.395,23.472,23.472,0,0,0-7.937-1.543,14.315,14.315,0,0,0-7.81,2.182c-2.79,1.771-5.7,4.975-8.656,9.521a101.146,101.146,0,0,0-7.125,13.378,175.789,175.789,0,0,0-6.614,17.078,94.694,94.694,0,0,0-11.419-5.07,90.569,90.569,0,0,0-11.641-3.486,61.124,61.124,0,0,0-13.253-1.584,41.915,41.915,0,0,0-6.668.512c-8.543,1.383-13.872,2.617-17.559,5.175-3.5,2.431-5.667,6.107-9.252,12.2l-.011.019c-.574.976-1.168,1.985-1.818,3.076-2.052,3.445-3.261,8.033-3.592,13.636a74.973,74.973,0,0,0,.874,15.269,120.589,120.589,0,0,0,4.031,17.572c-.021.005-3.173.375-8.041,1.4a136.2,136.2,0,0,0-19.043,5.491,98.527,98.527,0,0,0-22.415,11.531,59.874,59.874,0,0,0-18.164,19.517c-9.839,17.616-14.395,29.78-15.233,40.675-.91,11.834,2.572,22.589,11.292,34.872,6.128,8.631,17.251,13.008,33.061,13.008a121.147,121.147,0,0,0,25.313-3.055c6.794-1.51,11.38-3.04,11.424-3.055a165.584,165.584,0,0,0,3.275,20.615,120.863,120.863,0,0,0,5.306,17.773,55.881,55.881,0,0,0,8.828,15.643c12.4,14.619,23.337,21.725,33.434,21.725a21.927,21.927,0,0,0,3.539-.289c28.8-4.722,53.217-28.345,64.951-39.7l0,0c3.678-3.558,6.107-5.908,6.891-5.908a.245.245,0,0,1,.2.086c.1.123.108.376.026.775-1.9,9.19-4.141,17.946-6.645,26.024a204.99,204.99,0,0,1-16.811,39.032,240.6,240.6,0,0,1-23.521,34.494c-16.1,19.788-36.053,38.451-59.309,55.47-10.055,7.358-20.771,14.431-31.851,21.023-9.977,5.935-20.3,11.513-30.689,16.58-17.707,8.637-35.474,15.714-50.027,19.926a181.813,181.813,0,0,1-20.5,4.832,89.822,89.822,0,0,1-14.852,1.337,98.906,98.906,0,0,1-19.121-2.21l-.239-.044-1.571-.29a133.268,133.268,0,0,0-25.9-2.543c-4.592,0-9.361.209-14.58.638a326.582,326.582,0,0,0-33.315,4.5C-11034.589,425.505-11040.931,426.634-11048.19,426.634Z" transform="translate(11452.291 379.815)" stroke="#5e1d1d" stroke-width="6" fill="url(#radial-gradient)"/>
  <path id="Path_53" data-name="Path 53" d="M12642.535,2854.437c-50.109-68.687-164.738-81.17-170.429-142.737s71.42-170.868,104.871-145.554-30.738,61.477-49.724,113.912,95.393,80.175,150.54,146.172,18.88,118.263,18.88,118.263L12671,2996.48S12692.645,2923.123,12642.535,2854.437Z" transform="translate(-12400.698 -2499)" fill="#bc8565"/>
  <path id="Path_54" data-name="Path 54" d="M12313,2647.9c51.664-120.583,49.819-104.587,59.047-137.194s61.521-54.908,43.064-11.689-74.408,121.693-92.9,145.807C12319.241,2648.7,12313,2647.9,12313,2647.9Z" transform="translate(-11863 -2403)" fill="url(#linear-gradient)"/>
  <path id="Path_55" data-name="Path 55" d="M12313,2647.093c-61.583-99.973-110.841-78.865-111.641-106.857s-46.222-93.561-7.032-91.962,71.543,6.379,92.217,51.918S12313,2647.093,12313,2647.093Z" transform="translate(-11863 -2403)" fill="url(#linear-gradient-2)"/>
  <path id="Path_140" data-name="Path 140" d="M643.477,507.372c-21.446,70.426-25.644,162.386-26.169,160.6-.434-1.474-8.661-7.191-14.514-20.63s-9.457-32.968-9.457-32.968-25.75,11.648-48.512,7.492c-15.632-2.854-29.482-19.919-33.34-26.784C482.721,543.9,533.962,502,548.571,493.193s44.391-12.362,44.391-12.362-4.644-17.4-1.311-32.778c2.534-11.688,9.073-22.771,12.778-25.261,23.413-15.733,63.229,1.1,63.229,1.1a134.715,134.715,0,0,1,8.376-18.014c5.177-9.18,17.08-14.124,17.08-14.124S664.923,436.947,643.477,507.372Z" transform="translate(51 -52.498)" fill="#fbebc0"/>
  <circle id="Ellipse_16" data-name="Ellipse 16" cx="12" cy="12" r="12" transform="translate(151 68)" fill="#fff"/>
  <circle id="Ellipse_15" data-name="Ellipse 15" cx="6.5" cy="6.5" r="6.5" transform="matrix(0.995, 0.105, -0.105, 0.995, 161.071, 75.856)"/>
</svg>
