<svg id="bapples-Icon" xmlns="http://www.w3.org/2000/svg" xmlns:xlink="http://www.w3.org/1999/xlink" width="860" height="860" viewBox="0 0 860 860">
  <defs>
    <radialGradient id="radial-gradient" cx="0.5" cy="0.5" r="0.5" gradientUnits="objectBoundingBox">
      <stop offset="0" stop-color="#bb3939"/>
      <stop offset="1" stop-color="#5e1d1d"/>
    </radialGradient>
    <linearGradient id="linear-gradient" x1="0.5" x2="0.5" y2="1" gradientUnits="objectBoundingBox">
      <stop offset="0" stop-color="#989090" stop-opacity="0.639"/>
      <stop offset="1" stop-color="#383838"/>
    </linearGradient>
    <linearGradient id="linear-gradient-2" x1="0.5" x2="0.5" y2="1" gradientUnits="objectBoundingBox">
      <stop offset="0" stop-color="#916342"/>
      <stop offset="1" stop-color="#46230a"/>
    </linearGradient>
    <linearGradient id="linear-gradient-3" x1="0.5" x2="0.5" y2="1" gradientUnits="objectBoundingBox">
      <stop offset="0" stop-color="#52d15f"/>
      <stop offset="1" stop-color="#093a0d"/>
    </linearGradient>
  </defs>
  <rect id="Rectangle_36" data-name="Rectangle 36" width="860" height="860" fill="#fff"/>
  <ellipse id="Ellipse_1" data-name="Ellipse 1" cx="178" cy="54" rx="178" ry="54" transform="translate(241 168)" fill="#5e1d1d"/>
  <path id="Exclusion_1" data-name="Exclusion 1" d="M-11063.715,423.17a62.8,62.8,0,0,1-11.68-1.225,137.3,137.3,0,0,1-15.725-4.092c-7.315-2.31-15.1-5.016-23.128-8.043-9.771-3.682-19.647-7.744-29.354-12.074a494.334,494.334,0,0,1-68.322-36.906c-25.927-16.9-48.146-35.409-66.04-55.026a241.207,241.207,0,0,1-26.5-34.724,206.865,206.865,0,0,1-10.631-19.237,191.883,191.883,0,0,1-8.506-20.516c-10.365-29.845-17.372-53.92-22.05-75.765-2.492-11.641-4.295-22.5-5.512-33.206A278.96,278.96,0,0,1-11353,90.5a278.135,278.135,0,0,1,1.838-31.82c1.217-10.683,3.02-21.514,5.512-33.111,4.678-21.765,11.685-45.719,22.05-75.385a240.557,240.557,0,0,1,17.99-39.411,274.491,274.491,0,0,1,23.044-34.1,336.388,336.388,0,0,1,52.059-52.355c7.823-6.359,16.04-12.509,24.422-18.281,6.7-4.616,13.53-9,20.288-13.038,11.386-6.8,18.681-10.267,18.986-10.412a81.05,81.05,0,0,1,20.011-2.73,59.329,59.329,0,0,1,11.275,1.056,54.9,54.9,0,0,1,10.06,2.977,66.389,66.389,0,0,1,17.348,10.573c-.187.092-.38.189-.572.29-8.8,4.551-12.5,11.271-10.707,19.434,2.58,11.716,16.282,25.074,36.654,35.732,22.866,11.963,51.438,19.252,80.451,20.523,2.654.116,5.382.175,8.106.175,30.531,0,65.372-7.427,95.588-20.376,13.643-5.847,25.547-12.524,34.424-19.31,9.08-6.94,14.754-13.826,16.41-19.915a12.337,12.337,0,0,0-.638-8.808c-1.347-2.8-3.881-5.309-7.534-7.456-.632-.371-1.3-.736-1.989-1.086-20.7,4.838-36.661,18.616-53.561,33.2-1.031.89-2.246,1.938-3.442,2.966-5.34,4.59-11.105,9.455-17.084,13.944a143.6,143.6,0,0,1-18.856,12.164,100.9,100.9,0,0,1-21.735,8.6,97.193,97.193,0,0,1-12.292,2.41,104.563,104.563,0,0,1-13.428.853h0c-1.315,0-2.65-.025-3.967-.071a99.7,99.7,0,0,1-14.661-1.578,87.305,87.305,0,0,1-12.962-3.446,87.08,87.08,0,0,1-21.718-11.334c-12.9-9.144-23.042-20.927-32.846-32.321l-.006-.007c-7.821-9.09-15.208-17.675-23.634-24.592,9.4-4.64,27.661-8.575,52.813-11.383a746.7,746.7,0,0,1,79.793-4.078,626.5,626.5,0,0,1,69.813,3.518,263.1,263.1,0,0,1,27.91,4.564c8.342,1.906,15.024,4.121,19.863,6.582a69.409,69.409,0,0,1,15.777-1.8,85.443,85.443,0,0,1,21.354,2.887c10.436,2.705,19.362,5.362,27.292,8.12a184.025,184.025,0,0,1,22.778,9.514,122.232,122.232,0,0,1,19.063,11.827,109.946,109.946,0,0,1,16.139,15.058,136.919,136.919,0,0,1,14.014,19.208,220.173,220.173,0,0,1,12.681,24.276c4,8.837,7.975,18.736,12.146,30.264,3.871,10.7,7.928,22.859,12.4,37.169,4.4,14.076,8.063,26.8,11.2,38.9,3.271,12.624,5.887,24.264,8,35.584a355.1,355.1,0,0,1,6.4,65.707,358.122,358.122,0,0,1-6.4,65.9c-2.112,11.382-4.729,23.1-8,35.821-3.135,12.192-6.8,25.024-11.2,39.231a204.965,204.965,0,0,1-16.811,39.032,240.587,240.587,0,0,1-23.521,34.494c-16.1,19.788-36.053,38.451-59.309,55.47-10.056,7.359-20.771,14.432-31.85,21.023-9.978,5.935-20.3,11.514-30.69,16.58-17.707,8.637-35.474,15.714-50.027,19.926a88.847,88.847,0,0,1-24.738,3.925c-13.332,0-22.834-4.032-32.9-8.3l-.108-.046-1.3-.552c-11.5-4.868-22.331-8.9-38.382-8.9-2.7,0-5.521.119-8.38.355a94.856,94.856,0,0,0-24.1,4.816,93.746,93.746,0,0,0-14.843,7.006l0,0h0a70.2,70.2,0,0,1-10.125,4.931A35.229,35.229,0,0,1-11063.715,423.17Z" transform="translate(11401.291 388.815)" stroke="#5e1d1d" stroke-width="6" fill="url(#radial-gradient)"/>
  <path id="Union_1" data-name="Union 1" d="M-11216.5,20.505a25.408,25.408,0,0,1-17,6.494,25.507,25.507,0,0,1-23.724-16.136c-.406-.133-.813-.269-1.218-.407A25.4,25.4,0,0,1-11275.5,17a25.507,25.507,0,0,1-25.264-22.012q-.368.01-.738.011a25.5,25.5,0,0,1-25.5-25.5,25.431,25.431,0,0,1,1.873-9.609c-.781.072-1.574.109-2.374.109a25.5,25.5,0,0,1-25.5-25.5,25.508,25.508,0,0,1,16.866-24,25.51,25.51,0,0,1-16.866-24,25.511,25.511,0,0,1,19.765-24.853A25.4,25.4,0,0,1-11339-154.5a25.5,25.5,0,0,1,25.5-25.5,25.379,25.379,0,0,1,13.771,4.036A25.4,25.4,0,0,1-11302-186.5a25.5,25.5,0,0,1,25.5-25.5,25.51,25.51,0,0,1,23.942,16.711q.776-.221,1.557-.431a25.5,25.5,0,0,1,25.5-25.28,25.482,25.482,0,0,1,21.5,11.783A25.482,25.482,0,0,1-11182.5-221a25.5,25.5,0,0,1,25.5,25.5,25.4,25.4,0,0,1-2.277,10.547c34.285,18.885,57.275,53.668,57.275,93.453,0,45.673-30.3,84.756-73.2,100.761A25.512,25.512,0,0,1-11199.5,27,25.4,25.4,0,0,1-11216.5,20.505Z" transform="translate(11911 594)" fill="#fff"/>
  <path id="Path_53" data-name="Path 53" d="M12537.069,3001.586c.847-7.231,62.855-126.662,79.075-141.53s60.823-40.887,48.658-124.35-86.5-148.342-97.317-209.5,42.577-51.024,83.8,13.516,86.5,214.91,81.1,244.646-9.124,45.28-54.065,101.372-111.59,113.032-111.59,113.032a24.149,24.149,0,0,1-10.439,5.634C12548.318,3006.4,12540.052,3004.569,12537.069,3001.586Z" transform="translate(-11914 -2394)" fill="url(#linear-gradient)"/>
  <path id="Path_54" data-name="Path 54" d="M12313,2647.9c51.664-120.583,49.819-104.587,59.047-137.194s61.521-54.908,43.064-11.689-74.408,121.693-92.9,145.807C12319.241,2648.7,12313,2647.9,12313,2647.9Z" transform="translate(-11914 -2394)" fill="url(#linear-gradient-2)"/>
  <path id="Path_55" data-name="Path 55" d="M12313,2647.093c-61.583-99.973-110.841-78.865-111.641-106.857s-46.222-93.561-7.032-91.962,71.543,6.379,92.217,51.918S12313,2647.093,12313,2647.093Z" transform="translate(-11914 -2394)" fill="url(#linear-gradient-3)"/>
</svg>
