<svg id="bapples-Icon" xmlns="http://www.w3.org/2000/svg" xmlns:xlink="http://www.w3.org/1999/xlink" width="860" height="860" viewBox="0 0 860 860">
  <defs>
    <radialGradient id="radial-gradient" cx="0.5" cy="0.5" r="0.5" gradientUnits="objectBoundingBox">
      <stop offset="0" stop-color="#bb3939"/>
      <stop offset="1" stop-color="#5e1d1d"/>
    </radialGradient>
    <linearGradient id="linear-gradient" x1="0.5" x2="0.5" y2="1" gradientUnits="objectBoundingBox">
      <stop offset="0" stop-color="#916342"/>
      <stop offset="1" stop-color="#46230a"/>
    </linearGradient>
    <linearGradient id="linear-gradient-2" x1="0.5" x2="0.5" y2="1" gradientUnits="objectBoundingBox">
      <stop offset="0" stop-color="#52d15f"/>
      <stop offset="1" stop-color="#093a0d"/>
    </linearGradient>
  </defs>
  <rect id="Rectangle_36" data-name="Rectangle 36" width="860" height="860" fill="#fff"/>
  <ellipse id="Ellipse_1" data-name="Ellipse 1" cx="178" cy="54" rx="178" ry="54" transform="translate(292 159)" fill="#5e1d1d"/>
  <path id="Exclusion_1" data-name="Exclusion 1" d="M-11048.19,426.634c-10.738,0-23.176-2.544-42.929-8.782-7.313-2.309-15.095-5.015-23.128-8.043-9.772-3.682-19.648-7.745-29.354-12.074a494.334,494.334,0,0,1-68.322-36.906c-25.927-16.9-48.146-35.409-66.04-55.026a241.2,241.2,0,0,1-26.5-34.724,206.689,206.689,0,0,1-10.631-19.238,191.883,191.883,0,0,1-8.506-20.516c-10.365-29.845-17.372-53.92-22.05-75.765-2.492-11.641-4.295-22.5-5.512-33.206A278.959,278.959,0,0,1-11353,90.5a278.135,278.135,0,0,1,1.838-31.82c1.217-10.683,3.02-21.513,5.512-33.111,4.678-21.765,11.685-45.719,22.05-75.385a240.557,240.557,0,0,1,17.99-39.411,274.491,274.491,0,0,1,23.044-34.1,336.387,336.387,0,0,1,52.059-52.355c7.823-6.359,16.04-12.509,24.422-18.281,6.7-4.616,13.53-9,20.288-13.038,11.386-6.8,18.681-10.267,18.986-10.412a81.05,81.05,0,0,1,20.011-2.73,59.322,59.322,0,0,1,11.275,1.056,54.909,54.909,0,0,1,10.06,2.977,66.384,66.384,0,0,1,17.348,10.573c-.178.088-.365.182-.572.29-8.8,4.551-12.5,11.271-10.707,19.434,2.58,11.716,16.282,25.074,36.654,35.732,22.866,11.963,51.438,19.252,80.451,20.523,2.654.116,5.382.175,8.106.175,30.532,0,65.373-7.427,95.588-20.376,13.643-5.847,25.547-12.524,34.424-19.31,9.08-6.94,14.754-13.826,16.41-19.915a12.337,12.337,0,0,0-.638-8.808c-1.347-2.8-3.881-5.309-7.534-7.456-.632-.371-1.3-.736-1.989-1.086-20.7,4.837-36.657,18.614-53.557,33.2l0,0-.025.022c-1.118.965-2.273,1.963-3.417,2.945-5.34,4.59-11.105,9.455-17.084,13.944a143.6,143.6,0,0,1-18.856,12.164,100.9,100.9,0,0,1-21.735,8.6,97.2,97.2,0,0,1-12.292,2.41,104.565,104.565,0,0,1-13.428.853h0c-1.318,0-2.652-.025-3.967-.071a99.682,99.682,0,0,1-14.661-1.578,87.309,87.309,0,0,1-12.962-3.446,87.093,87.093,0,0,1-21.718-11.334c-12.9-9.144-23.042-20.927-32.846-32.321l-.006-.007c-7.821-9.09-15.208-17.675-23.634-24.592,9.4-4.64,27.661-8.575,52.813-11.383a746.669,746.669,0,0,1,79.793-4.078,626.488,626.488,0,0,1,69.813,3.518,263.056,263.056,0,0,1,27.91,4.564c8.342,1.906,15.024,4.12,19.863,6.582a69.414,69.414,0,0,1,15.777-1.8,85.443,85.443,0,0,1,21.354,2.887c10.435,2.705,19.361,5.361,27.292,8.12a183.994,183.994,0,0,1,22.778,9.514,122.233,122.233,0,0,1,19.063,11.827,110.01,110.01,0,0,1,16.139,15.058,136.893,136.893,0,0,1,14.014,19.208,220.239,220.239,0,0,1,12.681,24.276c4,8.836,7.975,18.736,12.146,30.264,3.871,10.7,7.928,22.859,12.4,37.169,4.4,14.076,8.063,26.8,11.2,38.9,3.271,12.624,5.887,24.264,8,35.584a355.1,355.1,0,0,1,6.4,65.707,358.122,358.122,0,0,1-6.4,65.9c-2.112,11.383-4.729,23.1-8,35.821-3.135,12.192-6.8,25.024-11.2,39.231a205.016,205.016,0,0,1-16.811,39.032,240.577,240.577,0,0,1-23.521,34.494c-16.1,19.788-36.053,38.451-59.309,55.47-10.06,7.361-20.775,14.434-31.85,21.023-9.977,5.935-20.3,11.513-30.69,16.58-17.707,8.637-35.474,15.714-50.027,19.926a181.746,181.746,0,0,1-20.5,4.832,89.808,89.808,0,0,1-14.852,1.337,98.9,98.9,0,0,1-19.119-2.21l-.219-.04-1.594-.294a133.266,133.266,0,0,0-25.9-2.543c-4.528,0-9.434.215-14.58.638a326.531,326.531,0,0,0-33.316,4.5C-11034.589,425.505-11040.931,426.634-11048.19,426.634Z" transform="translate(11452.291 379.815)" stroke="#5e1d1d" stroke-width="6" fill="url(#radial-gradient)"/>
  <path id="Path_53" data-name="Path 53" d="M12642.535,2854.437c-50.109-68.687-164.738-81.17-170.429-142.737s71.42-170.868,104.871-145.554-30.738,61.477-49.724,113.912,95.393,80.175,150.54,146.172,18.88,118.263,18.88,118.263L12671,2996.48S12692.645,2923.123,12642.535,2854.437Z" transform="translate(-12400.698 -2499)" fill="#bc8565"/>
  <path id="Path_54" data-name="Path 54" d="M12313,2647.9c51.664-120.583,49.819-104.587,59.047-137.194s61.521-54.908,43.064-11.689-74.408,121.693-92.9,145.807C12319.241,2648.7,12313,2647.9,12313,2647.9Z" transform="translate(-11863 -2403)" fill="url(#linear-gradient)"/>
  <path id="Path_55" data-name="Path 55" d="M12313,2647.093c-61.583-99.973-110.841-78.865-111.641-106.857s-46.222-93.561-7.032-91.962,71.543,6.379,92.217,51.918S12313,2647.093,12313,2647.093Z" transform="translate(-11863 -2403)" fill="url(#linear-gradient-2)"/>
  <path id="Path_139" data-name="Path 139" d="M731.78,406.531c-52.854-54.94-59.112,21.559-59.112,21.559s-63.111-25.21-75.107,9.736-3.478,43.117-3.478,43.117-86.93,2.782-84.147,86.234,84.147,45.9,84.147,45.9,11.127,67.284,48.681,69.544,89.017-53.549,89.017-53.549S774.9,564.048,776.288,503.2,784.634,461.471,731.78,406.531Z" transform="translate(51 -52.498)" fill="#fff"/>
  <path id="Path_140" data-name="Path 140" d="M702.533,386.431s-37.611,50.516-59.057,120.942-26.2,162.543-26.728,160.76c-.434-1.474-8.1-7.348-13.955-20.787s-9.457-32.968-9.457-32.968-25.75,11.648-48.512,7.492c-15.632-2.854-29.482-19.919-33.34-26.784C482.721,543.9,533.962,502,548.571,493.193s44.391-12.362,44.391-12.362-4.644-17.4-1.311-32.778c2.534-11.688,12.59-21.672,16.295-24.162,23.413-15.733,64.619,3.933,64.619,3.933a82.48,82.48,0,0,1,4.12-20.978c2.476-7.059,3.278-11.379,9.74-16.483S702.533,386.431,702.533,386.431Z" transform="translate(51 -52.498)" fill="#fbebc0"/>
  <circle id="Ellipse_16" data-name="Ellipse 16" cx="12" cy="12" r="12" transform="translate(151 68)" fill="#fff"/>
  <circle id="Ellipse_15" data-name="Ellipse 15" cx="6.5" cy="6.5" r="6.5" transform="matrix(0.995, 0.105, -0.105, 0.995, 161.071, 75.856)"/>
</svg>
