<svg xmlns="http://www.w3.org/2000/svg" width="279.01" height="543.374" viewBox="0 0 279.01 543.374">
  <g id="Bee" transform="translate(2 2.021)">
    <g id="Rectangle_43" data-name="Rectangle 43" transform="translate(144.405 41.873)" fill="#9c360c" stroke="#000" stroke-width="4">
      <rect width="63" height="42" stroke="none"/>
      <rect x="2" y="2" width="59" height="38" fill="none"/>
    </g>
    <path id="Path_218" data-name="Path 218" d="M4570.056,2595.116l-6.324-24.123h90.521l-4.918,24.943Z" transform="translate(-4431.596 -2486.127)" fill="#d17710" stroke="#000" stroke-width="4"/>
    <path id="Path_217" data-name="Path 217" d="M4575.949,2611.948a30.147,30.147,0,0,1-3.187-6.444,91.745,91.745,0,0,1-2.489-9.567H4649.1a68.926,68.926,0,0,1-3.791,9.013,41.5,41.5,0,0,1-4.989,7Z" transform="translate(-4431.596 -2486.127)" fill="#9c360c" stroke="#000" stroke-width="4"/>
    <path id="Path_214" data-name="Path 214" d="M4575.91,2611.744s5.715,10.333,11.889,14.963,14.592,6.244,14.592,6.244,2.96,4.7,5.66,4.631c2.925-.073,5.917-4.631,5.917-4.631s9.369-2.445,15.544-7.076,10.8-14.132,10.8-14.132Z" transform="translate(-4431.596 -2486.127)" fill="#d17710" stroke="#000" stroke-width="4"/>
    <path id="Path_215" data-name="Path 215" d="M4608.232,2522.63c-4.637,24.82-.521,44.175-15.809,60.776s-30.629,16.536-43.445,6.089-19.807-29.8-7.818-47.877c9.735-14.676,50.593-19.055,65.081-20.1.6-.043-35.481,34.248-33.842,36.121S4608.232,2522.63,4608.232,2522.63Z" transform="translate(-4431.596 -2486.127)" fill="#f5c97d" stroke="#000" stroke-width="4"/>
    <path id="Path_216" data-name="Path 216" d="M4609.487,2521.522s-.664,1.679.619,1.693c.135,0,31.735,36.3,33.843,34.9s-33.6-36.629-32.321-36.59c11.9.359,48.9,2.681,61,15.98,14.922,16.4,7.649,39.829-2.058,49.654-10.939,11.073-28.916,16.409-44.186,0S4609.487,2521.522,4609.487,2521.522Z" transform="translate(-4431.596 -2486.127)" fill="#f5c97d" stroke="#000" stroke-width="4"/>
    <path id="Path_219" data-name="Path 219" d="M4574.74,2525.792s3.4-21.518,15.34-29.158c.258-.165-5.621-9.6-3.044-10.422s5.159,9.136,5.974,8.686c9.682-5.36,18.921-5.572,29.947-.646.313.139,4.128-9.093,6.119-8.039s-3.82,9.141-3.162,9.485c13.145,6.88,15.575,28.69,15.575,28.69a165.216,165.216,0,0,0-32.2-2.81C4592.6,2521.927,4574.74,2525.792,4574.74,2525.792Z" transform="translate(-4431.596 -2486.127)" fill="#d17710" stroke="#000" stroke-width="4"/>
    <path id="Path_220" data-name="Path 220" d="M841.124,353.57s.674,7.378,3.162,12.881,8.538,11.35,8.538,11.35-6.049-5.847-8.538-11.35S841.124,353.57,841.124,353.57Z" transform="translate(-655.939 -53.127)" fill="none" stroke="#000" stroke-linejoin="round" stroke-width="4"/>
    <path id="Path_221" data-name="Path 221" d="M844.525,357.648a47.018,47.018,0,0,0,9.867,5.672c6.013,2.588,14.947,2.549,14.947,2.549s-8.934.039-14.947-2.549A47.018,47.018,0,0,1,844.525,357.648Z" transform="translate(-631.245 -22.127)" fill="none" stroke="#000" stroke-linejoin="round" stroke-width="4"/>
    <path id="Path_222" data-name="Path 222" d="M858.782,378.79s8.235,3.753,10.8,8.079,5,14.288,5,14.288h0c0-.017-2.442-9.966-5-14.288S858.782,378.79,858.782,378.79Z" transform="translate(-599.567 -30.127)" fill="none" stroke="#000" stroke-linejoin="round" stroke-width="4"/>
    <path id="Path_223" data-name="Path 223" d="M858.665,427.538c.033,1.512,9.488-2.421,19.062-7.947a140.227,140.227,0,0,0,14.121-9.034,140.227,140.227,0,0,1-14.121,9.034A84.73,84.73,0,0,1,858.665,427.538Z" transform="translate(-645.923 19.987)" fill="none" stroke="#000" stroke-linejoin="round" stroke-width="4"/>
    <path id="Path_227" data-name="Path 227" d="M846.862,382.581h0a83.439,83.439,0,0,0,10.631-11.129c5.48-6.855,8.677-16.289,8.677-16.289s-3.2,9.435-8.677,16.289A83.938,83.938,0,0,1,846.862,382.581Z" transform="translate(-591.16 38.351)" fill="none" stroke="#000" stroke-linejoin="round" stroke-width="4"/>
    <path id="Path_228" data-name="Path 228" d="M858.923,428.436a131.219,131.219,0,0,0,18.8-8.845c9.584-5.531,15.408-8.134,15.408-8.134s-5.825,2.6-15.408,8.134A131.04,131.04,0,0,1,858.923,428.436Z" transform="translate(-698.923 41.987)" fill="none" stroke="#000" stroke-linejoin="round" stroke-width="4"/>
    <path id="Path_229" data-name="Path 229" d="M850.151,345.994s.521,11.272.927,20.458,0,9.134,0,9.134v-9.134Z" transform="translate(-670.196 -138.127)" fill="none" stroke="#000" stroke-linejoin="round" stroke-width="4"/>
    <path id="Path_230" data-name="Path 230" d="M850.151,345.994s.521,11.272.927,20.458,0,9.134,0,9.134v-9.134Z" transform="translate(-672.196 -183.127)" fill="none" stroke="#000" stroke-linejoin="round" stroke-width="4"/>
    <path id="Path_231" data-name="Path 231" d="M850.151,345.994s.521,11.272.927,20.458,0,9.134,0,9.134v-9.134Z" transform="translate(-668.196 -93.127)" fill="none" stroke="#000" stroke-linejoin="round" stroke-width="4"/>
    <path id="Path_232" data-name="Path 232" d="M858.665,427.538c.033,1.512,9.488-2.421,19.062-7.947a140.227,140.227,0,0,0,14.121-9.034,140.227,140.227,0,0,1-14.121,9.034A84.73,84.73,0,0,1,858.665,427.538Z" transform="translate(-805.923 86.917)" fill="none" stroke="#000" stroke-linejoin="round" stroke-width="4"/>
    <path id="Path_233" data-name="Path 233" d="M846.862,382.581h0a178.984,178.984,0,0,1,18.639-8.175,209.167,209.167,0,0,1,20.436-6.087,209.167,209.167,0,0,0-20.436,6.087A179.217,179.217,0,0,0,846.862,382.581Z" transform="translate(-745.16 106.77)" fill="none" stroke="#000" stroke-linejoin="round" stroke-width="4"/>
    <path id="Path_234" data-name="Path 234" d="M858.923,428.436a131.219,131.219,0,0,0,18.8-8.845c9.584-5.531,15.408-8.134,15.408-8.134s-5.825,2.6-15.408,8.134A131.04,131.04,0,0,1,858.923,428.436Z" transform="translate(-858.923 110.917)" fill="none" stroke="#000" stroke-linejoin="round" stroke-width="4"/>
  </g>
</svg>
