<svg xmlns="http://www.w3.org/2000/svg" width="294" height="294" viewBox="0 0 294 294">
  <g id="calendar_logo" transform="translate(-813 -1429)">
    <circle id="Ellipse_175" data-name="Ellipse 175" cx="147" cy="147" r="147" transform="translate(813 1429)" fill="#fff"/>
    <path id="Icon_awesome-calendar-check" data-name="Icon awesome-calendar-check" d="M167.162,61.344H4.6a4.6,4.6,0,0,1-4.6-4.6v-13.8a18.4,18.4,0,0,1,18.4-18.4h18.4V4.6a4.6,4.6,0,0,1,4.6-4.6H56.743a4.6,4.6,0,0,1,4.6,4.6V24.538h49.075V4.6a4.6,4.6,0,0,1,4.6-4.6h15.336a4.6,4.6,0,0,1,4.6,4.6V24.538h18.4a18.4,18.4,0,0,1,18.4,18.4v13.8A4.6,4.6,0,0,1,167.162,61.344ZM4.6,73.613H167.162a4.6,4.6,0,0,1,4.6,4.6V177.9a18.4,18.4,0,0,1-18.4,18.4H18.4A18.4,18.4,0,0,1,0,177.9V78.214A4.6,4.6,0,0,1,4.6,73.613ZM132.386,110.4l-10.8-10.888a4.6,4.6,0,0,0-6.506-.026L74.426,139.813,56.8,122.041a4.6,4.6,0,0,0-6.507-.026L39.4,132.816a4.6,4.6,0,0,0-.026,6.506l31.669,31.925a4.6,4.6,0,0,0,6.506.026l54.808-54.368a4.6,4.6,0,0,0,.026-6.506Z" transform="translate(874.118 1477.85)" fill="#0f224a"/>
  </g>
</svg>
