<svg xmlns="http://www.w3.org/2000/svg" width="1973.913" height="1767.999" viewBox="0 0 1973.913 1767.999">
  <g id="corovi-icon" transform="translate(-9058.543 1580.399)">
    <g id="heart" transform="translate(9058.543 -1580.4)">
      <path id="Path_257" data-name="Path 257" d="M5029.951,4559.342s495.953-260.127,735.029-606.576c228.387-330.975,296.711-490.923,207.7-752.57s-290.706-396.1-563.758-393.819-378.972,143.784-378.972,143.784-230.632-197.731-503.074-143.784-576.224,333.211-450.459,771.454c49.429,172.229,132.168,267.042,323.687,512.5S5029.951,4559.342,5029.951,4559.342Z" transform="translate(-4045.393 -2791.668)" fill="#ff5a4e"/>
      <path id="Path_258" data-name="Path 258" d="M4575.252,2798.209s362.147,144.855,383.729,468.542-67.448,512.373-218.494,709.414c-219.4,286.208-580.9,573.943-580.9,573.943s303.039-152.648,548.534-390.521c213.044-206.433,376.91-464.421,425.4-667.235,31.477-131.6,13-261.156-50.293-380.573-29.923-56.471-71.919-110.8-117.862-165.746C4824.169,2796.244,4575.252,2798.209,4575.252,2798.209Z" transform="translate(-3174.649 -2782.697)" fill="#ff7e68"/>
      <path id="Path_259" data-name="Path 259" d="M4832.438,2841.9s-144.444,12.455-234.607,128.17-101.275,214.04-126.032,334.693c-58.673,285.925,22.83,515.612,110.588,690.535,154.126,307.221,449.689,569.136,449.689,569.136S4751,4439.728,4514.956,4221.877c-177.611-163.925-343.307-393.972-422.281-590.865-24.177-60.256-35.636-121.5-41.67-172.492-14.551-122.843,8.774-267.432,91.086-393.188,44.99-68.769,104.558-143.356,248.113-213.243s218.744-61.307,328.29-41.848C4785.729,2822.174,4832.438,2841.9,4832.438,2841.9Z" transform="translate(-4046.95 -2796.436)" fill="#eb443f"/>
      <path id="Path_260" data-name="Path 260" d="M109.305,0A109.306,109.306,0,1,1,0,109.306,109.306,109.306,0,0,1,109.305,0Z" transform="translate(1478.246 468.4)" fill="#fff"/>
      <path id="Path_261" data-name="Path 261" d="M48.094,0A48.094,48.094,0,1,1,0,48.094,48.094,48.094,0,0,1,48.094,0Z" transform="translate(1495.734 284.766)" fill="#fff"/>
    </g>
    <path id="Path_368" data-name="Path 368" d="M8654.551-2477.626s131.77,113.741,276.178,147.108,267.471-70.318,308.295-63.463c40.754,6.814,93.625,117.754,315.031,88.376,221.338-29.343,563.693-155.915,563.693-155.915s189.9-110.027,192.486-94-192.033,125.564-192.033,129.751c-.049,53.473-3.3,163.476-25.668,269.34-14.967,70.888-31.713,135.865-51.473,193.186-2.656,7.826,132.85,16.948,129.553,25.819-.426,1.014-11.787,24.549-21.961,25.1-46.588,2.414-126.062-30.883-128.41-25.1-16.439,40.212-80.82,120.469-101.361,146.758-53.064,67.781-367.062,304.2-698.77,263.449-331.85-40.757-565.561-340.523-565.561-340.523s-26.473-128.82-26.473-273.934C8628.078-2286.812,8654.551-2477.626,8654.551-2477.626Z" transform="translate(700.094 1399.313)" fill="#aabbf3"/>
    <path id="Path_369" data-name="Path 369" d="M9332.387-2389.151s-20.279.872-34.586,7.33c-53.2,23.993-189.406,86.846-301.627,45.163-140.115-52.013-246.787-142.163-246.787-142.163s-.566,3.754-1.6,11.053c-.377,2.657-254.58-142.21-260.855-126.521s258,147.216,257.07,154.269c-6.588,50.025-43.257,139.124-47.513,230.02-4.473,96.621,37.354,219.857,46.851,279.09.99,6.17-174.832-65.677-170.125-49.99s173.854,72.342,174.27,74.7c1.162,6.619,0,46.526,0,46.526s117.469,157.316,248.693,232.99c131.246,75.674,278.916,98.573,278.916,98.573s-72.141-356.119-57.816-566.548,115.113-275.168,115.113-275.168Z" transform="translate(604.792 1395.728)" fill="#91a8f5"/>
  </g>
</svg>
