<svg id="front-floral-tag" xmlns="http://www.w3.org/2000/svg" xmlns:xlink="http://www.w3.org/1999/xlink" width="1920" height="1080" viewBox="0 0 1920 1080">
  <defs>
    <linearGradient id="linear-gradient" x1="-0.014" y1="-0.016" x2="1.006" y2="1.007" gradientUnits="objectBoundingBox">
      <stop offset="0" stop-color="#c17a00"/>
      <stop offset="0.766" stop-color="#ca8f2a" stop-opacity="0.69"/>
      <stop offset="1" stop-color="#f9f9f9"/>
    </linearGradient>
    <linearGradient id="linear-gradient-18" y1="0.018" x2="1.017" y2="0.978" gradientUnits="objectBoundingBox">
      <stop offset="0" stop-color="#fff" stop-opacity="0.4"/>
      <stop offset="1" stop-color="#fff" stop-opacity="0.051"/>
    </linearGradient>
  </defs>
  <rect id="Rectangle_29" data-name="Rectangle 29" width="1920" height="429" transform="translate(0 651)" fill="#fbfaf8"/>
  <g id="Component_1_1" data-name="Component 1 – 1">
    <path id="Path_13" data-name="Path 13" d="M0,0H1920V748.929s-181.577,108.553-530,99.2S877.5,701.03,530,674.266,0,802.756,0,802.756Z" fill="url(#linear-gradient)"/>
    <path id="Path_14" data-name="Path 14" d="M10429,1235.651c-92.2-17.057-282.067-119.47-282.067-119.47s-130.828-51.3-225.539-136.934,58.154-152.867,85.152-182.962,40.32-12.857,42.576,49.48-17.577,69.862,43.727,156.5,208.278,181.812,208.278,181.812Z" transform="translate(-9039 -388.146)" fill="url(#linear-gradient)"/>
    <path id="Path_15" data-name="Path 15" d="M10429,1254.067c54-12.177,134.635-128.468,169-128.057s115.279-56.317,115.279-56.317,127.749-57.121,156.464-139.3,12.48-198.63-41.6-189.424-24.348,67.516-84.09,111.53,10.938,55.694-50.218,142.86-79.643,77.375-145.852,134.623-35,58.892-118.985,124.088" transform="translate(-9039 -406.562)" fill="url(#linear-gradient)"/>
    <path id="Path_16" data-name="Path 16" d="M10429,1204.784c262.16-307.237,221.77-214.765,288.173-341.342s47.633-140.8-22.561-164.966,8.055-65.59-64.439-31.069-55.233,63.289-47.179,126.577-1.72,178.383-21.282,216.357S10429,1204.784,10429,1204.784Z" transform="translate(-9039 -357.279)" fill="url(#linear-gradient)"/>
    <path id="Path_17" data-name="Path 17" d="M10412,1231.256s-59.146-24.171-79.858-37.979-178.358-93.207-205.976-143.838-130.046-121.67-110.484-166.547,2.317-187.868,79.415-148.745,125.426-3.452,130.029,77.1-66.741,112.769-21.863,172.605,10.355,116.221,69.042,153.043S10412,1231.256,10412,1231.256Z" transform="translate(-9022 -387)" fill="url(#linear-gradient)"/>
    <path id="Path_18" data-name="Path 18" d="M10429,1234.5s-70.256-60.962-80.611-67.866-56.864-51.95-71.771-76.124,10.976-100.236,0-157.01-28.09-5-26.176-56.671-37.514-143.109,33.83-150.013c27.682-2.679,46.209,51.92,74.535,60.837,44.407,13.98,29.8,49.088,21.354,79.37-13.809,49.48-7.776,39.5-26.187,71.715s-50.815,61.133-31.253,139.38S10429,1234.5,10429,1234.5Z" transform="translate(-9039 -387)" fill="url(#linear-gradient)"/>
    <path id="Path_19" data-name="Path 19" d="M10429,1182.92c61.887-138.273,129.829-187.564,128.679-252s10.356-60.987,0-69.042,10.357-142.687-44.877-133.481-96.659,55.234-93.207,71.343,4.651,50.212,10.405,67.473,54.034,131.6,47.13,169.571S10429,1182.92,10429,1182.92Z" transform="translate(-9040 -335.415)" fill="url(#linear-gradient)"/>
    <path id="Path_20" data-name="Path 20" d="M10428,1215.362c-24.486-39.282-87.8-121.046-87.8-121.046s-37.974-43.727-10.356-75.946-2.3-84,25.315-85.152,49.48-36.822,60.987,0,48.33,48.329,31.069,90.905-50.187,106.3-45.585,120.112S10428,1215.362,10428,1215.362Z" transform="translate(-9038 -371)" fill="url(#linear-gradient)"/>
    <path id="Path_21" data-name="Path 21" d="M10429,1222.51s151.268-105.413,181.363-98.332,91.2-59.306,111.563-82.32,65.5-91.171,87.631-80.549,18.367,16.375,44.258,31.866,76.574-5.746,59.306,30.1-95.63,132.744-128.381,113.27-130.118,14.193-174.376,8.882S10429,1222.51,10429,1222.51Z" transform="translate(-9039 -374.635)" fill="url(#linear-gradient)"/>
    <path id="Path_22" data-name="Path 22" d="M10429,1234.452c198.182-2.655,182.918,108.069,295.045,103.238s239.973-75.291,157.653-97.42-61.28-10.083-107.9,0,17.268,29.352-82.755,15.189S10429,1234.452,10429,1234.452Z" transform="translate(-9039 -387)" fill="url(#linear-gradient)"/>
    <path id="Path_23" data-name="Path 23" d="M10429,1234.734c-163.275-11.147-276.938-54.622-303.932-67.918s-32.833-112.272-72.494-103.564-107.369,60.633-70.193,97.81,33.137,50.817,70.193,81.863,43.344,0,93.207,0,31.647,12.628,106.245,0S10429,1234.734,10429,1234.734Z" transform="translate(-9039 -387)" fill="url(#linear-gradient)"/>
    <path id="Path_24" data-name="Path 24" d="M10429,1234.452c39.738,0,119.4,7.421,159.234,46.368s54.88,85.86,44.258,92.056-12.392,14.163-20.358,23.9-35.406,29.21-42.487,0,28.325-56.65,0-79.664-4.426-39.832-32.751-49.569S10429,1234.452,10429,1234.452Z" transform="translate(-9039 -387)" fill="url(#linear-gradient)"/>
    <path id="Path_25" data-name="Path 25" d="M10429,1234.734c-81.239,19.185-161.192-4.368-163.848,13.335s-7.081,23.014-7.081,23.014-49.568,17.7-17.7,48.684,35.407,35.406,61.076-7.966,40.5-35.849,53.994-47.8S10429,1234.734,10429,1234.734Z" transform="translate(-9039 -387)" fill="url(#linear-gradient)"/>
    <path id="Path_26" data-name="Path 26" d="M10429,1235.158c-17.2,36.395-43.575,38.228-62.939,44.778s-26.556,11.507-23.015,31.866-17.7,52.224,11.508,48.684,53.108-8.852,43.372-22.129-10.622-22.129,4.426-41.6S10429,1235.158,10429,1235.158Z" transform="translate(-9039 -387)" fill="url(#linear-gradient)"/>
    <path id="Path_27" data-name="Path 27" d="M10429,1244.452c67.179,39.832,82.226,39.287,103.47,50.531s23.9,39.832,23.9,39.832,24.785,15.933-11.507,24.784-46.028-4.426-63.731-32.751S10429,1244.452,10429,1244.452Z" transform="translate(-9039 -397)" fill="url(#linear-gradient)"/>
    <path id="Path_28" data-name="Path 28" d="M10429,1234.529c26.494-85.011,21.441-155.3,56.963-162.689s57.363-95.226,8.21-94.017-43.255,24.166-49.453,34.179-42,28.672-27.9,41.968,2.61,60.837,12.184,72.118S10429,1234.529,10429,1234.529Z" transform="translate(-9039 -387)" fill="url(#linear-gradient)"/>
    <path id="Path_29" data-name="Path 29" d="M10429,1235.033c89.206-38.758,144.726-65.994,144.726-65.994s48.187-15.189,72.279,0,79.088-37.187,110.514-9.428,76.47,19.379,36.14,49.757-95.85,49.234-117.323,37.187-7.855-28.807-52.9-37.187-41.9-23.569-71.232-12.57S10429,1235.033,10429,1235.033Z" transform="translate(-9039 -387)" fill="url(#linear-gradient)"/>
  </g>
  <g id="Group_4" data-name="Group 4" transform="translate(-87.131 -284.928)">
    <path id="Rectangle_27" data-name="Rectangle 27" d="M35,0H580a35,35,0,0,1,35,35V87a0,0,0,0,1,0,0H0a0,0,0,0,1,0,0V35A35,35,0,0,1,35,0Z" transform="translate(383 599.928)" fill="url(#linear-gradient-18)"/>
    <text id="Nesa_Rosmar_Jan_Bertanico" data-name="Nesa Rosmar Jan Bertanico" transform="translate(525 652.928)" fill="#fff" font-size="25" font-family="Arial-BoldMT, Arial" font-weight="700"><tspan x="0" y="0">Nesa Rosmar Jan Bertanico</tspan></text>
    <path id="Path_30" data-name="Path 30" d="M0,0H615.131V171.1c0,18.685-11.208,33.832-25.034,33.832H25.034C11.208,204.928,0,189.781,0,171.1Z" transform="translate(383 687)" fill="#c17a00"/>
    <text id="NesaByte" transform="translate(453 818.928)" fill="#fff" font-size="100" font-family="SegoeScript-Bold, Segoe Script" font-weight="700"><tspan x="0" y="0">NesaByte</tspan></text>
  </g>
</svg>
