<svg xmlns="http://www.w3.org/2000/svg" xmlns:xlink="http://www.w3.org/1999/xlink" width="1920" height="1080" viewBox="0 0 1920 1080">
  <defs>
    <linearGradient id="linear-gradient" x1="0.5" x2="0.5" y2="1" gradientUnits="objectBoundingBox">
      <stop offset="0" stop-color="#476aea"/>
      <stop offset="1" stop-color="#000827"/>
    </linearGradient>
    <radialGradient id="radial-gradient" cx="0.5" cy="0.5" r="0.5" gradientUnits="objectBoundingBox">
      <stop offset="0" stop-color="#adbdf8" stop-opacity="0"/>
      <stop offset="1" stop-color="#dce4fe" stop-opacity="0.388"/>
    </radialGradient>
    <clipPath id="clip-help">
      <rect width="1920" height="1080"/>
    </clipPath>
  </defs>
  <g id="help" clip-path="url(#clip-help)">
    <rect id="background" width="1920" height="1080" fill="#adbdf8"/>
    <path id="desc" d="M40.838,0H1539.582c22.554,0,40.838,14.891,40.838,33.261v795.76c0,18.369-18.284,33.261-40.838,33.261H40.838C18.284,862.282,0,847.39,0,829.021V33.261C0,14.891,18.284,0,40.838,0Z" transform="translate(169.79 167.719)" fill="#fff"/>
    <text id="HELP-2" data-name="HELP" transform="translate(960 250)" fill="#2c57f3" font-size="36" font-family="Arial-BoldMT, Arial" font-weight="700"><tspan x="-48.006" y="0">HELP</tspan></text>
    <text id="HOW_TO_USE:_Fill_out_the_information_fields_to_the_best_of_your_abilities_click_the_checkmark_box_beside_the_fields_that_you_are_willing_to_share._Cras_eu_tincidunt_augue._Proin_et_dapibus_dolor._Etiam_cursus_libero_et_hendrerit_euismod_ante_ante_venen" data-name="HOW TO USE: Fill out the information fields to the best of your abilities, click the checkmark box beside the fields that you are willing to share.

Cras eu tincidunt augue. Proin et dapibus dolor. Etiam cursus, libero et hendrerit euismod, ante ante venen" transform="translate(259 299)" fill="#646464" font-size="22" font-family="ArialMT, Arial"><tspan x="0" y="20">HOW TO USE: Fill out the information fields to the best of your abilities, click the checkmark box beside the fields that you are willing to share.</tspan><tspan x="0" y="44"></tspan><tspan x="0" y="68">Cras eu tincidunt augue. Proin et dapibus dolor. Etiam cursus, libero et hendrerit euismod, ante ante venenatis odio, quis pretium ex nisl in </tspan><tspan x="0" y="92">metus. Integer volutpat porttitor urna, ac commodo arcu sagittis quis. Pellentesque quis pulvinar orci. Maecenas vel velit ut ex faucibus luctus. </tspan><tspan x="0" y="116">In non lectus non velit cursus placerat. Pellentesque dapibus feugiat blandit.</tspan><tspan x="0" y="140"></tspan><tspan x="0" y="164">Nulla vel porta est, id porttitor justo. Integer tincidunt et lacus sed rhoncus. Quisque finibus lobortis sem, ac accumsan quam aliquet non. </tspan><tspan x="0" y="188">Lorem ipsum dolor sit amet, consectetur adipiscing elit. Ut gravida, ligula id accumsan cursus, purus turpis placerat tortor, sit amet pretium orci </tspan><tspan x="0" y="212">ligula eget ex. Sed erat turpis, tempus ac tincidunt nec, feugiat ut leo. Maecenas rutrum justo eget nunc consequat, vel consectetur arcu </tspan><tspan x="0" y="236">ullamcorper. Donec gravida at erat et porta.</tspan><tspan x="0" y="260"></tspan><tspan x="0" y="284"></tspan><tspan x="0" y="308"></tspan><tspan x="0" y="332">Vestibulum ante ipsum primis in faucibus orci luctus et ultrices posuere cubilia curae; Suspendisse in urna augue. Donec finibus quam at justo </tspan><tspan x="0" y="356">varius tempor. Nullam semper, dui non porta pulvinar, ipsum ligula cursus erat, in tincidunt augue mauris ut turpis. Sed sit amet odio ut purus </tspan><tspan x="0" y="380">fermentum suscipit. Aliquam laoreet leo finibus risus fringilla, vel euismod mi interdum. In varius pellentesque purus a varius. Lorem ipsum </tspan><tspan x="0" y="404">dolor sit amet, consectetur adipiscing elit. Vivamus pulvinar, tortor vitae pharetra ultricies, metus purus condimentum lectus, a convallis sapien </tspan><tspan x="0" y="428">odio in dui.</tspan><tspan x="0" y="452"></tspan><tspan x="0" y="476">Vestibulum eu quam risus. Donec commodo vel nibh vel blandit. Cras ac odio lobortis, tempus est at, luctus nisl. Nunc sit amet ipsum ut nibh </tspan><tspan x="0" y="500">venenatis interdum. Morbi eu leo ac ex sagittis ornare ac ut libero. Phasellus auctor tellus vitae eros venenatis elementum. Vivamus vel </tspan><tspan x="0" y="524">maximus nulla. Integer mollis felis luctus eros volutpat, eu pulvinar ligula tincidunt.</tspan></text>
    <g id="logo" transform="translate(-132.533 -17.551)">
      <g id="logo-2" data-name="logo" transform="translate(181.944 120.408)">
        <g id="logo_consentForm" transform="translate(0 0)">
          <g id="heart_beating" transform="translate(0 0)">
            <ellipse id="Ellipse_1" data-name="Ellipse 1" cx="81.113" cy="16.183" rx="81.113" ry="16.183" transform="translate(40.633 181.246)" fill="#cbd5fb"/>
            <path id="Path_271" data-name="Path 271" d="M4756.1,2640.217s-9.177-11.461-24.553-14.029c-8.972-1.5-23.07,1.617-31.143,7.839-16.937,12.918-15.414,38.332-15.414,38.332s.7,13.5,11.221,30.961,15.876,24.259,30.864,38.866,29.085,19.568,29.085,19.568a258.026,258.026,0,0,0,28.144-19.568,138.373,138.373,0,0,0,21.662-23.178s10.057-14.239,14.01-24.3,4.919-26.8,4.919-26.8l-68.8,67.52-40.793-39.417s-7.274-7.611.846-15.9,15.394-1.524,15.394-1.524l24.553,25.545,62.065-61s-.89-1.336-1.361-1.974c-5.823-7.934-15.979-15.026-30.624-14.972C4767.417,2626.256,4756.1,2640.217,4756.1,2640.217Z" transform="translate(-4637.259 -2564.324)" fill="url(#linear-gradient)"/>
            <path id="Path_274" data-name="Path 274" d="M848.42,164.541l91.146-90.746,2.2-2.191s3.666-4.971-.94-8.975-9.081.578-9.081.578l-2.372,2.306L848.42,144.22,822.076,116.8s-4.638-5.075-9.881,0-.892,10.455-.892,10.455Z" transform="translate(-729.58 0.503)" fill="#c5d0fa"/>
            <g id="Path_38" data-name="Path 38" transform="translate(0 0)" fill="url(#radial-gradient)">
              <path d="M120.38,0A120.42,120.42,0,0,1,226.56,177.149c-20.31,37.877-59.765,38.995-105.706,38.995-45.741,0-86-.9-106.428-38.573A120.419,120.419,0,0,1,120.38,0Z" stroke="none"/>
              <path d="M 120.3797149658203 5 C 112.5480651855469 5 104.7228546142578 5.788711547851563 97.12139892578125 7.34417724609375 C 89.71568298339844 8.859619140625 82.43118286132813 11.12086486816406 75.47024536132813 14.06507873535156 C 68.63461303710938 16.95628356933594 62.04124450683594 20.53511047363281 55.87332153320313 24.70207214355469 C 49.76268005371094 28.830322265625 44.016357421875 33.571533203125 38.79393005371094 38.79393005371094 C 33.571533203125 44.016357421875 28.83035278320313 49.76268005371094 24.70207214355469 55.873291015625 C 20.53511047363281 62.041259765625 16.95628356933594 68.63461303710938 14.06507873535156 75.47026062011719 C 11.12086486816406 82.43115234375 8.859603881835938 89.71564483642578 7.34417724609375 97.12139892578125 C 5.788711547851563 104.7228622436523 5 112.5480728149414 5 120.3797225952148 C 5 130.1282653808594 6.215927124023438 139.812255859375 8.613967895507813 149.1627502441406 C 10.93840026855469 158.2261505126953 14.37281799316406 166.98193359375 18.82182312011719 175.1868896484375 C 21.14207458496094 179.4660034179688 23.81553649902344 183.3635406494141 26.76795959472656 186.7712860107422 C 29.58154296875 190.0187225341797 32.752685546875 192.9407958984375 36.193359375 195.4563598632813 C 42.66557312011719 200.1884002685547 50.272216796875 203.6888275146484 59.44789123535156 206.15771484375 C 67.43392944335938 208.3065032958984 76.81260681152344 209.7022857666016 88.11982727050781 210.4248962402344 C 98.50186157226563 211.0883636474609 109.5281066894531 211.1432952880859 120.8542861938477 211.1432952880859 C 131.6560974121094 211.1432952880859 143.0794677734375 211.0849761962891 153.5640258789063 210.3877868652344 C 164.77685546875 209.6421813964844 174.0740051269531 208.2168273925781 181.9867095947266 206.0302886962891 C 191.0380401611328 203.5291137695313 198.54736328125 199.9912109375 204.9437866210938 195.2145080566406 C 208.3406829833984 192.6777496337891 211.4764709472656 189.7314758300781 214.2639617919922 186.4575042724609 C 217.1872863769531 183.0239715576172 219.8417510986328 179.0970458984375 222.1535339355469 174.7857208251953 C 226.5398864746094 166.6055755615234 229.9230041503906 157.8980102539063 232.2088165283203 148.9048156738281 C 234.5648193359375 139.6356506347656 235.7594299316406 130.0384368896484 235.7594299316406 120.3797225952148 C 235.7594299316406 112.5480728149414 234.9707183837891 104.7228622436523 233.4152526855469 97.12139892578125 C 231.8998260498047 89.71564483642578 229.6385650634766 82.43115234375 226.6943511962891 75.47026062011719 C 223.8031463623047 68.63461303710938 220.2243194580078 62.041259765625 216.0573577880859 55.873291015625 C 211.9290771484375 49.76268005371094 207.1878967285156 44.016357421875 201.9654998779297 38.79393005371094 C 196.7430725097656 33.571533203125 190.9967498779297 28.830322265625 184.8861083984375 24.70207214355469 C 178.7181701660156 20.53511047363281 172.1248168945313 16.95628356933594 165.2891845703125 14.06507873535156 C 158.3282470703125 11.12086486816406 151.0437469482422 8.859619140625 143.6380310058594 7.34417724609375 C 136.0365753173828 5.788711547851563 128.2113647460938 5 120.3797149658203 5 M 120.3797149658203 0 C 186.8635711669922 0 240.7594299316406 53.89582824707031 240.7594299316406 120.3797225952148 C 240.7594299316406 140.9232177734375 235.6134338378906 160.2648315429688 226.5599975585938 177.1485748291016 C 206.2498931884766 215.0251770019531 166.7946472167969 216.1432952880859 120.8542861938477 216.1432952880859 C 75.11338806152344 216.1432952880859 34.85635375976563 215.2481536865234 14.4263916015625 177.5702209472656 C 5.246429443359375 160.6402893066406 0 141.1226806640625 0 120.3797225952148 C 0 53.89582824707031 53.89585876464844 0 120.3797149658203 0 Z" stroke="none" fill="rgba(173,189,248,0.14)"/>
            </g>
          </g>
          <path id="Subtraction_1" data-name="Subtraction 1" d="M11.458,204.812c-3.383,0-7.364-.006-11.232-.043,36.861-.359,71.432-3.45,89.375-36.906a114.211,114.211,0,0,0,13.454-53.793A113.554,113.554,0,0,0,0,.524C3.645.176,7.348,0,11.01,0a113.33,113.33,0,0,1,44.4,8.964A114.031,114.031,0,0,1,74.786,19.482,114.651,114.651,0,0,1,105.6,50.294,113.961,113.961,0,0,1,116.113,69.67a113.334,113.334,0,0,1,8.965,44.4,114.457,114.457,0,0,1-3.513,28.2,113.273,113.273,0,0,1-9.942,25.6,61.868,61.868,0,0,1-17.649,20.913A68.838,68.838,0,0,1,70.646,199.8a139.757,139.757,0,0,1-27.879,4.289C32.688,204.756,21.774,204.812,11.458,204.812Z" transform="translate(108.761 5.666)" fill="rgba(254,254,254,0.22)"/>
        </g>
      </g>
    </g>
  </g>
</svg>
