<svg xmlns="http://www.w3.org/2000/svg" width="141.086" height="161.241" viewBox="0 0 141.086 161.241">
  <path id="home05sched" d="M137.307,50.388H3.779A3.779,3.779,0,0,1,0,46.609V35.272A15.116,15.116,0,0,1,15.116,20.155H30.233V3.779A3.779,3.779,0,0,1,34.012,0h12.6a3.779,3.779,0,0,1,3.779,3.779V20.155H90.7V3.779A3.779,3.779,0,0,1,94.477,0h12.6a3.779,3.779,0,0,1,3.779,3.779V20.155H125.97a15.116,15.116,0,0,1,15.116,15.116V46.609A3.779,3.779,0,0,1,137.307,50.388ZM3.779,60.465H137.307a3.779,3.779,0,0,1,3.779,3.779v81.88a15.116,15.116,0,0,1-15.116,15.116H15.116A15.116,15.116,0,0,1,0,146.125V64.245A3.779,3.779,0,0,1,3.779,60.465ZM108.742,90.681l-8.871-8.943a3.779,3.779,0,0,0-5.344-.021L61.133,114.842l-14.48-14.6a3.779,3.779,0,0,0-5.345-.021l-8.943,8.871a3.779,3.779,0,0,0-.021,5.344l26.013,26.223a3.779,3.779,0,0,0,5.344.021l45.019-44.658a3.779,3.779,0,0,0,.021-5.344Z" fill="#175935"/>
</svg>
