<svg xmlns="http://www.w3.org/2000/svg" width="215" height="215" viewBox="0 0 215 215">
  <g id="home05sched" transform="translate(-1057 -3837)">
    <rect id="Rectangle_38" data-name="Rectangle 38" width="215" height="215" transform="translate(1057 3837)" fill="none"/>
    <path id="home05sched-2" data-name="home05sched" d="M168.168,61.713H4.628A4.629,4.629,0,0,1,0,57.084V43.2A18.514,18.514,0,0,1,18.514,24.685H37.028V4.628A4.629,4.629,0,0,1,41.656,0H57.084a4.629,4.629,0,0,1,4.628,4.628V24.685h49.37V4.628A4.629,4.629,0,0,1,115.712,0H131.14a4.629,4.629,0,0,1,4.628,4.628V24.685h18.514A18.514,18.514,0,0,1,172.8,43.2V57.084A4.629,4.629,0,0,1,168.168,61.713ZM4.628,74.055H168.168a4.629,4.629,0,0,1,4.628,4.628V178.967a18.514,18.514,0,0,1-18.514,18.514H18.514A18.514,18.514,0,0,1,0,178.967V78.684A4.629,4.629,0,0,1,4.628,74.055Zm128.554,37.007-10.865-10.953a4.628,4.628,0,0,0-6.545-.026l-40.9,40.57L57.138,122.775a4.629,4.629,0,0,0-6.546-.026L39.64,133.614a4.628,4.628,0,0,0-.026,6.545l31.86,32.117a4.628,4.628,0,0,0,6.545.026l55.138-54.695a4.628,4.628,0,0,0,.026-6.545Z" transform="translate(1078.102 3845.76)" fill="#175935"/>
  </g>
</svg>
