<svg xmlns="http://www.w3.org/2000/svg" width="192.613" height="162.528" viewBox="0 0 192.613 162.528">
  <path id="home05res" d="M52.521,3.576a4.514,4.514,0,0,0-6.4,0L22.169,27.393l-8.54-8.321a4.514,4.514,0,0,0-6.4,0L1.328,24.985a4.514,4.514,0,0,0,0,6.4l17.9,17.832a4.808,4.808,0,0,0,6.625,0l5.865-5.876L58.882,16.178a4.548,4.548,0,0,0,.034-6.4Zm0,59.887a4.514,4.514,0,0,0-6.4,0L22.169,87.434l-8.54-8.314a4.514,4.514,0,0,0-6.4,0l-5.906,5.9a4.514,4.514,0,0,0,0,6.4l17.858,17.869a4.8,4.8,0,0,0,6.621,0l5.906-5.9L58.875,76.216a4.514,4.514,0,0,0,.034-6.358Zm-28.444,65.2a18.059,18.059,0,1,0,0,36.115,18.057,18.057,0,1,0,0-36.115Zm162.517,6.019H78.249A6.019,6.019,0,0,0,72.23,140.7v12.038a6.019,6.019,0,0,0,6.019,6.019H186.594a6.019,6.019,0,0,0,6.019-6.019V140.7A6.019,6.019,0,0,0,186.594,134.68Zm0-120.383H78.249a6.019,6.019,0,0,0-6.019,6.019V32.355a6.019,6.019,0,0,0,6.019,6.019H186.594a6.019,6.019,0,0,0,6.019-6.019V20.316A6.019,6.019,0,0,0,186.594,14.3Zm0,60.192H78.249a6.019,6.019,0,0,0-6.019,6.019V92.546a6.019,6.019,0,0,0,6.019,6.019H186.594a6.019,6.019,0,0,0,6.019-6.019V80.508A6.019,6.019,0,0,0,186.594,74.489Z" transform="translate(0 -2.248)" fill="#175935"/>
</svg>
