<svg xmlns="http://www.w3.org/2000/svg" width="558" height="558" viewBox="0 0 558 558">
  <g id="icon_wordpress" transform="translate(-591 -174)">
    <g id="Ellipse_152" data-name="Ellipse 152" transform="translate(591 174)" fill="none" stroke="#a8703c" stroke-width="14">
      <circle cx="279" cy="279" r="279" stroke="none"/>
      <circle cx="279" cy="279" r="272" fill="none"/>
    </g>
    <path id="Icon_awesome-wordpress-simple" data-name="Icon awesome-wordpress-simple" d="M188.548.563C84.929.563.563,84.853.563,188.548c0,103.619,84.366,187.985,187.985,187.985s187.985-84.366,187.985-187.985C376.533,84.853,292.167.563,188.548.563ZM19.513,188.548A167.854,167.854,0,0,1,34.142,119.8L114.794,340.68A169.162,169.162,0,0,1,19.513,188.548ZM188.548,357.583a168.372,168.372,0,0,1-47.754-6.9L191.5,203.329l51.923,142.353a22.836,22.836,0,0,0,1.213,2.35A169.221,169.221,0,0,1,188.548,357.583Zm23.271-248.247c10.157-.531,19.329-1.592,19.329-1.592,9.1-1.061,8.035-14.478-1.061-13.947,0,0-27.364,2.122-45.025,2.122-16.6,0-44.495-2.122-44.495-2.122-9.1-.531-10.157,13.417-1.061,13.947,0,0,8.641,1.061,17.737,1.592l26.3,72.162-36.991,110.9L85,109.336c10.157-.531,19.329-1.592,19.329-1.592,9.1-1.061,8.035-14.478-1.061-13.947,0,0-27.364,2.122-45.026,2.122-3.184,0-6.9-.076-10.915-.227A169.034,169.034,0,0,1,302.7,63.856a21.416,21.416,0,0,0-2.2-.152c-16.6,0-28.349,14.478-28.349,30.017,0,13.947,8.035,25.7,16.6,39.644,6.443,11.218,13.947,25.7,13.947,46.617,0,14.478-5.533,31.23-12.886,54.652l-16.828,56.32L211.819,109.336Zm61.7,225.279,51.62-149.251c9.627-24.1,12.886-43.358,12.886-60.565a124.4,124.4,0,0,0-1.137-17.358A169.045,169.045,0,0,1,273.52,334.616Z" transform="translate(681.453 264.452)" fill="#a8703c"/>
  </g>
</svg>
