<svg xmlns="http://www.w3.org/2000/svg" width="558" height="558" viewBox="0 0 558 558">
  <g id="icon_discord" transform="translate(-591 -174)">
    <g id="Ellipse_152" data-name="Ellipse 152" transform="translate(591 174)" fill="none" stroke="#a8703c" stroke-width="14">
      <circle cx="279" cy="279" r="279" stroke="none"/>
      <circle cx="279" cy="279" r="272" fill="none"/>
    </g>
    <path id="Icon_awesome-discord" data-name="Icon awesome-discord" d="M215.631,176.442c0,11.329-8.358,20.616-18.944,20.616-10.4,0-18.944-9.286-18.944-20.616s8.358-20.616,18.944-20.616S215.631,165.113,215.631,176.442ZM128.9,155.826c-10.587,0-18.944,9.286-18.944,20.616s8.544,20.616,18.944,20.616c10.587,0,18.944-9.286,18.944-20.616C148.026,165.113,139.482,155.826,128.9,155.826ZM325.025,38.26v333.2c-46.791-41.349-31.826-27.662-86.178-78.192l9.844,34.36H38.074A38.166,38.166,0,0,1,0,289.365V38.26A38.166,38.166,0,0,1,38.074,0H286.951A38.166,38.166,0,0,1,325.025,38.26ZM272.092,214.331c0-59.8-26.745-108.28-26.745-108.28-26.745-20.059-52.19-19.5-52.19-19.5l-2.6,2.972c31.574,9.658,46.246,23.588,46.246,23.588-44.118-24.18-95.943-24.185-138.739-5.386-6.872,3.157-10.958,5.386-10.958,5.386s15.415-14.673,48.847-24.33L134.1,86.549s-25.445-.557-52.19,19.5c0,0-26.745,48.475-26.745,108.28,0,0,15.6,26.931,56.647,28.231,0,0,6.872-8.358,12.444-15.415-23.588-7.058-32.5-21.916-32.5-21.916,2.732,1.912,7.238,4.391,7.615,4.643,31.349,17.556,75.879,23.307,115.895,6.5a106.28,106.28,0,0,0,21.359-10.958s-9.286,15.23-33.617,22.1c5.572,7.058,12.258,15.044,12.258,15.044C256.305,241.261,272.092,214.331,272.092,214.331Z" transform="translate(707.487 267.272)" fill="#a8703c"/>
  </g>
</svg>
