<svg xmlns="http://www.w3.org/2000/svg" width="558" height="558" viewBox="0 0 558 558">
  <g id="icon_react" transform="translate(-681 -317)">
    <g id="Ellipse_153" data-name="Ellipse 153" transform="translate(681 317)" fill="none" stroke="#b87b13" stroke-width="14">
      <circle cx="279" cy="279" r="279" stroke="none"/>
      <circle cx="279" cy="279" r="272" fill="none"/>
    </g>
    <g id="Ellipse_154" data-name="Ellipse 154" transform="translate(871 378)" fill="none" stroke="#b87b13" stroke-width="20">
      <ellipse cx="89.5" cy="212" rx="89.5" ry="212" stroke="none"/>
      <ellipse cx="89.5" cy="212" rx="79.5" ry="202" fill="none"/>
    </g>
    <g id="Ellipse_155" data-name="Ellipse 155" transform="translate(871 378)" fill="none" stroke="#b87b13" stroke-width="20">
      <ellipse cx="89.5" cy="212" rx="89.5" ry="212" stroke="none"/>
      <ellipse cx="89.5" cy="212" rx="79.5" ry="202" fill="none"/>
    </g>
    <g id="Ellipse_156" data-name="Ellipse 156" transform="matrix(0.485, -0.875, 0.875, 0.485, 731.69, 565.499)" fill="none" stroke="#b87b13" stroke-width="20">
      <ellipse cx="89.5" cy="212" rx="89.5" ry="212" stroke="none"/>
      <ellipse cx="89.5" cy="212" rx="79.5" ry="202" fill="none"/>
    </g>
    <g id="Ellipse_157" data-name="Ellipse 157" transform="matrix(-0.485, -0.875, 0.875, -0.485, 818.471, 771.058)" fill="none" stroke="#b87b13" stroke-width="20">
      <ellipse cx="89.5" cy="212" rx="89.5" ry="212" stroke="none"/>
      <ellipse cx="89.5" cy="212" rx="79.5" ry="202" fill="none"/>
    </g>
    <circle id="Ellipse_158" data-name="Ellipse 158" cx="41" cy="41" r="41" transform="translate(919 549)" fill="#b87b13"/>
  </g>
</svg>
