<svg xmlns="http://www.w3.org/2000/svg" width="558" height="558" viewBox="0 0 558 558">
  <g id="icon_github" transform="translate(-591 -174)">
    <g id="Ellipse_152" data-name="Ellipse 152" transform="translate(591 174)" fill="none" stroke="#a8703c" stroke-width="14">
      <circle cx="279" cy="279" r="279" stroke="none"/>
      <circle cx="279" cy="279" r="272" fill="none"/>
    </g>
    <path id="Icon_awesome-github" data-name="Icon awesome-github" d="M127.2,299.124c0,1.533-1.763,2.76-3.987,2.76-2.53.23-4.294-1-4.294-2.76,0-1.533,1.763-2.76,3.987-2.76C125.206,296.133,127.2,297.36,127.2,299.124Zm-23.845-3.45c-.537,1.533,1,3.3,3.3,3.757,1.993.767,4.294,0,4.754-1.533s-1-3.3-3.3-3.987C106.114,293.373,103.891,294.14,103.354,295.673Zm33.889-1.3c-2.223.537-3.757,1.993-3.527,3.757.23,1.533,2.223,2.53,4.524,1.993,2.223-.537,3.757-1.993,3.527-3.527C141.537,295.137,139.467,294.14,137.243,294.37ZM187.693.563C81.349.563,0,81.3,0,187.642c0,85.029,53.517,157.791,129.959,183.4,9.814,1.763,13.264-4.294,13.264-9.277,0-4.754-.23-30.976-.23-47.077,0,0-53.67,11.5-64.941-22.848,0,0-8.741-22.312-21.315-28.062,0,0-17.558-12.038,1.227-11.808a40.472,40.472,0,0,1,29.6,19.781c16.791,29.6,44.93,21.085,55.894,16.024,1.763-12.268,6.747-20.778,12.268-25.839-42.86-4.754-86.1-10.964-86.1-84.723,0-21.085,5.827-31.666,18.095-45.16-1.993-4.984-8.511-25.532,1.993-52.06,16.024-4.984,52.9,20.7,52.9,20.7a181.13,181.13,0,0,1,96.3,0s36.879-25.762,52.9-20.7c10.5,26.605,3.987,47.077,1.993,52.06,12.268,13.571,19.781,24.152,19.781,45.16,0,73.989-45.16,79.892-88.02,84.723,7.054,6.057,13.034,17.558,13.034,35.576,0,25.839-.23,57.811-.23,64.1,0,4.984,3.527,11.041,13.264,9.277,76.672-25.455,128.656-98.217,128.656-183.246C380.294,81.3,294.038.563,187.693.563ZM74.525,265c-1,.767-.767,2.53.537,3.987,1.227,1.227,2.99,1.763,3.987.767,1-.767.767-2.53-.537-3.987C77.285,264.545,75.522,264.008,74.525,265Zm-8.281-6.21c-.537,1,.23,2.224,1.763,2.99a2.281,2.281,0,0,0,3.3-.537c.537-1-.23-2.224-1.763-2.99C68.008,257.8,66.781,258.027,66.245,258.794Zm24.842,27.3c-1.227,1-.767,3.3,1,4.754,1.763,1.763,3.987,1.993,4.984.767,1-1,.537-3.3-1-4.754C94.383,285.093,92.083,284.863,91.086,286.089Zm-8.741-11.271c-1.227.767-1.227,2.76,0,4.524s3.3,2.53,4.294,1.763c1.227-1,1.227-2.99,0-4.754C85.566,274.589,83.573,273.822,82.346,274.819Z" transform="translate(679.853 267.042)" fill="#a8703c"/>
  </g>
</svg>
