<svg xmlns="http://www.w3.org/2000/svg" width="558" height="558" viewBox="0 0 558 558">
  <g id="icon_cpp" transform="translate(-629 -151)">
    <g id="icon_c">
      <g id="Path_491" data-name="Path 491" transform="translate(629 151)" fill="none">
        <path d="M279,0C433.087,0,558,124.913,558,279S433.087,558,279,558,0,433.087,0,279,124.913,0,279,0Z" stroke="none"/>
        <path d="M 279 14 C 132.8785095214844 14 14 132.8785095214844 14 279 C 14 425.1215209960938 132.8785095214844 544 279 544 C 425.1215209960938 544 544 425.1215209960938 544 279 C 544 132.8785095214844 425.1215209960938 14 279 14 M 279 0 C 433.08740234375 0 558 124.91259765625 558 279 C 558 433.08740234375 433.08740234375 558 279 558 C 124.91259765625 558 0 433.08740234375 0 279 C 0 124.91259765625 124.91259765625 0 279 0 Z" stroke="none" fill="#a8703c"/>
      </g>
      <path id="Path_436" data-name="Path 436" d="M375,301.479s-.032,5.877-2.237,9.663a14.566,14.566,0,0,1-6.583,5.481L194.819,411.956a14.259,14.259,0,0,1-7.315,2.285c-3.833-.086-8.017-2.628-8.017-2.628L8.588,318.6a13.128,13.128,0,0,1-6.063-6.116A22.967,22.967,0,0,1,.569,307.5,20.791,20.791,0,0,1,.1,302.32l180.934-101.4Z" transform="translate(730 219)" fill="#a8703c"/>
      <path id="Path_435" data-name="Path 435" d="M366.154,97.176a18.812,18.812,0,0,1,6.612,5.793c2.229,3.582,2.3,8.536,2.3,8.536L375,301.479s-.032,5.877-2.237,9.663-197.644-107.77-197.644-107.77Z" transform="translate(730 219)" fill="#efd6be"/>
      <path id="Path_434" data-name="Path 434" d="M188.294,1.45c4.565.1,8.692,3.735,8.692,3.735L366.154,97.176a22.206,22.206,0,0,1,3.758,2.569c.867.717-367.881,211.672-368.206,210.875A24.611,24.611,0,0,1,0,300.723V116.672s.289-7.152,3.033-12.123a22.112,22.112,0,0,1,7.94-7.761l167.753-92S183.729,1.35,188.294,1.45Z" transform="translate(730 219)" fill="#d5a556"/>
      <path id="Subtraction_7" data-name="Subtraction 7" d="M-3071-892a140.027,140.027,0,0,1-28.013-2.824,138.309,138.309,0,0,1-26.092-8.1,139.018,139.018,0,0,1-23.611-12.816,139.993,139.993,0,0,1-20.572-16.973,139.977,139.977,0,0,1-16.973-20.572,139.026,139.026,0,0,1-12.816-23.611,138.329,138.329,0,0,1-8.1-26.092A140.037,140.037,0,0,1-3210-1031a140.036,140.036,0,0,1,2.824-28.013,138.315,138.315,0,0,1,8.1-26.092,139.026,139.026,0,0,1,12.816-23.611,139.984,139.984,0,0,1,16.973-20.572,139.993,139.993,0,0,1,20.572-16.973,139.007,139.007,0,0,1,23.611-12.816,138.3,138.3,0,0,1,26.092-8.1A140.022,140.022,0,0,1-3071-1170a139.193,139.193,0,0,1,36.845,4.94,138.077,138.077,0,0,1,33.142,13.964,139.884,139.884,0,0,1,28.142,21.7,140.988,140.988,0,0,1,21.846,28.159c.142.241.446.784.569,1.007l.008.014-60.922,35.1A67.691,67.691,0,0,0-3069-1097a68.077,68.077,0,0,0-68,68,68.076,68.076,0,0,0,68,68,67.6,67.6,0,0,0,58.008-32.5l59.7,33.231c0,.006-.238.374-.41.662a138.186,138.186,0,0,1-49.5,48.887,138.676,138.676,0,0,1-33.029,13.81A139.655,139.655,0,0,1-3071-892Z" transform="translate(3987 1456)" fill="#fff"/>
    </g>
    <path id="Path_438" data-name="Path 438" d="M15.568,14.628V0H29.551l-.027,14.628H44.262V28.475H29.524V42.332H15.568V28.475H1.3V14.628Z" transform="translate(1046.911 442.981) rotate(180)" fill="#fff"/>
    <path id="Path_439" data-name="Path 439" d="M15.568,14.628V0H29.551l-.027,14.628H44.262V28.475H29.524V42.332H15.568V28.475H1.3V14.628Z" transform="translate(1093.746 442.981) rotate(180)" fill="#fff"/>
  </g>
</svg>
