<svg xmlns="http://www.w3.org/2000/svg" width="558" height="558" viewBox="0 0 558 558">
  <g id="icon_email" transform="translate(-591 -174)">
    <g id="Ellipse_152" data-name="Ellipse 152" transform="translate(591 174)" fill="none" stroke="#a8703c" stroke-width="14">
      <circle cx="279" cy="279" r="279" stroke="none"/>
      <circle cx="279" cy="279" r="272" fill="none"/>
    </g>
    <path id="Icon_zocial-email" data-name="Icon zocial-email" d="M.072,221.23V25.172q0-.34,1.021-6.467l115.389,98.71L1.434,228.038A28.847,28.847,0,0,1,.072,221.23ZM15.389,5.089a14.669,14.669,0,0,1,5.786-1.021H331.942a19.274,19.274,0,0,1,6.127,1.021L222.34,104.14l-15.317,12.254-30.294,24.848-30.294-24.848L131.118,104.14Zm.34,236.224,116.07-111.3,44.93,36.421,44.93-36.421,116.07,111.3a16.343,16.343,0,0,1-5.786,1.021H21.176a15.416,15.416,0,0,1-5.446-1.021Zm221.247-123.9L352.025,18.7a20.316,20.316,0,0,1,1.021,6.467V221.23a26.089,26.089,0,0,1-1.021,6.808Z" transform="translate(693.44 329.799)" fill="#a8703c"/>
  </g>
</svg>
