<svg xmlns="http://www.w3.org/2000/svg" width="558" height="558" viewBox="0 0 558 558">
  <g id="icon_java" transform="translate(69.56 81.212)">
    <path id="Path_415" data-name="Path 415" d="M230.823,78.321c-17.739,11.423-37.843,24.371-48.62,45.789-18.711,37.372,38.292,78.136,40.727,79.851a3.358,3.358,0,0,0,3.94-.073,2.713,2.713,0,0,0,.775-3.534c-.209-.366-28.894-40.339-19.907-61.923,5.065-12.166,14.168-20.335,28.882-31.252,13.474-10.007,28.748-21.339,37.683-34.6,19.62-29.189-2.181-57.889-2.41-58.175a3.336,3.336,0,0,0-3.828-.968,2.842,2.842,0,0,0-1.814,3.241A56.683,56.683,0,0,1,258.74,55.4c-4.863,8.082-15.545,14.963-27.917,22.925Z" transform="translate(-28.923 -3)" fill="#efd6be"/>
    <path id="Path_416" data-name="Path 416" d="M221.85,211.756A13.408,13.408,0,0,1,214,209.247a166.38,166.38,0,0,1-30.275-28.424c-23.4-28.882-20.328-50.9-13.629-64.276,12.035-23.921,34.314-38.267,52.214-49.8,10.829-6.968,21.055-13.549,24.7-19.61a47.274,47.274,0,0,0,6.3-31.233A12.994,12.994,0,0,1,261.245.984,13.545,13.545,0,0,1,276.92,5.119c7.5,9.427,22.739,40.541,2.842,70.142-9.9,14.7-25.893,26.575-40,37.053-13.8,10.24-21.523,17.211-25.612,27.034-4.451,10.691,6.581,34.432,18.715,51.966.4.572.593.914.627.974a12.838,12.838,0,0,1-3.427,16.7A13.518,13.518,0,0,1,221.85,211.756ZM268.8,49.218a68.123,68.123,0,0,1-4.327,8.443c-6.086,10.116-17.69,17.585-31.129,26.232-16.64,10.716-35.5,22.863-45.03,41.8-6.148,12.278-.831,25.829,7.533,37.506-3.34-10.969-4.448-22.234-.514-31.683,5.882-14.129,15.861-23.384,32.217-35.521,12.855-9.547,27.357-20.318,35.3-32.113A37,37,0,0,0,268.8,49.218Z" transform="translate(-25.925)" fill="#a8703c"/>
    <path id="Path_417" data-name="Path 417" d="M335.922,121.545a2.464,2.464,0,0,0,.782-3.336,2.974,2.974,0,0,0-3.5-1.174c-2.721.946-66.668,23.512-66.668,50.784,0,18.795,8.768,28.729,15.171,35.978,2.514,2.842,4.681,5.3,5.4,7.4,2.01,6.044-2.755,16.965-4.76,20.662a2.459,2.459,0,0,0,.688,3.131,3.059,3.059,0,0,0,3.483.163c1.1-.7,26.871-17.381,22.25-37.484-1.721-7.636-5.826-13.219-9.445-18.144-5.6-7.631-9.652-13.147-3.51-23.325,7.2-11.877,39.787-34.424,40.115-34.652Z" transform="translate(-48.955 -26.574)" fill="#efd6be"/>
    <path id="Path_418" data-name="Path 418" d="M281.884,242.81A13.243,13.243,0,0,1,273.723,240a12.678,12.678,0,0,1-3.348-15.988c2.214-4.082,4.142-10.117,4.031-12.468-.648-.95-2.241-2.75-3.337-3.989-6.634-7.511-17.729-20.073-17.729-42.731,0-15.317,12.622-30.171,37.516-44.151a246.412,246.412,0,0,1,36-16.26,13.189,13.189,0,0,1,15.561,5.509,12.714,12.714,0,0,1-3.717,17.024c-15.11,10.49-33.282,25.114-37.174,31.536-2.474,4.1-2.622,4.345,3.008,12.01,4,5.45,8.983,12.226,11.173,21.934,6.092,26.506-23.335,46.163-26.711,48.317A13.171,13.171,0,0,1,281.884,242.81Zm.382-91.516c-5.326,4.806-8.543,9.477-8.543,13.526,0,14.945,6.7,22.535,12.618,29.231,3.1,3.5,6.026,6.812,7.4,10.854.185.558.342,1.126.474,1.7a14.439,14.439,0,0,0,1.609-9.658c-1.262-5.6-4.4-9.865-7.72-14.384C282.743,175.26,275.547,165.46,282.266,151.294Z" transform="translate(-45.955 -23.574)" fill="#a8703c"/>
    <path id="Path_419" data-name="Path 419" d="M392.235,263.108c-13.749,0-26.779,6.884-27.333,7.179-1.265.683,28.278,6.96,30.91,23.549,2.33,14.31-24.941,36.692-36.619,44.417a3.148,3.148,0,0,0,1.734,5.771,2.84,2.84,0,0,0,.658-.074c2.772-.59,71.937-17.609,65.058-55.466-4.191-23.2-22.913-25.377-34.407-25.377Z" transform="translate(-69.705 -59.828)" fill="#efd6be"/>
    <g id="Group_29" data-name="Group 29" transform="translate(51.242 189.753)">
      <path id="Path_420" data-name="Path 420" d="M375.893,282.693c-2.782-15.4-12.75-33.758-44.438-33.758-15.968,0-30.524,7.522-32.174,8.4a10.136,10.136,0,0,0-2.273,1.685,10.262,10.262,0,0,0-1.1.756c-1.4,1.005-36.7,25.746-99.036,27.982-6.013.212-11.854.319-17.367.319-46.9,0-64.978-7.721-68.258-12.271-.406-.566-.4-.8-.3-1.13,1.313-1.847,10.147-6.814,36.164-8.72a10.192,10.192,0,0,0-1.49-20.33c-32.539,2.384-49.691,9.534-53.965,22.458A21.272,21.272,0,0,0,94.7,287.716c4.6,6.386,13.219,11.31,25.752,14.758a17.524,17.524,0,0,0-3.023,11.684c.69,8.2,6.537,14.095,14.71,18.345a20.142,20.142,0,0,0-3.675,9.717,22.293,22.293,0,0,0,5.324,17.228c8.753,10.363,27.8,15.863,61.736,17.833,3.831.223,7.647.338,11.344.338,40.55,0,68.3-12.922,69.458-13.471a10.192,10.192,0,0,0-8.726-18.422c-.243.115-24.717,11.509-60.734,11.509-3.3,0-6.719-.1-10.16-.3-36.411-2.113-45.241-8.143-47.346-10.636a2.043,2.043,0,0,1-.638-1.827.862.862,0,0,1,.015-.1c.649-1.245,6.056-3.277,11.917-3.432.047,0,.092-.009.138-.01,6.185.978,12.191,1.577,17.355,1.935,3.547.245,7.365.369,11.354.369,39.968,0,89.884-12.325,90.377-12.45a10.192,10.192,0,0,0-4.962-19.771c-.478.118-48.814,11.836-85.421,11.836-3.516,0-6.862-.108-9.94-.32-23.082-1.6-36.824-6.6-40.918-9.73,1.7-1.181,5.6-3.222,14.012-5.258q12.246.924,26.858.929c5.745,0,11.828-.112,18.086-.332,60.083-2.156,96.951-23.093,107.884-30.269,15.158,5.656,19,10.487,19.495,13.632.186,1.144-1.317,6.539-10.362,15.995A142.023,142.023,0,0,1,292.8,325.771a13.341,13.341,0,0,0,7.348,24.47,13.085,13.085,0,0,0,2.973-.341h0C307.576,348.855,384.483,329.977,375.893,282.693ZM334.241,316.1c8.645-10.426,12.2-19.584,10.857-27.839-1.291-8.143-6.242-14.3-12.166-18.924,14.12.317,20.792,5.308,22.9,16.991C358.108,298.841,347.153,308.841,334.241,316.1Z" transform="translate(-60.166 -245.6)" fill="#d5a556"/>
      <path id="Path_421" data-name="Path 421" d="M330.743,416.559a10.192,10.192,0,0,0-14.4.568c-5.445,5.891-47.758,22.074-135.888,22.189-.113,0-.228-.005-.342-.005-82.668,0-102.858-8.812-107.526-14.055a2.955,2.955,0,0,1-.958-2.159c.627-.66,3.619-3.183,14.255-5.425,10.042-2.118,22.55-3.056,31.086-3.579a10.192,10.192,0,0,0-1.242-20.347C85.9,395.57,53.87,399.28,51.409,420.357A23.092,23.092,0,0,0,57.35,438.8c5.308,5.961,14.806,12,39.517,16.04,8.968,5.486,24.14,14.221,33.928,16.891,1.278.348,2.731.773,4.372,1.252,13.318,3.889,38.107,11.127,80.065,12.01q5.294.111,10.549.111a457.874,457.874,0,0,0,68.972-5.074,10.192,10.192,0,1,0-3.079-20.15,443.378,443.378,0,0,1-76.012,4.735,292.775,292.775,0,0,1-49.91-5.013c4.483.06,9.145.093,14.015.093.116,0,.233.006.351.006h.008c85.695-.073,138.442-14.948,151.187-28.74A10.192,10.192,0,0,0,330.743,416.559Z" transform="translate(-51.242 -279.283)" fill="#d5a556"/>
    </g>
    <g id="Ellipse_142" data-name="Ellipse 142" transform="translate(-69.56 -81.212)" fill="none" stroke="#a8703c" stroke-width="14">
      <circle cx="279" cy="279" r="279" stroke="none"/>
      <circle cx="279" cy="279" r="272" fill="none"/>
    </g>
  </g>
</svg>
