<svg xmlns="http://www.w3.org/2000/svg" xmlns:xlink="http://www.w3.org/1999/xlink" width="1920" height="1080" viewBox="0 0 1920 1080">
  <defs>
    <linearGradient id="linear-gradient" x1="0.5" x2="0.5" y2="1" gradientUnits="objectBoundingBox">
      <stop offset="0" stop-color="#3a2a1b"/>
      <stop offset="1" stop-color="#271b0f"/>
    </linearGradient>
    <linearGradient id="linear-gradient-2" x1="0.5" x2="0.5" y2="1" gradientUnits="objectBoundingBox">
      <stop offset="0" stop-color="#e9ebfc"/>
      <stop offset="1" stop-color="#ccd2ff"/>
    </linearGradient>
    <linearGradient id="linear-gradient-3" x1="0.5" x2="0.5" y2="1" gradientUnits="objectBoundingBox">
      <stop offset="0" stop-color="#e9ebfc"/>
      <stop offset="1" stop-color="#bec5ff"/>
    </linearGradient>
    <linearGradient id="linear-gradient-4" x1="0.5" x2="0.5" y2="1" gradientUnits="objectBoundingBox">
      <stop offset="0" stop-color="#e9ebfc"/>
      <stop offset="1" stop-color="#a0a7e1"/>
    </linearGradient>
    <linearGradient id="linear-gradient-5" x1="0.5" x2="0.5" y2="1" gradientUnits="objectBoundingBox">
      <stop offset="0" stop-color="#33373e"/>
      <stop offset="1" stop-color="#03132d"/>
    </linearGradient>
    <linearGradient id="linear-gradient-6" x1="0.5" x2="0.5" y2="1" gradientUnits="objectBoundingBox">
      <stop offset="0" stop-color="#33373e"/>
      <stop offset="1" stop-color="#061d43"/>
    </linearGradient>
    <linearGradient id="linear-gradient-7" x1="0.5" x2="0.5" y2="1" gradientUnits="objectBoundingBox">
      <stop offset="0" stop-color="#e9ebfc"/>
      <stop offset="1" stop-color="#c9cefb"/>
    </linearGradient>
    <linearGradient id="linear-gradient-8" x1="0.5" x2="0.5" y2="1" gradientUnits="objectBoundingBox">
      <stop offset="0" stop-color="#4b3623"/>
      <stop offset="1" stop-color="#0f0b07"/>
    </linearGradient>
  </defs>
  <g id="karate_icon" transform="translate(-112.867 -38.501)">
    <rect id="Rectangle_982" data-name="Rectangle 982" width="1920" height="1080" transform="translate(112.867 38.501)" fill="#0f224a"/>
    <g id="Group_47" data-name="Group 47" transform="translate(258.445 358.778)">
      <path id="Path_47" data-name="Path 47" d="M6522.886,293.631c49.209-13.669,478.429,170.412,490.276,215.977,10.269,39.5-172.62,283.668-259.357,364-1.256,1.163-3.828,3.493-3.828,3.493H6641.055s-2.58-1.593-4.067-2.526c-107.205-67.192-279.612-228.022-292.716-261.262C6326.957,569.4,6473.676,307.3,6522.886,293.631Z" transform="translate(-6284.155 -117.382)" fill="#233a6a"/>
      <path id="Path_61" data-name="Path 61" d="M6522.886,293.631c49.209-13.669,478.429,170.412,490.276,215.977,9.88,38-166.446,271.959-257.074,361.168a16.121,16.121,0,0,1-1.722,1.594H6635.133s-.971-.768-2.469-1.719c-107.736-68.335-275.389-224.35-288.392-257.334C6326.957,569.4,6473.676,307.3,6522.886,293.631Z" transform="translate(-6342.86 -112.647)" fill="rgba(52,78,133,0.24)"/>
      <path id="Path_49" data-name="Path 49" d="M32.178,15.478c45.835-4.314,68.15,15.2,71.572,61.344s-2.219,91.413-44.8,127.016C35.807,223.193-36.156,243.7-89.5,276.195c-27.372,16.677-57.685,59.143-57.685,59.143s3.013-17.189,35.388-76.668c25.284-46.451,28.036-63.932,42.06-102.453s32.223-65.294,46.176-93.433C-11.142,37.743,10.452,17.523,32.178,15.478Z" transform="translate(326.907 256.335)" fill="url(#linear-gradient)"/>
      <path id="Path_54" data-name="Path 54" d="M71.29-14.724l181.424-2.259S303.642,31.49,325.854,59.1s15.708,34.361,15.708,34.361l-85.843.035s-3.608-3.962-28.53-25.56-74.858-54.487-74.858-54.487L97.711,93.463-9.382,93.5s6.6-16.829,24.269-41.514S71.29-14.724,71.29-14.724Z" transform="translate(195.3 666.225)" fill="url(#linear-gradient-2)"/>
      <path id="Path_50" data-name="Path 50" d="M60.614-48,99.221-36.512V-10.03s37.41,26.881,31.907,59.665-53.922,71.471-53.922,71.471S7.011,79.663,7.011,26.025c0-36.42,53.6-46.584,53.6-46.584Z" transform="translate(277.712 434.722)" fill="#f8d6a5"/>
      <path id="Path_53" data-name="Path 53" d="M46.912,13.728l104.335,1.914,51.211,64.132s-62.114,47.078-116.14,49.774-99.963-38.99-99.963-38.99Z" transform="translate(255.68 569.86)" fill="url(#linear-gradient-3)"/>
      <path id="Path_57" data-name="Path 57" d="M0,52.525A46.882,46.882,0,0,0,7.436,39.517c1.786-4.772,1.385-11.484,3.927-15.953C15.442,16.392,24.017,9.826,31.98,5.4c6.84-3.8,11.781,7.118,14.235,7.118S65.384-9.729,74.685,10.31s-.982,37.306-22.58,51.3S0,97.685,0,97.685Z" transform="translate(535.258 387.214)" fill="#f8d6a5"/>
      <path id="Path_52" data-name="Path 52" d="M12.02,4.774C23.826-5.117,63.39-4.479,63.39-4.479l40.523,83.6L147.3,13.07l69.557,37.012,71.79-38.926,3.114,101.464S259.42,127.4,227.2,121.682C198,116.5,164.7,86.943,164.7,86.943s-3.839,7.61-6.237,23.122-3.353,38.926-3.353,38.926-38.534,14.136-63.97,6.8-46.356-32.1-46.356-32.1l2.694-65.878L44.789,123.69s28.094,26.172,46.356,32.1-69.078,43.54-92.811,15.6S-3.79,44.019-3.79,44.019.215,14.665,12.02,4.774Z" transform="translate(249.094 421.833)" fill="url(#linear-gradient-4)"/>
      <path id="Path_55" data-name="Path 55" d="M26.05-1.27h36.5S85.032,70.524,93.7,102.55s2.839,33.257,2.839,33.257-26.178-8.3-29.9-14.214S48.817,48.226,48.817,48.226,35.968,119.7,32.874,124.085s-30.733,6.83-31.343,6.27,2.8-10.537,9.125-43.138S26.05-1.27,26.05-1.27Z" transform="translate(292.727 621.455)" fill="url(#linear-gradient-5)"/>
      <path id="Path_56" data-name="Path 56" d="M8.231,21.207S36.66,5.232,46.717,5.377,53.52,17.489,57.9,17.722c10.643.564,20.566-.564,27.158,4.357,18.361,13.707,1.452,42.407-5.228,44.295s-71.6-3.485-71.6-3.485Z" transform="translate(353.358 548.405)" fill="#f8d6a5"/>
      <path id="Path_51" data-name="Path 51" d="M9.857,3.849,39.238.61s.681,18.894,5.283,36.052A175.2,175.2,0,0,0,57.038,68.814s6.136-6.872,11.535-21.6S78.226,9.882,78.226,9.882l22.343,12.959A440.7,440.7,0,0,1,79.618,76.177c-13.315,28.225-37.8,69.7-37.8,69.7l-27.243-6.872L44.521,90.167A124.694,124.694,0,0,1,23.413,54.333C15.314,32.919,9.857,3.849,9.857,3.849Z" transform="translate(298.686 413.285)" fill="url(#linear-gradient-6)"/>
      <path id="Path_48" data-name="Path 48" d="M60.858,6.514c26.819,0,38.99,28.716,38.99,67.2s-27.814,66.057-40.086,67.775S7.351,115.922,7.351,77.442,34.039,6.514,60.858,6.514Z" transform="translate(320.541 278.523)" fill="#fcdbac"/>
      <path id="Path_58" data-name="Path 58" d="M18.083-46.866c9.816,0,24.846,15.232,31.524,39.4,5.419,19.615,6.236,49.633,7.051,69.684.839,20.629,76.735,26.546,76.735,26.546l12.859,77.98S-12.61,146.833-12.61,106.6.2-46.866,18.083-46.866Z" transform="translate(245.52 471.687)" fill="url(#linear-gradient-7)"/>
      <path id="Path_59" data-name="Path 59" d="M1.114-8.441C25.964-19.731,45.378-17.306,69.834.64c9.636,7.071,19.424,24.214,19.144,38.288A114.843,114.843,0,0,1,84.235,68.7a81.4,81.4,0,0,1-2.863,8.267s.061-21.108-3.927-38.043S58.055,11.194,58.055,11.194s6.877,29.594-3.732,45.312c-8.88,13.156-23.112,10.23-33.482,14.327-.622.245,4.645-4.916,6.663-14.327,1.972-9.2.694-22.64,0-22.142a69.521,69.521,0,0,1-2.553,20.1c-2.971,9.925-9.332,19.6-9.332,19.6S12.6,78.872,8.276,85.623c0,0,3.226-4.142,3.818-14.79s0-28.474,0-28.474c-.164.255-2.95,19.448-3.818,28.474C7.031,83.789-.025,81.217-.4,81.8c-1.9,2.949,4.3,48.118-2.473,68.166-3.882,11.488-13.065,24.844-20.311,34.3-5.205,6.794,0,18.539,0,18.539s-6.577-10.771-3.119-17.577a102.967,102.967,0,0,0,11.155-49.62c-1.23-35.441-22.879-73.638-22.934-79.1C-38.386,25.7-23.735,2.849,1.114-8.441Z" transform="translate(338.926 282.167)" fill="url(#linear-gradient-8)"/>
      <path id="Path_60" data-name="Path 60" d="M6.032-.508c3.887,0,5.156,4.732,5.156,12.117s-.263,14.984-4.15,14.984S0,20.606,0,13.221,2.145-.508,6.032-.508Z" transform="translate(329.756 352.388)" fill="#fbd8a7"/>
      <path id="Path_396" data-name="Path 396" d="M0,0" transform="translate(458.453)" fill="none" stroke="#707070" stroke-width="1"/>
    </g>
  </g>
</svg>
