<svg xmlns="http://www.w3.org/2000/svg" width="1920" height="1080" viewBox="0 0 1920 1080">
  <g id="layer_sun" transform="translate(-0.5 -35.5)">
    <path id="Path_394" data-name="Path 394" d="M567.5,0C880.922,0,1135,254.078,1135,567.5c0,167.81-72.836,318.608-188.709,422.576-6.033,5.413-18.319,15.756-18.319,15.756l-725.853-4.088s-12.245-10.536-18.3-16.09C70.887,882.042,0,733.049,0,567.5,0,254.078,254.078,0,567.5,0Z" transform="translate(393 90)" fill="#d8982c"/>
    <circle id="Ellipse_73" data-name="Ellipse 73" cx="453.5" cy="453.5" r="453.5" transform="translate(507 204)" fill="#d18f1f"/>
    <circle id="Ellipse_72" data-name="Ellipse 72" cx="344" cy="344" r="344" transform="translate(616 313)" fill="#ce8b19"/>
    <ellipse id="Ellipse_71" data-name="Ellipse 71" cx="267" cy="248.5" rx="267" ry="248.5" transform="translate(693 409)" fill="#ca8613"/>
    <ellipse id="Ellipse_70" data-name="Ellipse 70" cx="195.5" cy="187.5" rx="195.5" ry="187.5" transform="translate(765 470)" fill="#c6820d"/>
    <circle id="Ellipse_69" data-name="Ellipse 69" cx="129" cy="129" r="129" transform="translate(831 528)" fill="#c47f09"/>
    <line id="Line_4" data-name="Line 4" y2="1080" transform="translate(507.5 35.5)" fill="none" stroke="rgba(112,112,112,0)" stroke-width="1"/>
    <line id="Line_5" data-name="Line 5" x2="1920" transform="translate(0.5 470.5)" fill="none" stroke="rgba(112,112,112,0)" stroke-width="1"/>
    <g id="nesabyte_v1" transform="translate(549.261 -2119.958)">
      <path id="Path_143" data-name="Path 143" d="M11677.285,2710.453s5.652,12.01,9.9,11.915,6.549-23.195,1.354-23.4-3.06,16.056-3.06,16.056-4.182-16.177-10-16.056-3.837,23.388.477,23.4C11680.257,2722.063,11677.285,2710.453,11677.285,2710.453Z" transform="translate(-11160.349 167.836)" fill="#f4c371"/>
      <path id="Path_144" data-name="Path 144" d="M11864.064,2749.917a7.5,7.5,0,0,0-5.469,1.589,9.721,9.721,0,0,0-2.5,7.483c.479,4.037,3.91,6.292,7.393,6.506s8.477-2.583,6.414-5.559-2.566,1.875-6.414,1.824-3.771-2.386-3.574-5.214,1.6-2.958,3.574-3.355,2.752,1.033,1.926.981-6.452-.465-6.814,2.374,8.518,3.046,11,.259S11867.24,2750.192,11864.064,2749.917Z" transform="translate(-11324.234 124.522)" fill="#f4c371"/>
      <path id="Path_146" data-name="Path 146" d="M11995.037,2755.022c4.549-2.652-2.193-5.4-5.1-5.4s-7.563,4.557-6.807,7.08,9.71,2.324,9.021,4.134c-.285.755-.4,2.822-2.215,2.273-2.473-.749,1.521-4.335-4.938-3.9s1.864,6.055,4.938,6.034,6.875-2.59,6.34-5.525-11.354-4.965-8.767-7.335S11990.488,2757.675,11995.037,2755.022Z" transform="translate(-11435.836 124.963)" fill="#f4c371"/>
      <path id="Path_148" data-name="Path 148" d="M12124.295,2750c3.108,0,6.283,0,6.624,3.815s2.646,11.221,0,11.448c-1.8.154-2.843-3.911-2.3-5.858s-.957-3.861-2.6-4.475-3.219.751-3.963,2.016-.846,3.211.719,4.065,4.816.376,5.842-1.606,2.383.141,2.652,1.326c.7,3.055-8.595,4.563-9.445,4.532-5.905-.217-5.145-5.739-4.859-8.736S12121.185,2750,12124.295,2750Z" transform="translate(-11555.421 124.761)" fill="#f4c371"/>
      <path id="Path_149" data-name="Path 149" d="M12288.891,2721.864c2.014-.171,3.63-2.033,2.255-3.949-1.319-1.838-.548-3.708,1.353-5.027a6.2,6.2,0,0,1,6.244-.248c1.68.941,2.373,2.688.473,4.013s-6,3.111-8.069,1.262-2.943,3.357-2.255,3.949c2.232.131,11.176-.1,13.03-.816a6.375,6.375,0,0,0,3.313-8.409c-1.329-3.291-7.238-3.42-7.238-3.42s6.475-.856,5.939-6.237c-.41-4.124-10.393-6.168-15.742-5.007-.223.048-.023,5.647,1.734,3.619s3.557-.992,5.795-.226,4.107,2.643,2.659,3.968-6.216,2.1-8.454,1.33-1.217-3.7,0-5.072-1.512-3.62-1.734-3.619C12282.645,2698.015,12284.607,2722.229,12288.891,2721.864Z" transform="translate(-11708.035 168.306)" fill="#f4c371"/>
      <path id="Path_150" data-name="Path 150" d="M1188.968,2839.983c-5.456.045,5.5,11.429,4.83,16.826-.317,2.536-1.221,2.541-3.216,3.341s-1.836-5.665-3.8-1.169,2.347,4.82,3.182,4.6,2.578.236,5.525-5.59,11.609-18.209,6.942-18-6.628,10.839-6.628,10.839S1194.424,2839.938,1188.968,2839.983Z" transform="translate(-590.601 36.774)" fill="#f4c371"/>
      <path id="Path_151" data-name="Path 151" d="M1349.154,2800.908c-4.4-.1-2.134,15.383-1.445,20.442s10.066,2.179,8.618-3.48-4.428,5.842-5.9,2.684,0-11.945,0-11.945,5.051,1.829,5.162-.853-4.631-2.1-4.631-2.1S1353.553,2801,1349.154,2800.908Z" transform="translate(-732.708 66.237)" fill="#f4c371"/>
      <path id="Path_156" data-name="Path 156" d="M11863.974,2749.917a7.413,7.413,0,0,0-5.406,1.57,9.62,9.62,0,0,0-2.478,7.4c.475,3.991,3.867,6.222,7.311,6.433s8.381-2.553,6.342-5.5-2.537,1.853-6.342,1.8-3.729-2.359-3.535-5.156,1.578-2.925,3.535-3.317,2.721,1.021,1.9.97-6.38-.46-6.737,2.347,8.421,3.011,10.871.256S11867.114,2750.189,11863.974,2749.917Z" transform="translate(-11232.271 124.872)" fill="#f4c371"/>
    </g>
  </g>
</svg>
