<svg xmlns="http://www.w3.org/2000/svg" xmlns:xlink="http://www.w3.org/1999/xlink" width="1920" height="1080.007" viewBox="0 0 1920 1080.007">
  <defs>
    <linearGradient id="linear-gradient" x1="0.5" x2="0.5" y2="1" gradientUnits="objectBoundingBox">
      <stop offset="0" stop-color="#e8e4d3" stop-opacity="0.451"/>
      <stop offset="1" stop-color="#e8e4d3" stop-opacity="0.051"/>
    </linearGradient>
    <linearGradient id="linear-gradient-22" x1="0.5" x2="0.5" y2="1" gradientUnits="objectBoundingBox">
      <stop offset="0" stop-color="#64310d"/>
      <stop offset="1" stop-color="#3a200d" stop-opacity="0.988"/>
    </linearGradient>
    <linearGradient id="linear-gradient-23" x1="0.5" x2="0.5" y2="1" gradientUnits="objectBoundingBox">
      <stop offset="0" stop-color="#56218b"/>
      <stop offset="1" stop-color="#250e3d"/>
    </linearGradient>
    <linearGradient id="linear-gradient-24" x1="0.5" x2="0.5" y2="1" gradientUnits="objectBoundingBox">
      <stop offset="0" stop-color="#56218b"/>
      <stop offset="1" stop-color="#1d0a30"/>
    </linearGradient>
    <linearGradient id="linear-gradient-25" x1="0.5" x2="0.5" y2="1" gradientUnits="objectBoundingBox">
      <stop offset="0" stop-color="#64310d"/>
      <stop offset="1" stop-color="#432511"/>
    </linearGradient>
  </defs>
  <g id="layer2_girl" transform="translate(0 0.004)">
    <line id="Line_1" data-name="Line 1" y1="1080" x2="2" transform="translate(359.251)" fill="none" stroke="rgba(12,2,2,0)" stroke-width="4"/>
    <g id="nesa_girl" transform="translate(562.324 26.077)">
      <g id="girl_circle" transform="translate(6.727 6.076)">
        <g id="tinyCircles" transform="translate(-559.051 -55.153)">
          <ellipse id="Ellipse_48" data-name="Ellipse 48" cx="19.818" cy="19.836" rx="19.818" ry="19.836" transform="translate(685.372 255.877)" fill="url(#linear-gradient)"/>
          <ellipse id="Ellipse_49" data-name="Ellipse 49" cx="57.404" cy="57.456" rx="57.404" ry="57.456" transform="translate(801.096 89.691)" fill="url(#linear-gradient)"/>
          <ellipse id="Ellipse_50" data-name="Ellipse 50" cx="33.08" cy="33.11" rx="33.08" ry="33.11" transform="translate(755.008 262.439)" fill="url(#linear-gradient)"/>
          <ellipse id="Ellipse_51" data-name="Ellipse 51" cx="19.818" cy="19.836" rx="19.818" ry="19.836" transform="translate(1111.372 258.877)" fill="url(#linear-gradient)"/>
          <ellipse id="Ellipse_52" data-name="Ellipse 52" cx="57.404" cy="57.456" rx="57.404" ry="57.456" transform="translate(1227.096 92.691)" fill="url(#linear-gradient)"/>
          <ellipse id="Ellipse_53" data-name="Ellipse 53" cx="33.08" cy="33.11" rx="33.08" ry="33.11" transform="translate(1181.008 265.439)" fill="url(#linear-gradient)"/>
          <ellipse id="Ellipse_54" data-name="Ellipse 54" cx="19.818" cy="19.836" rx="19.818" ry="19.836" transform="translate(542.372 536.877)" fill="url(#linear-gradient)"/>
          <ellipse id="Ellipse_55" data-name="Ellipse 55" cx="57.404" cy="57.456" rx="57.404" ry="57.456" transform="translate(658.096 370.691)" fill="url(#linear-gradient)"/>
          <ellipse id="Ellipse_56" data-name="Ellipse 56" cx="33.08" cy="33.11" rx="33.08" ry="33.11" transform="translate(612.008 543.439)" fill="url(#linear-gradient)"/>
          <ellipse id="Ellipse_57" data-name="Ellipse 57" cx="19.818" cy="19.836" rx="19.818" ry="19.836" transform="translate(1015.924 659.877)" fill="url(#linear-gradient)"/>
          <ellipse id="Ellipse_58" data-name="Ellipse 58" cx="57.404" cy="57.456" rx="57.404" ry="57.456" transform="translate(1131.648 493.691)" fill="url(#linear-gradient)"/>
          <ellipse id="Ellipse_59" data-name="Ellipse 59" cx="33.08" cy="33.11" rx="33.08" ry="33.11" transform="translate(1085.56 666.439)" fill="url(#linear-gradient)"/>
          <ellipse id="Ellipse_60" data-name="Ellipse 60" cx="33.08" cy="33.11" rx="33.08" ry="33.11" transform="translate(612.008 667.495)" fill="url(#linear-gradient)"/>
          <ellipse id="Ellipse_61" data-name="Ellipse 61" cx="33.08" cy="33.11" rx="33.08" ry="33.11" transform="translate(1155.972 869.439)" fill="url(#linear-gradient)"/>
          <ellipse id="Ellipse_62" data-name="Ellipse 62" cx="33.08" cy="33.11" rx="33.08" ry="33.11" transform="translate(1316.008 880.78)" fill="url(#linear-gradient)"/>
          <ellipse id="Ellipse_63" data-name="Ellipse 63" cx="19.818" cy="19.836" rx="19.818" ry="19.836" transform="translate(755.008 852.877)" fill="url(#linear-gradient)"/>
          <ellipse id="Ellipse_64" data-name="Ellipse 64" cx="19.818" cy="19.836" rx="19.818" ry="19.836" transform="translate(1181.008 855.877)" fill="url(#linear-gradient)"/>
          <ellipse id="Ellipse_65" data-name="Ellipse 65" cx="19.818" cy="19.836" rx="19.818" ry="19.836" transform="translate(697.372 831.541)" fill="url(#linear-gradient)"/>
          <ellipse id="Ellipse_66" data-name="Ellipse 66" cx="19.818" cy="19.836" rx="19.818" ry="19.836" transform="translate(1123.372 834.541)" fill="url(#linear-gradient)"/>
          <ellipse id="Ellipse_67" data-name="Ellipse 67" cx="19.818" cy="19.836" rx="19.818" ry="19.836" transform="translate(1276.372 794.869)" fill="url(#linear-gradient)"/>
          <ellipse id="Ellipse_68" data-name="Ellipse 68" cx="33.08" cy="33.11" rx="33.08" ry="33.11" transform="translate(1304.008 788.157)" fill="url(#linear-gradient)"/>
        </g>
        <path id="hair" d="M6198.9,252.826c-10.3,18.814-19.844,29.96-19.844,29.96s-35.858,39.434-59.108,74.123c-5.98,8.923-24.089,37.608-25.592,51.909-2.5,23.8,14.947,33.321,14.947,33.321s-8.085-15.248-6.9-28.792,11.324-27.2,11.324-27.2,10.066,39.22,12.558,37.406-9.644-23.873-4.548-43.367,13.924-26.88,25.819-43.069,22.283-23.517,21.759-21.689c-20.494,71.395-50.2,89.359-72.132,129.621s-34.735,46.384-47.219,76.655-5.646,38.934-2.717,44.429,66.7,44.159,66.355,45.109c-.328.919,19.373,0,19.373,0s-30.153-17.1-33.349-19.36c-13.7-9.664-37.524-18.913-45.585-34.589-8.235-23.1,18.716-55.809,18.1-53.478-3.165,11.947-5.041,24.793-3.83,36.477,4.21,40.607,42.549,34.771,43.029,64.15s-30.747,26.779-36.688,48.056,13.048,31.735,13.048,31.735,1.66,19.835,8.241,29.9,26.041,7.729,26.041,7.729a29.7,29.7,0,0,1-19.247-15.867,105.617,105.617,0,0,1-7.306-20.243c-.141-.535,6.527-5.984,6.527-5.984s-7.3,2.981-7.564,1.771a42.093,42.093,0,0,1-.263-18.16c4.165-18.359,32.611-36.495,32.611-36.495a117.233,117.233,0,0,1,0,22.214c-1.189,11.615-2.717,12.751-12,24.708s-15.4,7.5-28.309,24.141-21.348,29.364-20.383,55.422,8.152,31.735,14.268,37.175,24.791,7.754,34.424,17.024-12.824,15.915-12.824,15.915,22.4,3.982,28.224-5.284,5.574-25.406-8.157-31.055-24.287-10.654-35.552-26.974-14.056-28.079-9.512-38.308c6.782-15.275,34.423-28.108,34.423-28.108s29.812-10.742,35.221-41.255-13.583-80.8-13.583-80.8l3.747,11.015s20.722,84.2,14.54,103.647c-1.719,5.407-6.051,15.873-11.482,22.1-13.235,15.185-33.368,27.7-35.034,46.854-2.309,26.526,38.862,38.308,38.862,38.308l28.263,7.072s-35.407-13.52-41.734-29.173,20.334-23.206,34.08-45.381,12.438-16.355,20.9-43.318S6181,578.214,6181,578.214s37.066,57.3,52.406,95.59-48.284,116.739-48.284,116.739,119.02-105.466,146.415-114.33c30.82-9.973,54.643,60.355,75.784,62.725,32.647,3.659,26.806-111.893,33.324-109.459,7.414,2.768,5.924,30.054,21.492,54.221s39.843,34,40.778,42.445c1.044,9.429-8.842,18.508-18.588,25.134-7.859,5.345,16.149,14.221,18.588,14.5s-18.481-9.87-8.834-13.374c9.431-3.425,12.868-6.28,18.426-13.47,10.834-14.015,13.255-23.648,9.893-40.656s-14.634-20.226-23.345-27.375-22.214-12.509-21.079-36.442c.868-18.292,17.278-45.271,17.981-46.4.146-.237,10.03,8.766,9.881,22.214-.182,16.49-21.347,63.667-33.452,91.914-4.884,11.394,9.573,26.652,11.941,27.9s-14.42-13.581-7.65-25.933c15.423-28.142,40.686-80.177,40.184-91.783-.957-22.1-8.668-26.81-20.9-64.239s-28.27-56.874-28.27-56.874,32.165,16.944,34.447,42.433c1.234,13.79-30.119,76.042-24.159,72.211s32.882-53.5,35.051-68.086c3.844-25.852-20.834-48.011-20.834-48.011l-30.324-39.782s-21.429-27.186-31.208-57.463a468.3,468.3,0,0,1-14.426-57.168s20.249-10.477,25.319-16.207,10.3-10.089,0-50.542-28.088-74.77-69.187-103.87-92.445-2.357-92.445-2.357-25.734,11.781-59.649,45.109C6209.088,218.523,6209.207,234.012,6198.9,252.826Z" transform="translate(-5936.491 -69.303)" fill="url(#linear-gradient-22)"/>
        <path id="body" d="M6281.691,328.481v36.394s47.4,14.492,89,25.249c9.685,2.5,24.806,23.883,32.5,55.607,4.758,19.6,7.656,69.249,7.656,69.249s-.822,47.87,4.125,71.511c6.25,29.877,2.046,49.213,8.029,92.978s8.186,83.577,8.186,83.577l-16.214,5.413s-13.509-40.647-21.262-83.173,1.319-34.937-9.751-86.93-8.025-133.882-8.025-133.882-.111,11.452,0,34.477c.155,32.245-5.356,80.43-3.778,87.541,2.679,12.074,63.867,192.875,63.867,192.875s-107.469-22.595-110.058-23.242-126.607-45.968-126.607-45.968-7.187,5.836,8.173-44.948c11.258-37.215,23.561-61.437,28.091-72.422s-.348-16.914-1.408-20.093-10.29-40.886-19.576-67.613-11.549-35.114-11.549-35.114l-4.742,35.114-8.038,73.935-7.654,96.154-4.8,43.489-25.754-9.873-16.356-6.186s.705-22.632,1.362-35.475c1.251-24.438,6.089-52.868,6.889-80.632.886-30.769-2.778-60.9-2.679-87.541.142-38.239,3.877-67.523,4.975-70.1,3.9-9.171,4.87-15.74,24.113-29.5s37.773-20.393,50.871-26.7,12.937-7.769,12.937-7.769L6231,290.992Z" transform="translate(-5902.597 -17.861)" fill="#ebbfa7"/>
        <path id="head" d="M6301.175,155.652c35.316,4.208,64.326,42.488,70.423,87.725s-44.4,108.795-44.4,108.795-41.717,39.457-66.212,27.965-55.543-31.772-65.446-68.188-18.511-82.148,4.975-116.073S6265.859,151.444,6301.175,155.652Z" transform="translate(-5884.141 -67.989)" fill="#eec1ae"/>
        <g id="top" transform="translate(285.933 358.891)">
          <path id="Path_313" data-name="Path 313" d="M6291.292,421.791l41.67-38.081s38.764,36.3,39.529,54.3-10.621,36.489-14.162,60.144a314.96,314.96,0,0,0-3.4,43.675s-15.738,8.335-50.949,10.538-86.5-5.944-86.5-5.944l-30.14-91.768,16.08-60.975Z" transform="translate(-6169.389 -342.632)" fill="url(#linear-gradient-23)"/>
          <path id="Path_315" data-name="Path 315" d="M6281.848,356.467l20.493,5.138s4.243,14.913,4.592,19.273.512,175.907.512,175.907l-12.586,2.7s-7.164-173.815-8.061-181.79S6281.848,356.467,6281.848,356.467Z" transform="translate(-6134.727 -352.657)" fill="#ede2df"/>
          <path id="Path_314" data-name="Path 314" d="M6174.206,365.174l20.744-11.492s14.29,19.448,17.823,26.815,55,182.221,55,182.221l-19.249-1.36s-43.953-147.944-53.579-164.794A319.323,319.323,0,0,0,6174.206,365.174Z" transform="translate(-6174.206 -353.682)" fill="#ede2df"/>
          <path id="Path_331" data-name="Path 331" d="M344.47,390.66l-1.345,39.308-29.991-9.8-27.94,17.849-45.557-42.3,73.5,23.214Z" transform="translate(-191.212 -340.074)" fill="#6c27b1"/>
        </g>
        <g id="skirt" transform="translate(267.081 577.245)">
          <path id="Path_317" data-name="Path 317" d="M6224.44,513.3c1.061,0,40.079,5.363,77.584,5.363,32.283,0,63.722-5.363,63.722-5.363l32.728,82.746,36.36,95.771,26.7,80.169-60.461-24.259-47.961-22.58-97.744-49-82.194-37.373s11.271-39.531,17.471-56.9C6206.073,538.667,6224.44,513.3,6224.44,513.3Z" transform="translate(-6160.413 -513.297)" fill="url(#linear-gradient-24)"/>
          <path id="Path_330" data-name="Path 330" d="M257.549,513.776s-18.582,50.081-28.316,77.641-18.477,52.511-18.477,52.511l8.443,3.82s10.824-24.632,21.485-52.807,31.194-79.6,31.194-79.6Z" transform="translate(-186.082 -512.989)" fill="#ede2df"/>
        </g>
        <path id="hair-2" data-name="hair" d="M6333.639,218.153s.441,44.128-6.183,65.124-7.4,14.262-20.313,18.859-30.975,1.3-30.975,1.3a156.378,156.378,0,0,0,11.837-49.624c1.075-17.256.635-29.42-.855-37.953-.064,10.061-.216,21.6-2.781,32.973-6.168,27.351-19.617,54.6-19.617,54.6a315.528,315.528,0,0,0,16.549-54.6c4.22-20.908,3.068-42.1,3.068-42.1a182.58,182.58,0,0,1-3.068,25.018c-5.03,26.463-17.844,66.793-18.6,69.21-.247.8,19.206-86.308,18.749-84.843-2.43,7.8-5.891,18.838-6.418,20.155-4.637,11.564-13.282,22.338-20.11,29.739-1.3,1.407-25.351,31.133-28.348,34.086s19.922-25.744,19.922-25.744l-18.557,14.146-11.111,8.069s-5.825,25.013,0,61.656,27.311,79.487,29.056,87.572,5.826,24.813,0,44.074-23.3,32.968-23.3,32.968-9.651,13.722-4.623,23.527,21.08,10.811,24.563,13.6,17.054,21.328,8,40.279S6214.3,643.3,6214.3,643.3s27.663-38.652,24.563-58.413-25.3-12.557-32.925-29.691,2.779-31.521,5.749-36.916,15.958-12.4,19.511-30.688-8.618-44.4-8.618-44.4l-46.553-113.3s-20.824-89.209-5.368-115.214,32.074-56.2,75.836-68.592,76.659,2.294,99.21,19.014,31.12,42.321,31.12,42.321,28.358,22.8,36.013,32.527,4.725,20.726-1.767,31.825c-8.409,14.382-32.479,23.4-32.3,23.869.3.776,30.375-19.27,30.375-37.579s-28.442-32.354-28.044-31.083c4.21,13.414,2.222,20.21,4.943,34.48s13.831,8.752,7.058,27.021-34.152,46.058-34.152,46.058l-19.431,16.8s7.854-31.036,6.184-65.124S6333.639,218.153,6333.639,218.153Z" transform="translate(-5891.666 -72.881)" fill="url(#linear-gradient-25)"/>
      </g>
      <path id="Path_327" data-name="Path 327" d="M6.863,12.624c21.085,16.1,49.524,39.816,50.27,85.632S-.8,191.672,25.755,238.693s85.27,69.15,92.555,114.337c3.859,23.934-18.052,56.02-28.463,88.817-6.909,21.767-2.627,46.1-4.464,60.329" transform="translate(485.559 131.828)" fill="none" stroke="#562c0e" stroke-width="0.5"/>
      <path id="Path_328" data-name="Path 328" d="M162.589,15.881c-15.029,10.153-51.256,35.183-55.223,70.4-2.346,20.833,28.74,47.868,18.758,73.156C115.571,186.177,15.276,230.7,3.23,262.379c-13.511,35.533,40.107,97.7,38.808,130.127-1,25.053-29.341,55.666-32.34,77.04-5.67,40.413,8.358,40.6,11.144,54.127" transform="translate(121.918 135.079)" fill="none" stroke="#5e2f0d" stroke-width="0.5"/>
      <path id="Path_329" data-name="Path 329" d="M-17.009,39.646c2.887,6.4-1.294-9.343,18.118,26.294S68.835,102.312,70.7,136.8,55.956,222.052,57.478,257.366c1.246,28.917,60.836,29.993,67.5,73.966S84.142,433.258,84.142,433.258" transform="translate(497.305 221.117)" fill="none" stroke="#582c0e" stroke-width="0.5"/>
    </g>
    <g id="laptop" transform="translate(-91.805 2)">
      <path id="Path_332" data-name="Path 332" d="M14405.271,1574.034c2.395.15,106.183,60.951,132.095,77.053,3.275,2.035,3.923,3.135,4.828,4.844s1.164,2.567,1.333,8.087c.729,23.744.017,105.219.017,105.219l-7,3.791-.19-104.055s-.49-7.917-1.973-9.832-.987-2.906-7.513-6.6c-31.932-18.063-131.086-73.425-131.37-74.277C14395.156,1577.249,14402.554,1573.864,14405.271,1574.034Z" transform="translate(-13107 -1170)" fill="#787677"/>
      <path id="Path_333" data-name="Path 333" d="M14448.5,1593.089s-.857.519-2.065,1.347a4.846,4.846,0,0,0-1.669,2.243v107.108l144.785,84.244.008-108.325a14.751,14.751,0,0,0-1.7-5.75,18.867,18.867,0,0,0-3.268-3.79Z" transform="translate(-13160 -1185)" fill="#4f4d4d"/>
      <path id="Path_334" data-name="Path 334" d="M14450.5,1598.887l133.388,77.736v102.249l-133.388-77.515Z" transform="translate(-13160 -1185)" fill="#ce8e20"/>
      <path id="Path_335" data-name="Path 335" d="M14444.762,1703.787s-79.51,47.26-80.173,47.481,136.038,87.674,136.038,87.674l88.92-50.926Z" transform="translate(-13160 -1185)" fill="#e8e8e8"/>
      <path id="Path_337" data-name="Path 337" d="M14596.542,1783.891v6.934a1.9,1.9,0,0,1-.174.934,1.98,1.98,0,0,1-.7.659l-94.817,54.335-.019-8.028Z" transform="translate(-13160 -1185)" fill="#bfbfbf"/>
      <path id="Path_338" data-name="Path 338" d="M14443.429,1768.272l37.1,22.747-19.213,12.146-37.543-22.084Z" transform="translate(-13160 -1185)" fill="#b9b9ba"/>
      <path id="Path_336" data-name="Path 336" d="M14364.612,1751.374v6.836a4.285,4.285,0,0,0,.224,2.179,4.134,4.134,0,0,0,1.518,1.544l134.494,84.739v-7.95Z" transform="translate(-13160 -1185)" fill="#b0afb0"/>
      <g id="key">
        <path id="Path_339" data-name="Path 339" d="M14447.058,1751.776l44.687,26.321-7.448,4.443-44.713-25.667Z" transform="translate(-13160 -1185)" fill="#939494"/>
        <path id="Path_341" data-name="Path 341" d="M14426.6,1740.054l7.424,4.651-7.424,5.1-7.887-4.794Z" transform="translate(-13160 -1185)" fill="#939494"/>
        <path id="Path_342" data-name="Path 342" d="M14426.6,1740.054l7.424,4.651-7.424,5.1-7.887-4.794Z" transform="translate(-13150 -1179)" fill="#939494"/>
        <path id="Path_343" data-name="Path 343" d="M14426.6,1740.054l7.424,4.651-7.424,5.1-7.887-4.794Z" transform="translate(-13170 -1191)" fill="#939494"/>
        <path id="Path_344" data-name="Path 344" d="M14426.6,1740.054l7.424,4.651-7.424,5.1-7.887-4.794Z" transform="translate(-13136.772 -1183.877)" fill="#939494"/>
        <path id="Path_345" data-name="Path 345" d="M14426.6,1740.054l7.424,4.651-7.424,5.1-7.887-4.794Z" transform="translate(-13126.772 -1177.877)" fill="#939494"/>
        <path id="Path_346" data-name="Path 346" d="M14426.6,1740.054l7.424,4.651-7.424,5.1-7.887-4.794Z" transform="translate(-13146.772 -1189.877)" fill="#939494"/>
        <path id="Path_347" data-name="Path 347" d="M14426.6,1740.054l7.424,4.651-7.424,5.1-7.887-4.794Z" transform="translate(-13106.772 -1165.877)" fill="#939494"/>
        <path id="Path_348" data-name="Path 348" d="M14426.6,1740.054l7.424,4.651-7.424,5.1-7.887-4.794Z" transform="translate(-13096.772 -1159.877)" fill="#939494"/>
        <path id="Path_349" data-name="Path 349" d="M14426.6,1740.054l7.424,4.651-7.424,5.1-7.887-4.794Z" transform="translate(-13116.772 -1171.877)" fill="#939494"/>
        <path id="Path_350" data-name="Path 350" d="M14426.6,1740.054l7.424,4.651-7.424,5.1-7.887-4.794Z" transform="translate(-13076.772 -1147.69)" fill="#939494"/>
        <path id="Path_351" data-name="Path 351" d="M14426.6,1740.054l7.424,4.651-7.424,5.1-7.887-4.794Z" transform="translate(-13066.772 -1141.69)" fill="#939494"/>
        <path id="Path_352" data-name="Path 352" d="M14426.6,1740.054l7.424,4.651-7.424,5.1-7.887-4.794Z" transform="translate(-13086.772 -1153.69)" fill="#939494"/>
        <path id="Path_353" data-name="Path 353" d="M14426.6,1740.054l7.424,4.651-7.424,5.1-7.887-4.794Z" transform="translate(-13132.345 -1193.632)" fill="#939494"/>
        <path id="Path_354" data-name="Path 354" d="M14426.6,1740.054l7.424,4.651-7.424,5.1-7.887-4.794Z" transform="translate(-13122.345 -1187.632)" fill="#939494"/>
        <path id="Path_355" data-name="Path 355" d="M14426.6,1740.054l7.424,4.651-7.424,5.1-7.887-4.794Z" transform="translate(-13142.345 -1199.632)" fill="#939494"/>
        <path id="Path_356" data-name="Path 356" d="M14426.6,1740.054l7.424,4.651-7.424,5.1-7.887-4.794Z" transform="translate(-13102.732 -1176.032)" fill="#939494"/>
        <path id="Path_357" data-name="Path 357" d="M14426.6,1740.054l7.424,4.651-7.424,5.1-7.887-4.794Z" transform="translate(-13092.732 -1170.032)" fill="#939494"/>
        <path id="Path_358" data-name="Path 358" d="M14426.6,1740.054l7.424,4.651-7.424,5.1-7.887-4.794Z" transform="translate(-13112.732 -1182.032)" fill="#939494"/>
        <path id="Path_359" data-name="Path 359" d="M14426.6,1740.054l7.424,4.651-7.424,5.1-7.887-4.794Z" transform="translate(-13073.345 -1158.567)" fill="#939494"/>
        <path id="Path_360" data-name="Path 360" d="M14426.6,1740.054l7.424,4.651-7.424,5.1-7.887-4.794Z" transform="translate(-13063.345 -1152.567)" fill="#939494"/>
        <path id="Path_361" data-name="Path 361" d="M14426.6,1740.054l7.424,4.651-7.424,5.1-7.887-4.794Z" transform="translate(-13083.345 -1164.567)" fill="#939494"/>
        <path id="Path_362" data-name="Path 362" d="M14426.6,1740.054l7.424,4.651-7.424,5.1-7.887-4.794Z" transform="translate(-13128.043 -1203.386)" fill="#939494"/>
        <path id="Path_363" data-name="Path 363" d="M14426.6,1740.054l7.424,4.651-7.424,5.1-7.887-4.794Z" transform="translate(-13118.043 -1197.386)" fill="#939494"/>
        <path id="Path_364" data-name="Path 364" d="M14426.6,1740.054l7.424,4.651-7.424,5.1-7.887-4.794Z" transform="translate(-13138.043 -1209.386)" fill="#939494"/>
        <path id="Path_365" data-name="Path 365" d="M14426.6,1740.054l7.424,4.651-7.424,5.1-7.887-4.794Z" transform="translate(-13098.655 -1185.786)" fill="#939494"/>
        <path id="Path_366" data-name="Path 366" d="M14426.6,1740.054l7.424,4.651-7.424,5.1-7.887-4.794Z" transform="translate(-13088.655 -1179.786)" fill="#939494"/>
        <path id="Path_367" data-name="Path 367" d="M14426.6,1740.054l7.424,4.651-7.424,5.1-7.887-4.794Z" transform="translate(-13108.655 -1191.786)" fill="#939494"/>
        <path id="Path_368" data-name="Path 368" d="M14426.6,1740.054l7.424,4.651-7.424,5.1-7.887-4.794Z" transform="translate(-13069.117 -1168.123)" fill="#939494"/>
        <path id="Path_369" data-name="Path 369" d="M14426.6,1740.054l7.424,4.651-7.424,5.1-7.887-4.794Z" transform="translate(-13059.117 -1162.123)" fill="#939494"/>
        <path id="Path_370" data-name="Path 370" d="M14426.6,1740.054l7.424,4.651-7.424,5.1-7.887-4.794Z" transform="translate(-13079.117 -1174.123)" fill="#939494"/>
        <path id="Path_371" data-name="Path 371" d="M14426.6,1740.054l7.424,4.651-7.424,5.1-7.887-4.794Z" transform="translate(-13039.117 -1150.123)" fill="#939494"/>
        <path id="Path_372" data-name="Path 372" d="M14426.6,1740.054l7.424,4.651-7.424,5.1-7.887-4.794Z" transform="translate(-13029.117 -1144.123)" fill="#939494"/>
        <path id="Path_373" data-name="Path 373" d="M14426.6,1740.054l7.424,4.651-7.424,5.1-7.887-4.794Z" transform="translate(-13049.117 -1156.123)" fill="#939494"/>
        <path id="Path_374" data-name="Path 374" d="M14426.6,1740.054l10.125,6.439-7.494,4.877-10.518-6.356Z" transform="translate(-13159 -1197.386)" fill="#939494"/>
        <path id="Path_375" data-name="Path 375" d="M14426.6,1740.054l4.766,2.922-7.732,4.937-4.92-2.9Z" transform="translate(-13148.644 -1203.386)" fill="#939494"/>
        <path id="Path_376" data-name="Path 376" d="M14426.6,1740.054l7.424,4.651-7.424,5.1-7.887-4.794Z" transform="translate(-13091 -1145.246)" fill="#939494"/>
        <path id="Path_377" data-name="Path 377" d="M14426.6,1740.054l7.424,4.651-7.424,5.1-7.887-4.794Z" transform="translate(-13071 -1133.058)" fill="#939494"/>
        <path id="Path_378" data-name="Path 378" d="M14426.6,1740.054l7.424,4.651-7.424,5.1-7.887-4.794Z" transform="translate(-13061 -1127.058)" fill="#939494"/>
        <path id="Path_379" data-name="Path 379" d="M14426.6,1740.054l7.424,4.651-7.424,5.1-7.887-4.794Z" transform="translate(-13081 -1139.058)" fill="#939494"/>
        <path id="Path_380" data-name="Path 380" d="M14426.6,1740.054l17.638,11.105-8.042,5.126h.6l-18.086-11.271Z" transform="translate(-13056.772 -1136.058)" fill="#939494"/>
        <path id="Path_381" data-name="Path 381" d="M14426.6,1740.054l7.424,4.651-7.424,5.1-7.887-4.794Z" transform="translate(-13063.345 -1152.567)" fill="#939494"/>
        <path id="Path_382" data-name="Path 382" d="M14426.6,1740.054l25.227,15.382-8.745,4.724-24.368-15.146Z" transform="translate(-13053.807 -1146.567)" fill="#939494"/>
      </g>
    </g>
    <g id="nesabyte_v1" transform="matrix(0.899, 0.438, -0.438, 0.899, 2033.662, -2299.436)">
      <path id="Path_143" data-name="Path 143" d="M11677.69,2711.309s6.072,12.906,10.644,12.8,7.034-24.925,1.453-25.149-3.286,17.253-3.286,17.253-4.494-17.384-10.744-17.253-4.12,25.133.515,25.149C11680.882,2723.786,11677.69,2711.309,11677.69,2711.309Z" transform="translate(-11507.152 3058.103) rotate(-14)" fill="#4a1c78"/>
      <path id="Path_144" data-name="Path 144" d="M11864.866,2749.921c-1.537-.133-4.3.123-6.014,1.747a10.7,10.7,0,0,0-2.757,8.233c.529,4.441,4.3,6.923,8.134,7.158s9.326-2.841,7.057-6.116-2.823,2.062-7.057,2.007-4.149-2.625-3.932-5.737,1.756-3.254,3.932-3.691,3.027,1.136,2.118,1.079-7.1-.512-7.5,2.612,9.369,3.351,12.1.284S11868.363,2750.223,11864.866,2749.921Z" transform="translate(-11360.896 107.653)" fill="#4a1c78"/>
      <path id="Path_146" data-name="Path 146" d="M11996.283,2755.563c5-2.918-2.414-5.94-5.611-5.94s-8.32,5.013-7.488,7.789,10.684,2.557,9.926,4.548c-.316.83-.443,3.1-2.437,2.5-2.721-.823,1.674-4.77-5.432-4.294s2.051,6.661,5.432,6.638,7.564-2.849,6.975-6.078-12.49-5.462-9.643-8.069S11991.279,2758.481,11996.283,2755.563Z" transform="translate(-11738.72 1804.197) rotate(-8)" fill="#4a1c78"/>
      <path id="Path_148" data-name="Path 148" d="M12124.8,2750c3.318,0,6.7,0,7.068,4.071s2.823,11.972,0,12.213c-1.92.164-3.033-4.173-2.45-6.25s-1.021-4.118-2.771-4.775-3.437.8-4.229,2.151-.9,3.426.766,4.337,5.14.4,6.233-1.713,2.542.15,2.83,1.415c.741,3.26-9.17,4.868-10.078,4.835-6.3-.231-5.487-6.123-5.183-9.321S12121.48,2750,12124.8,2750Z" transform="matrix(0.996, -0.087, 0.087, 0.996, -11783.685, 1176.403)" fill="#4a1c78"/>
      <path id="Path_149" data-name="Path 149" d="M12289.233,2723.889c2.183-.186,3.934-2.2,2.442-4.28-1.428-1.991-.592-4.019,1.467-5.448a6.719,6.719,0,0,1,6.766-.268c1.821,1.02,2.572,2.913.515,4.348s-6.5,3.371-8.747,1.368-3.188,3.637-2.442,4.28c2.418.142,12.111-.109,14.12-.884a6.909,6.909,0,0,0,3.592-9.112c-1.442-3.567-7.845-3.706-7.845-3.706s7.016-.928,6.437-6.759c-.443-4.469-11.262-6.684-17.06-5.426-.241.052-.025,6.12,1.879,3.921s3.855-1.075,6.279-.244,4.453,2.865,2.882,4.3-6.735,2.272-9.161,1.442-1.317-4.006,0-5.5-1.638-3.923-1.879-3.921C12282.465,2698.045,12284.592,2724.284,12289.233,2723.889Z" transform="translate(-11866.684 798.753) rotate(-3)" fill="#4a1c78"/>
      <path id="Path_150" data-name="Path 150" d="M1189.28,2839.984c-6.088.05,6.141,12.753,5.389,18.774-.354,2.83-1.363,2.834-3.588,3.728s-2.049-6.322-4.24-1.3,2.619,5.378,3.55,5.128,2.876.264,6.165-6.237,12.953-20.318,7.746-20.088-7.4,12.094-7.4,12.094S1195.367,2839.933,1189.28,2839.984Z" transform="translate(-1360.702 459.374) rotate(-16)" fill="#4a1c78"/>
      <path id="Path_151" data-name="Path 151" d="M1349.4,2800.908c-4.805-.1-2.331,16.8-1.579,22.331s11,2.379,9.414-3.8-4.837,6.382-6.444,2.933,0-13.048,0-13.048,5.518,2,5.639-.932-5.059-2.294-5.059-2.294S1354.2,2801.013,1349.4,2800.908Z" transform="matrix(0.995, -0.105, 0.105, 0.995, -1050.297, 208.182)" fill="#4a1c78"/>
      <path id="Path_156" data-name="Path 156" d="M11865.173,2749.922c-1.591-.138-4.445.127-6.222,1.808a11.065,11.065,0,0,0-2.853,8.517c.546,4.594,4.45,7.161,8.415,7.405s9.646-2.939,7.3-6.327-2.921,2.133-7.3,2.076-4.293-2.716-4.069-5.934,1.818-3.366,4.069-3.819,3.13,1.175,2.19,1.116-7.343-.529-7.753,2.7,9.692,3.466,12.512.294S11868.788,2750.235,11865.173,2749.922Z" transform="matrix(0.966, -0.259, 0.259, 0.966, -11572.017, 3273.94)" fill="#4a1c78"/>
    </g>
    <path id="Path_384" data-name="Path 384" d="M0,30.876S235.42-150.972,575.914-148.465s451.074,223.749,787.1,231.7S1920-67.507,1920-67.507V252.97H0Z" transform="translate(0 827.03)" fill="#fbf8f9"/>
  </g>
</svg>
