<svg xmlns="http://www.w3.org/2000/svg" xmlns:xlink="http://www.w3.org/1999/xlink" width="1921.104" height="1080" viewBox="0 0 1921.104 1080">
  <defs>
    <linearGradient id="linear-gradient" x2="1.011" y2="1.039" gradientUnits="objectBoundingBox">
      <stop offset="0" stop-color="#c17c05"/>
      <stop offset="1" stop-color="#f99d04" stop-opacity="0.439"/>
    </linearGradient>
  </defs>
  <g id="layer1_950" transform="translate(0.907)">
    <path id="Path_212" data-name="Path 212" d="M0,0H1920V1080H0Z" fill="url(#linear-gradient)"/>
    <path id="Path_255" data-name="Path 255" d="M0,30.876S235.42-150.972,575.914-148.465s451.074,223.749,787.1,231.7S1920-67.507,1920-67.507V252.97H0Z" transform="translate(0 827.03)" fill="#fbfaf8"/>
    <path id="Path_256" data-name="Path 256" d="M0,149.817S250.332-95.707,590.826-93.257s447.808,201.622,781.991,214.812S1920-34.843,1920-34.843V243.762H0Z" transform="translate(0.196 696.238)" fill="rgba(251,250,248,0.31)"/>
    <g id="beetrail" transform="translate(0.196 -60)">
      <path id="Path_250" data-name="Path 250" d="M181.769,96.188s14.273,167.08-61.324,178.4-273.153-351.219-260.905-439.3S128.232-145.868,158.354-111.2s39.335,70.536-48.992,99.656S-228.545,23.715-228.545,23.715" transform="translate(1084.5 531.997)" fill="none" stroke="#000" stroke-linecap="round" stroke-width="6" stroke-dasharray="55 40"/>
      <path id="Path_253" data-name="Path 253" d="M668.006,122.021C563.2,80.767,531.706-27.37,327.943-37.42S-151.5,111.927-151.5,111.927" transform="translate(154.5 427)" fill="none" stroke="#100606" stroke-linecap="round" stroke-width="6" stroke-dasharray="55 40"/>
    </g>
    <g id="nesabyte_v1" transform="translate(174.073 -2526.245)">
      <path id="Path_143" data-name="Path 143" d="M11697.294,2752.932s26.543,56.408,46.52,55.961,30.755-108.942,6.357-109.922-14.368,75.412-14.368,75.412-19.643-75.982-46.955-75.412-18.017,109.852,2.244,109.922C11711.25,2807.464,11697.294,2752.932,11697.294,2752.932Z" transform="translate(-11198.189 155.105)" fill="#c17c03"/>
      <path id="Path_144" data-name="Path 144" d="M11894.615,2750.022c-6.723-.582-18.783.538-26.293,7.638-9.334,8.827-13.334,25.117-12.045,35.987,2.3,19.41,18.8,30.258,35.547,31.287s40.762-12.418,30.845-26.733-12.339,9.014-30.845,8.771-18.131-11.474-17.186-25.075,7.676-14.223,17.186-16.132,13.232,4.965,9.261,4.717-31.024-2.237-32.763,11.416,40.955,14.646,52.869,1.245S11909.891,2751.345,11894.615,2750.022Z" transform="translate(-11291.895 139.011)" fill="#c17c03"/>
      <path id="Path_146" data-name="Path 146" d="M12042.389,2775.587c21.873-12.753-10.546-25.964-24.524-25.964s-36.37,21.911-32.73,34.043,46.692,11.178,43.386,19.877c-1.378,3.628-1.936,13.571-10.655,10.93-11.886-3.6,7.32-20.848-23.747-18.766s8.968,29.114,23.747,29.015,33.058-12.455,30.485-26.567-54.592-23.873-42.151-35.269S12020.516,2788.341,12042.389,2775.587Z" transform="translate(-11345.528 139.278)" fill="#c17c03"/>
      <path id="Path_148" data-name="Path 148" d="M12151.835,2750c14.5,0,29.3-.009,30.893,17.792s12.338,52.328,0,53.383c-8.391.718-13.26-18.238-10.709-27.319s-4.461-18-12.107-20.87-15.017,3.5-18.481,9.4-3.943,14.976,3.346,18.958,22.464,1.752,27.243-7.488,11.114.657,12.371,6.185c3.241,14.249-40.078,21.28-44.048,21.134-27.535-1.011-23.987-26.763-22.658-40.737S12137.333,2750,12151.835,2750Z" transform="translate(-11408.563 142.804)" fill="#c17c03"/>
      <path id="Path_149" data-name="Path 149" d="M12304.217,2812.328c9.535-.812,17.191-9.629,10.678-18.706-6.246-8.7-2.59-17.564,6.406-23.811s21.622-5.632,29.577-1.175,11.239,12.733,2.242,19.006-28.4,14.735-38.226,5.979-13.941,15.9-10.678,18.706c10.57.621,52.933-.475,61.717-3.864,15.389-5.937,22-24.238,15.7-39.827s-34.288-16.2-34.288-16.2,30.667-4.054,28.134-29.542c-1.941-19.531-49.227-29.213-74.563-23.716-1.054.229-.11,26.748,8.218,17.139s16.844-4.7,27.441-1.068,19.459,12.519,12.6,18.792-29.443,9.93-40.041,6.3-5.766-17.511,0-24.024-7.164-17.146-8.218-17.139C12274.632,2699.367,12283.929,2814.056,12304.217,2812.328Z" transform="translate(-11507.583 151.508)" fill="#c17c03"/>
      <path id="Path_150" data-name="Path 150" d="M1199.411,2839.993c-26.609.219,26.844,55.741,23.554,82.06-1.546,12.37-5.955,12.39-15.682,16.293s-8.954-27.629-18.533-5.7,11.445,23.509,15.518,22.412,12.572,1.154,26.946-27.259,56.617-88.807,33.858-87.8-32.325,52.862-32.325,52.862S1226.02,2839.774,1199.411,2839.993Z" transform="translate(-326.007 50.942)" fill="#c17c03"/>
      <path id="Path_151" data-name="Path 151" d="M1359.128,2800.909c-21-.457-10.187,73.448-6.9,97.6s48.062,10.4,41.147-16.615-21.142,27.892-28.166,12.816,0-57.033,0-57.033,24.117,8.731,24.646-4.072-22.113-10.026-22.113-10.026S1380.13,2801.366,1359.128,2800.909Z" transform="translate(-395.457 62.236)" fill="#c17c03"/>
      <path id="Path_156" data-name="Path 156" d="M11895.945,2750.027c-6.953-.6-19.432.556-27.2,7.9-9.656,9.131-13.795,25.983-12.46,37.228,2.384,20.08,19.45,31.3,36.772,32.366s42.167-12.846,31.908-27.655-12.765,9.324-31.908,9.073-18.757-11.87-17.779-25.94,7.941-14.713,17.779-16.688,13.688,5.136,9.58,4.879-32.095-2.315-33.893,11.809,42.367,15.151,54.693,1.287S11911.748,2751.395,11895.945,2750.027Z" transform="translate(-10857.401 142.914)" fill="#c17c03"/>
    </g>
  </g>
</svg>
