<svg xmlns="http://www.w3.org/2000/svg" xmlns:xlink="http://www.w3.org/1999/xlink" width="1920" height="1080" viewBox="0 0 1920 1080">
  <defs>
    <filter id="Path_404" x="18.631" y="20.619" width="1893.369" height="1016.572" filterUnits="userSpaceOnUse">
      <feOffset dy="7" input="SourceAlpha"/>
      <feGaussianBlur stdDeviation="3" result="blur"/>
      <feFlood flood-opacity="0.161"/>
      <feComposite operator="in" in2="blur"/>
      <feComposite in="SourceGraphic"/>
    </filter>
    <filter id="Path_405" x="19.59" y="20.619" width="1892.41" height="1016.572" filterUnits="userSpaceOnUse">
      <feOffset dy="7" input="SourceAlpha"/>
      <feGaussianBlur stdDeviation="3" result="blur-2"/>
      <feFlood flood-opacity="0.161"/>
      <feComposite operator="in" in2="blur-2"/>
      <feComposite in="SourceGraphic"/>
    </filter>
    <filter id="Path_406" x="20.133" y="20.619" width="1891.867" height="1016.747" filterUnits="userSpaceOnUse">
      <feOffset dy="7" input="SourceAlpha"/>
      <feGaussianBlur stdDeviation="3" result="blur-3"/>
      <feFlood flood-opacity="0.161"/>
      <feComposite operator="in" in2="blur-3"/>
      <feComposite in="SourceGraphic"/>
    </filter>
    <filter id="Path_407" x="19.242" y="20.619" width="1892.758" height="1016.572" filterUnits="userSpaceOnUse">
      <feOffset dy="7" input="SourceAlpha"/>
      <feGaussianBlur stdDeviation="3" result="blur-4"/>
      <feFlood flood-opacity="0.161"/>
      <feComposite operator="in" in2="blur-4"/>
      <feComposite in="SourceGraphic"/>
    </filter>
  </defs>
  <g id="layer_waves" transform="translate(0 28.673)">
    <g id="Group_24" data-name="Group 24" transform="translate(5.691 -6.054)">
      <g transform="matrix(1, 0, 0, 1, -5.69, -22.62)" filter="url(#Path_404)">
        <path id="Path_404-2" data-name="Path 404" d="M22.9,1.78,1896.832,0l.477,998.572L21.939,997.094,22.9,370.63S579.234,788.8,992.1,763.957s608.344-191.744,659.245-354.314c17.786-56.806-17.287-118.223-62.575-156.91-.9-.768-43.506-113.508,23.389-58.823,47.227,38.608,111.215,93.517,157.894,88.647,19.125-1.995-1.854-59.287,22.259-88.647s75.257-26,76.052-44.978c1.532-36.546-26.932-82.559-98.312-98.478s-151.063-5.9-187.2,34.8c-26.617,29.974-5.76,80.1,29.311,108.654s-22.939,59.15-23.389,58.823c-66.642-48.342-174.01-74.612-287.009-66.022C1095.936,202.357,960.7,379.855,828.037,472.229c-.466.324-99.015-60-57.775-83.809S1133.829,133.847,1089.31,85.255s-292.153-32.526-511.963,25.5-260.619,94.576-291.225,171.8S389.365,398.645,488.31,424.863s218.541,6.148,281.951-36.443,58.111,83.588,57.775,83.809c-49.14,32.449-100.962,54.944-156.693,57.083C308.562,543.23,22.9,370.63,22.9,370.63Z" transform="translate(5.69 22.62)" fill="rgba(255,255,255,0.05)"/>
      </g>
      <g transform="matrix(1, 0, 0, 1, -5.69, -22.62)" filter="url(#Path_405)">
        <path id="Path_405-2" data-name="Path 405" d="M22.9.126,1896.832,0l.477,998.572-1873.17-.927L22.9,369.558s144.849,133.6,355.11,245.091c183.9,97.517,421.117,175.693,613.927,164.09,412.869-24.846,618.634-199.992,669.536-362.562,17.786-56.806-18.88-128.771-64.168-167.458-.9-.768-52.038-109.495,14.857-54.81,47.228,38.608,111.215,93.517,157.894,88.647,19.125-1.995,8.22-59.287,32.334-88.647s70.549-23.128,71.344-42.11c1.532-36.546-26.307-96.009-97.687-111.928s-155.938-6.26-192.08,34.44c-26.617,29.974-6.877,91.04,28.194,119.6s-14.407,55.136-14.857,54.81c-66.642-48.342-181.663-83.63-294.663-75.04C1096.812,189.326,954.89,367.248,822.23,459.621c-.466.324-93.211-47.39-51.971-71.2S1137.537,122.9,1093.018,74.312,800.865,27.23,581.054,85.255,298.175,194.922,267.568,272.148s121.793,126.5,220.738,152.715,218.542,6.148,281.952-36.443,52.307,70.98,51.971,71.2c-49.141,32.449-96.245,57.1-151.976,59.242C307.47,532.782,22.9,369.558,22.9,369.558Z" transform="translate(5.69 22.62)" fill="rgba(255,255,255,0.3)"/>
      </g>
      <g transform="matrix(1, 0, 0, 1, -5.69, -22.62)" filter="url(#Path_406)">
        <path id="Path_406-2" data-name="Path 406" d="M23.441.126,1896.832,0l.477,998.571-1873.173.176-.694-630.261S164.276,512.038,370.805,626.423c188.331,104.306,433.969,180.89,631.321,169.014C1415,770.591,1619,580.224,1669.907,417.654c17.786-56.806-12.459-130.249-57.747-168.935-.9-.768-66.895-109.494,0-54.81,47.228,38.607,111.215,93.517,157.895,88.647,19.125-1.995,11.293-53.134,35.407-82.494s73.4-27.74,74.2-46.722c1.532-36.546-21.368-109.564-92.747-125.483s-170.756-3.323-206.9,37.378c-26.617,29.974-2.925,100.117,32.146,128.675s.45,55.136,0,54.81c-66.642-48.342-187.4-101.3-300.4-92.71-205.829,15.647-356.871,193.3-489.532,285.673-.466.324-93.211-29.451-51.971-53.264s384.832-274.593,340.313-323.184-315.27-58.026-535.081,0-299,131.023-329.61,208.248S389.359,398.645,488.3,424.862s218.542,6.148,281.952-36.443,52.307,53.042,51.971,53.264c-49.141,32.449-98.261,59.268-153.992,61.406-362.784,13.919-644.794-134.6-644.794-134.6Z" transform="translate(5.69 22.62)" fill="rgba(255,255,255,0.6)"/>
      </g>
      <g transform="matrix(1, 0, 0, 1, -5.69, -22.62)" filter="url(#Path_407)">
        <path id="Path_407-2" data-name="Path 407" d="M22.551.495,1896.832,0l.477,998.572-1874.758-6.2V357.11s116.7,181.518,361.618,292.863,407.1,175.516,618.054,162.819c412.826-24.846,628.227-231.232,679.123-393.8C1699.13,362.184,1665.279,278.8,1620,240.11c-.9-.768-74.693-100.885-7.805-46.2,47.222,38.608,111.2,93.517,157.878,88.647,19.123-1.995,22.7-49.13,46.816-78.49s70.541-26.405,71.337-45.387c1.532-36.546-16.764-114.136-94.164-141.5s-179.3-8.663-215.436,32.038c-26.614,29.974-1.5,116.136,33.57,144.694s8.255,46.526,7.805,46.2c-66.635-48.342-193.758-107.374-306.746-98.784-205.807,15.647-365.282,191.164-497.929,283.537-.466.324-86.178-12.631-44.943-36.443s390.5-283.938,345.983-332.529S785.431-15.485,565.643,42.541,260.965,194.923,230.362,272.148s159.159,126.5,258.094,152.715,218.519,6.148,281.922-36.443,45.279,36.222,44.943,36.443c-49.135,32.449-98.361,56.065-154.086,58.2C298.489,496.984,22.551,368.526,22.551,368.526Z" transform="translate(5.69 22.62)" fill="#fcfbf9"/>
      </g>
    </g>
    <rect id="Rectangle_65" data-name="Rectangle 65" width="1903" height="96" transform="translate(0 955.327)" fill="#fcfbf9"/>
    <rect id="Rectangle_66" data-name="Rectangle 66" width="25" height="1080" transform="translate(1895 -28.673)" fill="#fcfbf9"/>
    <rect id="Rectangle_67" data-name="Rectangle 67" width="46" height="1080" transform="translate(0 -28.673)" fill="#fcfbf9"/>
    <rect id="Rectangle_68" data-name="Rectangle 68" width="1920" height="29" transform="translate(0 -28.673)" fill="#fcfbf9"/>
  </g>
</svg>
