<svg xmlns="http://www.w3.org/2000/svg" width="1920" height="1080" viewBox="0 0 1920 1080">
  <g id="layer_name" transform="translate(-0.5 -0.5)">
    <g id="nesabyte_v1" transform="translate(810.976 -2703.615)">
      <path id="Path_143" data-name="Path 143" d="M11685.306,2727.48s14.029,29.807,24.582,29.571,16.252-57.567,3.361-58.084-7.595,39.848-7.595,39.848-10.379-40.15-24.808-39.848-9.522,58.047,1.182,58.084C11692.681,2756.3,11685.306,2727.48,11685.306,2727.48Z" transform="translate(-11160.35 169.081)" fill="#d29020"/>
      <path id="Path_144" data-name="Path 144" d="M11875.952,2749.958c-3.471-.3-9.7.277-13.572,3.943-4.816,4.556-6.881,12.963-6.215,18.573,1.188,10.019,9.705,15.617,18.348,16.148s21.038-6.41,15.918-13.8-6.369,4.653-15.918,4.527-9.36-5.922-8.871-12.941,3.959-7.342,8.871-8.327,6.828,2.563,4.779,2.435-16.014-1.155-16.912,5.892,21.138,7.559,27.288.643S11883.833,2750.641,11875.952,2749.958Z" transform="translate(-11294.175 137.049)" fill="#d29020"/>
      <path id="Path_146" data-name="Path 146" d="M12013.461,2763.023c11.291-6.583-5.443-13.4-12.656-13.4s-18.773,11.309-16.893,17.571,24.1,5.769,22.389,10.259c-.707,1.873-1,7-5.5,5.642-6.137-1.858,3.775-10.761-12.256-9.687s4.625,15.027,12.256,14.976,17.063-6.429,15.734-13.712-28.18-12.322-21.758-18.2S12002.172,2769.605,12013.461,2763.023Z" transform="translate(-11383.606 137.75)" fill="#d29020"/>
      <path id="Path_148" data-name="Path 148" d="M12135.437,2750c7.714,0,15.595,0,16.438,9.469s6.567,27.851,0,28.412c-4.466.382-7.055-9.707-5.7-14.539s-2.375-9.582-6.446-11.107-7.989,1.865-9.836,5-2.1,7.971,1.785,10.09,11.951.933,14.5-3.985,5.915.35,6.582,3.292c1.726,7.583-21.33,11.325-23.441,11.247-14.655-.538-12.769-14.244-12.06-21.681S12127.717,2750,12135.437,2750Z" transform="translate(-11481.576 137.808)" fill="#d29020"/>
      <path id="Path_149" data-name="Path 149" d="M12294.97,2757.743c5-.426,9.008-5.046,5.595-9.8-3.273-4.561-1.359-9.2,3.357-12.477s11.331-2.951,15.5-.616,5.89,6.672,1.173,9.959-14.882,7.721-20.027,3.133-7.3,8.331-5.595,9.8c5.539.325,27.735-.25,32.339-2.025,8.063-3.111,11.524-12.7,8.224-20.869s-17.964-8.489-17.964-8.489,16.068-2.124,14.74-15.479c-1.017-10.234-25.794-15.307-39.071-12.427-.553.119-.057,14.016,4.306,8.981s8.827-2.462,14.382-.56,10.194,6.56,6.6,9.847-15.426,5.2-20.981,3.3-3.021-9.177,0-12.589-3.752-8.985-4.306-8.981C12279.467,2698.552,12284.339,2758.648,12294.97,2757.743Z" transform="translate(-11611.372 168.305)" fill="#d29020"/>
      <path id="Path_150" data-name="Path 150" d="M1192.959,2839.987c-13.541.112,13.661,28.366,11.987,41.76-.787,6.3-3.031,6.306-7.981,8.292s-4.557-14.06-9.432-2.9,5.824,11.963,7.9,11.406,6.4.586,13.713-13.873,28.812-45.193,17.23-44.683-16.45,26.9-16.45,26.9S1206.5,2839.875,1192.959,2839.987Z" transform="translate(-465.902 52.774)" fill="#d29020"/>
      <path id="Path_151" data-name="Path 151" d="M1353.069,2800.909c-10.917-.237-5.3,38.179-3.587,50.734s24.983,5.407,21.389-8.636-10.989,14.5-14.641,6.663,0-29.647,0-29.647,12.536,4.539,12.811-2.116-11.494-5.212-11.494-5.212S1363.987,2801.146,1353.069,2800.909Z" transform="translate(-581.14 67.994)" fill="#d29020"/>
      <path id="Path_156" data-name="Path 156" d="M11875.729,2749.958c-3.43-.3-9.586.273-13.418,3.9-4.763,4.5-6.8,12.818-6.15,18.365,1.179,9.906,9.6,15.442,18.145,15.967s20.8-6.337,15.739-13.643-6.3,4.6-15.739,4.476-9.255-5.856-8.772-12.8,3.916-7.259,8.772-8.233,6.753,2.534,4.727,2.406-15.835-1.141-16.721,5.826,20.9,7.474,26.979.635S11883.522,2750.632,11875.729,2749.958Z" transform="translate(-11065.934 137.918)" fill="#d29020"/>
    </g>
    <text id="Every_Byte_Counts_" data-name="Every Byte Counts!" transform="translate(1387.5 278.5)" fill="#c17c03" font-size="24" font-family="SegoeUI, Segoe UI"><tspan x="0" y="0">Every Byte Counts!</tspan></text>
    <line id="Line_8" data-name="Line 8" y2="1080" transform="translate(947.5 0.5)" fill="none"/>
    <line id="Line_9" data-name="Line 9" x2="1920" transform="translate(0.5 410.5)" fill="none"/>
    <line id="Line_14" data-name="Line 14" x2="235" transform="translate(1368 252)" fill="none" stroke="#d29020" stroke-width="1"/>
  </g>
</svg>
