<svg xmlns="http://www.w3.org/2000/svg" xmlns:xlink="http://www.w3.org/1999/xlink" width="1920.722" height="1080" viewBox="0 0 1920.722 1080">
  <defs>
    <linearGradient id="linear-gradient" x2="1.011" y2="1.039" gradientUnits="objectBoundingBox">
      <stop offset="0" stop-color="#c17c05"/>
      <stop offset="1" stop-color="#f99d04" stop-opacity="0.439"/>
    </linearGradient>
  </defs>
  <g id="layer1_400" transform="translate(0.526)">
    <path id="Path_212" data-name="Path 212" d="M0,0H1920V1080H0Z" fill="url(#linear-gradient)"/>
    <path id="Path_255" data-name="Path 255" d="M0,30.876S235.42-150.972,575.914-148.465s451.074,223.749,787.1,231.7S1920-67.507,1920-67.507V252.97H0Z" transform="translate(0 827.03)" fill="#fbfaf8"/>
    <path id="Path_256" data-name="Path 256" d="M0,149.817S250.332-95.707,590.826-93.257s447.808,201.622,781.991,214.812S1920-34.843,1920-34.843V243.762H0Z" transform="translate(0.196 696.238)" fill="rgba(251,250,248,0.31)"/>
    <g id="beetrail" transform="translate(0.196 -60)">
      <path id="Path_250" data-name="Path 250" d="M-115.926-10.188c6.69,49.338-45.777,155.1,47.944,208.5C26.58,252.19,86.722,177.129,64.7,74.551s-61.046-310.13-241.95-297.7c-83.035,5.706-138.094,81.378-209.617,117.073-84.283,42.063-176.167,36.794-176.167,36.794" transform="translate(1084.5 531.997)" fill="none" stroke="#000" stroke-linecap="round" stroke-width="6" stroke-dasharray="55 40"/>
      <path id="Path_253" data-name="Path 253" d="M345.782,36.83C142.02,26.78-151.5,111.927-151.5,111.927" transform="translate(154.5 427)" fill="none" stroke="#100606" stroke-linecap="round" stroke-width="6" stroke-dasharray="55 40"/>
    </g>
    <g id="nesabyte_v1" transform="translate(191.205 -2545.245)">
      <path id="Path_143" data-name="Path 143" d="M11693.918,2745.765s23.019,48.917,40.342,48.529,26.671-94.474,5.513-95.324-12.46,65.4-12.46,65.4-17.033-65.891-40.719-65.4-15.624,95.263,1.946,95.324C11706.021,2793.054,11693.918,2745.765,11693.918,2745.765Z" transform="translate(-11160.349 170.418)" fill="#c17c03"/>
      <path id="Path_144" data-name="Path 144" d="M11888.715,2750c-5.694-.493-15.91.455-22.271,6.47-7.906,7.477-11.294,21.275-10.2,30.482,1.951,16.441,15.926,25.63,30.108,26.5s34.526-10.519,26.127-22.644-10.452,7.635-26.127,7.429-15.356-9.719-14.557-21.239,6.5-12.047,14.557-13.664,11.208,4.205,7.844,4-26.278-1.9-27.751,9.669,34.69,12.406,44.782,1.054S11901.653,2751.122,11888.715,2750Z" transform="translate(-11261.896 150.499)" fill="#c17c03"/>
      <path id="Path_146" data-name="Path 146" d="M12033.243,2771.615c18.527-10.8-8.933-21.992-20.772-21.992s-30.807,18.559-27.724,28.836,39.55,9.468,36.749,16.837c-1.167,3.073-1.64,11.495-9.025,9.258-10.067-3.049,6.2-17.659-20.114-15.9s7.6,24.661,20.114,24.576,28-10.549,25.821-22.5-46.24-20.221-35.7-29.874S12014.717,2782.418,12033.243,2771.615Z" transform="translate(-11327.528 151.479)" fill="#c17c03"/>
      <path id="Path_148" data-name="Path 148" d="M12147.4,2750c12.663,0,25.593-.008,26.982,15.54s10.775,45.7,0,46.626c-7.329.627-11.582-15.929-9.354-23.861s-3.9-15.723-10.575-18.228-13.116,3.061-16.143,8.209-3.444,13.08,2.923,16.559,19.62,1.531,23.795-6.54,9.707.574,10.8,5.4c2.831,12.445-35,18.586-38.473,18.459-24.05-.883-20.951-23.376-19.79-35.581S12134.731,2750,12147.4,2750Z" transform="translate(-11402.287 151.816)" fill="#c17c03"/>
      <path id="Path_149" data-name="Path 149" d="M12301.5,2796.266c8.2-.7,14.783-8.281,9.182-16.086-5.371-7.485-2.227-15.1,5.51-20.476s18.594-4.844,25.434-1.01,9.666,10.949,1.928,16.344-24.424,12.671-32.871,5.142-11.988,13.672-9.182,16.086c9.09.534,45.518-.408,53.072-3.323,13.232-5.105,18.916-20.843,13.5-34.249s-29.484-13.931-29.484-13.931,26.371-3.486,24.193-25.4c-1.67-16.8-42.332-25.121-64.121-20.394-.906.2-.094,23,7.068,14.738s14.484-4.04,23.6-.918,16.732,10.766,10.834,16.16-25.318,8.539-34.432,5.417-4.959-15.058,0-20.659-6.162-14.745-7.068-14.738C12276.055,2699.127,12284.049,2797.752,12301.5,2796.266Z" transform="translate(-11507.583 168.305)" fill="#c17c03"/>
      <path id="Path_150" data-name="Path 150" d="M1197.246,2839.991c-22.223.183,22.419,46.553,19.672,68.533-1.291,10.331-4.974,10.347-13.1,13.607s-7.478-23.075-15.478-4.763,9.558,19.634,12.96,18.718,10.5.964,22.5-22.766,47.284-74.168,28.277-73.33-27,44.148-27,44.148S1219.468,2839.808,1197.246,2839.991Z" transform="translate(-332.007 69.953)" fill="#c17c03"/>
      <path id="Path_151" data-name="Path 151" d="M1357.274,2800.909c-17.917-.39-8.691,62.656-5.887,83.261s41,8.873,35.1-14.174-18.035,23.794-24.027,10.933,0-48.653,0-48.653,20.573,7.448,21.025-3.474-18.864-8.553-18.864-8.553S1375.191,2801.3,1357.274,2800.909Z" transform="translate(-418.395 69.882)" fill="#c17c03"/>
      <path id="Path_156" data-name="Path 156" d="M11888.348,2750c-5.63-.487-15.731.45-22.021,6.4-7.817,7.393-11.168,21.036-10.088,30.14,1.931,16.257,15.747,25.342,29.771,26.2s34.139-10.4,25.832-22.39-10.334,7.549-25.832,7.346-15.187-9.61-14.395-21,6.429-11.912,14.395-13.511,11.082,4.158,7.756,3.95-25.983-1.874-27.439,9.561,34.3,12.266,44.279,1.042S11901.142,2751.108,11888.348,2750Z" transform="translate(-10887.331 151.926)" fill="#c17c03"/>
    </g>
  </g>
</svg>
