<svg xmlns="http://www.w3.org/2000/svg" xmlns:xlink="http://www.w3.org/1999/xlink" width="1920" height="1080" viewBox="0 0 1920 1080">
  <defs>
    <linearGradient id="linear-gradient" x1="-0.019" y1="-0.025" x2="1" y2="1" gradientUnits="objectBoundingBox">
      <stop offset="0" stop-color="#fff" stop-opacity="0.451"/>
      <stop offset="1" stop-color="#fff" stop-opacity="0.051"/>
    </linearGradient>
  </defs>
  <g id="layer_name" transform="translate(-0.5 -0.5)">
    <g id="Path_408" data-name="Path 408" transform="translate(666 337)" fill="url(#linear-gradient)">
      <path d="M30,0H559a30,30,0,0,1,30,30V188a30,30,0,0,1-30,30H30A30,30,0,0,1,0,188V30A30,30,0,0,1,30,0Z" stroke="none"/>
      <path d="M 30 7 C 17.3177490234375 7 7 17.3177490234375 7 30 L 7 188 C 7 200.6822509765625 17.3177490234375 211 30 211 L 559 211 C 571.6822509765625 211 582 200.6822509765625 582 188 L 582 30 C 582 17.3177490234375 571.6822509765625 7 559 7 L 30 7 M 30 0 L 559 0 C 575.5684814453125 0 589 13.43141174316406 589 30 L 589 188 C 589 204.5684967041016 575.5684814453125 218 559 218 L 30 218 C 13.431396484375 218 0 204.5684967041016 0 188 L 0 30 C 0 13.43141174316406 13.431396484375 0 30 0 Z" stroke="none" fill="rgba(243,241,235,0.17)"/>
    </g>
    <g id="nesabyte_v1" transform="translate(317.265 -2455.707)">
      <path id="Path_143" data-name="Path 143" d="M11683.107,2722.813s11.732,24.929,20.559,24.731,13.594-48.146,2.811-48.579-6.35,33.327-6.35,33.327-8.68-33.579-20.75-33.327-7.965,48.548.99,48.579C11689.275,2746.914,11683.107,2722.813,11683.107,2722.813Z" transform="translate(-11160.349 168.74)" fill="#fff"/>
      <path id="Path_144" data-name="Path 144" d="M11872.692,2749.947c-2.9-.25-8.107.232-11.352,3.3-4.027,3.81-5.754,10.842-5.2,15.533.994,8.379,8.117,13.062,15.346,13.505s17.6-5.36,13.314-11.54-5.328,3.891-13.314,3.786-7.828-4.953-7.42-10.824,3.313-6.14,7.42-6.964,5.713,2.144,4,2.036-13.395-.966-14.146,4.928,17.682,6.322,22.824.538S11879.284,2750.518,11872.692,2749.947Z" transform="translate(-11302.413 133.615)" fill="#fff"/>
      <path id="Path_146" data-name="Path 146" d="M12008.411,2760.831c9.443-5.5-4.553-11.208-10.584-11.208s-15.7,9.458-14.129,14.7,20.154,4.825,18.725,8.58c-.592,1.566-.834,5.858-4.6,4.718-5.133-1.554,3.156-9-10.252-8.1s3.869,12.568,10.252,12.525,14.27-5.376,13.158-11.468-23.566-10.306-18.2-15.225S11998.97,2766.336,12008.411,2760.831Z" transform="translate(-11397.923 134.245)" fill="#fff"/>
      <path id="Path_148" data-name="Path 148" d="M12132.384,2750c6.451,0,13.041,0,13.748,7.919s5.492,23.292,0,23.762c-3.734.319-5.9-8.118-4.766-12.16s-1.986-8.014-5.391-9.29-6.682,1.56-8.227,4.184-1.756,6.666,1.492,8.439,10,.78,12.125-3.333,4.947.292,5.506,2.753c1.443,6.342-17.84,9.472-19.605,9.407-12.258-.45-10.678-11.913-10.086-18.133S12125.927,2750,12132.384,2750Z" transform="translate(-11501.816 134.232)" fill="#fff"/>
      <path id="Path_149" data-name="Path 149" d="M12293.3,2747.909c4.18-.356,7.535-4.22,4.68-8.2-2.738-3.814-1.137-7.7,2.809-10.435a12.873,12.873,0,0,1,12.961-.515c3.486,1.954,4.926,5.581.98,8.33s-12.445,6.458-16.75,2.62-6.109,6.968-4.68,8.2c4.635.271,23.2-.209,27.047-1.694,6.744-2.6,9.639-10.622,6.879-17.454s-15.025-7.1-15.025-7.1,13.439-1.777,12.328-12.946c-.852-8.56-21.572-12.8-32.676-10.394-.463.1-.049,11.723,3.6,7.511s7.383-2.059,12.029-.468,8.525,5.486,5.52,8.236-12.9,4.352-17.549,2.761-2.525-7.675,0-10.529-3.137-7.514-3.6-7.511C12280.338,2698.4,12284.412,2748.666,12293.3,2747.909Z" transform="translate(-11637.866 168.305)" fill="#fff"/>
      <path id="Path_150" data-name="Path 150" d="M1191.865,2839.986c-11.325.093,11.426,23.724,10.025,34.926-.658,5.265-2.535,5.273-6.675,6.935s-3.811-11.759-7.888-2.427,4.871,10.006,6.6,9.54,5.351.491,11.468-11.6,24.1-37.8,14.411-37.371-13.758,22.5-13.758,22.5S1203.19,2839.893,1191.865,2839.986Z" transform="translate(-500.08 48.388)" fill="#fff"/>
      <path id="Path_151" data-name="Path 151" d="M1352,2800.908c-9.131-.2-4.429,31.931-3,42.431s20.894,4.522,17.888-7.223-9.191,12.126-12.245,5.572,0-24.795,0-24.795,10.484,3.8,10.715-1.77-9.613-4.359-9.613-4.359S1361.127,2801.107,1352,2800.908Z" transform="translate(-622.683 67.513)" fill="#fff"/>
      <path id="Path_156" data-name="Path 156" d="M11872.506,2749.947c-2.869-.248-8.018.229-11.223,3.26-3.982,3.768-5.689,10.721-5.143,15.36.986,8.285,8.027,12.914,15.176,13.354s17.4-5.3,13.162-11.41-5.266,3.847-13.162,3.743-7.742-4.9-7.338-10.7,3.275-6.071,7.338-6.886,5.646,2.12,3.951,2.013-13.242-.955-13.984,4.873,17.48,6.251,22.566.531S11879.025,2750.511,11872.506,2749.947Z" transform="translate(-11111.524 134.342)" fill="#fff"/>
    </g>
    <line id="Line_8" data-name="Line 8" y2="1080" transform="translate(947.5 0.5)" fill="none"/>
    <line id="Line_9" data-name="Line 9" x2="1920" transform="translate(0.5 410.5)" fill="none"/>
  </g>
</svg>
