<svg xmlns="http://www.w3.org/2000/svg" xmlns:xlink="http://www.w3.org/1999/xlink" width="1920" height="1080" viewBox="0 0 1920 1080">
  <defs>
    <linearGradient id="linear-gradient" x1="0.5" x2="0.5" y2="1" gradientUnits="objectBoundingBox">
      <stop offset="0" stop-color="#f6ba54"/>
      <stop offset="1" stop-color="#ce8b19"/>
    </linearGradient>
    <filter id="Path_410" x="783.468" y="283.78" width="332.618" height="321.153" filterUnits="userSpaceOnUse">
      <feOffset dy="-7" input="SourceAlpha"/>
      <feGaussianBlur stdDeviation="7" result="blur"/>
      <feFlood flood-opacity="0.161"/>
      <feComposite operator="in" in2="blur"/>
      <feComposite in="SourceGraphic"/>
    </filter>
    <linearGradient id="linear-gradient-2" x1="0.5" x2="0.5" y2="1" gradientUnits="objectBoundingBox">
      <stop offset="0" stop-color="#f5cb83"/>
      <stop offset="1" stop-color="#c47f09"/>
    </linearGradient>
    <filter id="Path_411" x="788.711" y="262.382" width="382.875" height="398.051" filterUnits="userSpaceOnUse">
      <feOffset dy="-7" input="SourceAlpha"/>
      <feGaussianBlur stdDeviation="25.5" result="blur-2"/>
      <feFlood flood-opacity="0.161"/>
      <feComposite operator="in" in2="blur-2"/>
      <feComposite in="SourceGraphic"/>
    </filter>
    <linearGradient id="linear-gradient-3" x1="0.396" y1="0.287" x2="0.931" y2="1.743" gradientUnits="objectBoundingBox">
      <stop offset="0" stop-color="#fedb41"/>
      <stop offset="1" stop-color="#c47f09"/>
    </linearGradient>
    <filter id="Path_412" x="832.797" y="389.847" width="320.788" height="252.586" filterUnits="userSpaceOnUse">
      <feOffset dy="-7" input="SourceAlpha"/>
      <feGaussianBlur stdDeviation="19.5" result="blur-3"/>
      <feFlood flood-opacity="0.161"/>
      <feComposite operator="in" in2="blur-3"/>
      <feComposite in="SourceGraphic"/>
    </filter>
    <linearGradient id="linear-gradient-4" x1="1.151" y1="1" x2="0.176" y2="0.179" gradientUnits="objectBoundingBox">
      <stop offset="0" stop-color="#d49629"/>
      <stop offset="1" stop-color="#f6ba54"/>
    </linearGradient>
    <filter id="Ellipse_74" x="730" y="267.061" width="92.265" height="92.265" filterUnits="userSpaceOnUse">
      <feOffset dx="-9" dy="-8" input="SourceAlpha"/>
      <feGaussianBlur stdDeviation="9" result="blur-4"/>
      <feFlood flood-opacity="0.161"/>
      <feComposite operator="in" in2="blur-4"/>
      <feComposite in="SourceGraphic"/>
    </filter>
    <filter id="Ellipse_77" x="827.009" y="263.288" width="82.564" height="82.564" filterUnits="userSpaceOnUse">
      <feOffset dx="-9" dy="-8" input="SourceAlpha"/>
      <feGaussianBlur stdDeviation="9" result="blur-5"/>
      <feFlood flood-opacity="0.161"/>
      <feComposite operator="in" in2="blur-5"/>
      <feComposite in="SourceGraphic"/>
    </filter>
    <filter id="Ellipse_78" x="836.71" y="338.74" width="82.564" height="82.564" filterUnits="userSpaceOnUse">
      <feOffset dx="-9" dy="-8" input="SourceAlpha"/>
      <feGaussianBlur stdDeviation="9" result="blur-6"/>
      <feFlood flood-opacity="0.161"/>
      <feComposite operator="in" in2="blur-6"/>
      <feComposite in="SourceGraphic"/>
    </filter>
  </defs>
  <g id="layer_sun_500" transform="translate(-41 118.288)">
    <g id="sun" transform="translate(346 218)">
      <g transform="matrix(1, 0, 0, 1, -305, -336.29)" filter="url(#Path_410)">
        <path id="Path_410-2" data-name="Path 410" d="M-40.488-104.337c2.991-8.972,26.08-3.472,51.588,5.234C48.319-86.4,87.183-60.252,99.469-50.8A123.25,123.25,0,1,1-98.809,46.98c0-8.508,8.335-44.005-8.968-74.309-15.253-26.714-47.85-28.411-29.906-47.85s63.015-14.329,97.2-3.738C-4.452-67.75,16.353-33.12,24.438-36.3c7.634-3-3.258-26.464-26.048-42.616C-28.049-97.655-43.479-95.365-40.488-104.337Z" transform="translate(947.4 420.71)" fill="url(#linear-gradient)"/>
      </g>
      <g transform="matrix(1, 0, 0, 1, -305, -336.29)" filter="url(#Path_411)">
        <path id="Path_411-2" data-name="Path 411" d="M170.516,2.948c9.569-12.037,49.167,11.188,61.454,20.636A123.255,123.255,0,1,1,53.478,188.371c-12.515-19.284,14.982-6.1,31.806-20.191S60.61,86.685,100.984,63.508s75.326,23.738,92.71,8.224S160.947,14.985,170.516,2.948Z" transform="translate(814.9 346.32)" fill="url(#linear-gradient-2)"/>
      </g>
      <g transform="matrix(1, 0, 0, 1, -305, -336.29)" filter="url(#Path_412)">
        <path id="Path_412-2" data-name="Path 412" d="M337.089,360.147a123.25,123.25,0,0,1-202.753,94.177c-9.211-7.772,45.606,19.062,62.429,4.971s-10.28-49.345,11.215-65.794,58.937,12.077,91.214,3.738S337.089,320.328,337.089,360.147Z" transform="translate(758 107.54)" fill="url(#linear-gradient-3)"/>
      </g>
      <g transform="matrix(1, 0, 0, 1, -305, -336.29)" filter="url(#Ellipse_74)">
        <circle id="Ellipse_74-2" data-name="Ellipse 74" cx="19.132" cy="19.132" r="19.132" transform="translate(766 302.06)" fill="url(#linear-gradient-4)"/>
      </g>
      <g transform="matrix(1, 0, 0, 1, -305, -336.29)" filter="url(#Ellipse_77)">
        <circle id="Ellipse_77-2" data-name="Ellipse 77" cx="14.282" cy="14.282" r="14.282" transform="translate(863.01 298.29)" fill="url(#linear-gradient-4)"/>
      </g>
      <g transform="matrix(1, 0, 0, 1, -305, -336.29)" filter="url(#Ellipse_78)">
        <circle id="Ellipse_78-2" data-name="Ellipse 78" cx="14.282" cy="14.282" r="14.282" transform="translate(872.71 373.74)" fill="url(#linear-gradient-4)"/>
      </g>
    </g>
    <line id="Line_10" data-name="Line 10" y2="1080" transform="translate(1188 -118.288)" fill="none"/>
    <line id="Line_11" data-name="Line 11" x2="1920" transform="translate(41 291.712)" fill="none"/>
  </g>
</svg>
