<svg xmlns="http://www.w3.org/2000/svg" xmlns:xlink="http://www.w3.org/1999/xlink" width="1920.056" height="1080.007" viewBox="0 0 1920.056 1080.007">
  <defs>
    <linearGradient id="linear-gradient" x1="0.5" x2="0.5" y2="1" gradientUnits="objectBoundingBox">
      <stop offset="0" stop-color="#de9a46"/>
      <stop offset="1" stop-color="#fdc157"/>
    </linearGradient>
    <linearGradient id="linear-gradient-3" x1="0.5" x2="0.5" y2="1" gradientUnits="objectBoundingBox">
      <stop offset="0" stop-color="#f5c97d"/>
      <stop offset="0" stop-color="#f5d69f"/>
      <stop offset="1" stop-color="#9b8153"/>
    </linearGradient>
    <linearGradient id="linear-gradient-5" x1="0.495" y1="-0.264" x2="0.5" y2="1" gradientUnits="objectBoundingBox">
      <stop offset="0" stop-color="#fbfaf8" stop-opacity="0.459"/>
      <stop offset="1" stop-color="#fff" stop-opacity="0.078"/>
    </linearGradient>
  </defs>
  <g id="layer2_950" transform="translate(0 0.004)">
    <g id="beeMain" transform="matrix(0.996, 0.087, -0.087, 0.996, 844.78, 523.241)">
      <g id="Rectangle_43" data-name="Rectangle 43" transform="translate(400.862 32.337)" fill="#772b0c" stroke="#000" stroke-width="4">
        <rect width="48.652" height="32.435" stroke="none"/>
        <rect x="2" y="2" width="44.652" height="28.435" fill="none"/>
      </g>
      <path id="Path_218" data-name="Path 218" d="M4568.616,2589.623l-4.883-18.63h69.905l-3.8,19.263Z" transform="translate(-4172.344 -2505.454)" fill="#d17710" stroke="#000" stroke-width="4"/>
      <path id="Path_217" data-name="Path 217" d="M4574.656,2608.3a23.28,23.28,0,0,1-2.461-4.977,70.851,70.851,0,0,1-1.922-7.388h60.875a53.217,53.217,0,0,1-2.927,6.96,32.06,32.06,0,0,1-3.853,5.4Z" transform="translate(-4173.833 -2511.135)" fill="#772b0c" stroke="#000" stroke-width="4"/>
      <path id="Path_214" data-name="Path 214" d="M4575.909,2611.744s4.414,7.979,9.182,11.555a31.359,31.359,0,0,0,11.269,4.822s2.287,3.629,4.371,3.576c2.259-.057,4.57-3.576,4.57-3.576s7.236-1.888,12-5.464,8.343-10.913,8.343-10.913Z" transform="translate(-4175.117 -2514.735)" fill="#d17710" stroke="#000" stroke-width="4"/>
      <path id="Path_241" data-name="Path 241" d="M4433.574,468.292s1.279,17.985-7.828,35.078-29.953,16.013-38.061,7.569,11.026-20.761,11.026-20.761Z" transform="translate(-4007.772 -436.457)" stroke="#000" stroke-width="4" fill="url(#linear-gradient)"/>
      <path id="Path_242" data-name="Path 242" d="M4449.636,468.292s28.689,9.386,40.847,19.723,16.7,20.274,9.73,24.653-26.768,4.985-37.627-7.136S4449.636,468.292,4449.636,468.292Z" transform="translate(-4022.338 -436.457)" stroke="#000" stroke-width="4" fill="url(#linear-gradient)"/>
      <path id="Path_219" data-name="Path 219" d="M4574.74,2516.758s2.623-16.617,11.847-22.518c.2-.127-4.34-7.416-2.351-8.049s3.984,7.055,4.614,6.707c7.477-4.139,14.612-4.3,23.127-.5.242.107,3.188-7.022,4.725-6.208s-2.95,7.059-2.442,7.325c10.151,5.313,12.028,22.156,12.028,22.156a127.589,127.589,0,0,0-24.869-2.17A162.831,162.831,0,0,0,4574.74,2516.758Z" transform="translate(-4174.851 -2486.127)" fill="#d17710" stroke="#000" stroke-width="4"/>
      <path id="Path_215" data-name="Path 215" d="M4589.141,2520.5c-3.581,19.167-16.109,21.906-29.192,27.045s-23.139-6.488-23.139-6.488-15.949-16.706-11.678-23.139,10.935-5.077,28.762-2.6c16.548,2.3,28.261,4.713,33.71,4.321.463-.033-26.325,10.667-25.059,12.114S4589.141,2520.5,4589.141,2520.5Z" transform="translate(-4163.387 -2492.305)" stroke="#000" stroke-width="4" fill="url(#linear-gradient-3)"/>
      <path id="Path_216" data-name="Path 216" d="M4609.447,2519.551s-.512,1.3.479,1.308c.1,0,27.2,10.594,28.831,9.509s-28.641-10.846-27.655-10.816c3.923.118,24.1-2.3,39.117-4.321,19.673-2.653,24.761-4.433,28.978,2.379s-4.614,17.282-12.11,24.869c-8.448,8.551-18.894,12.435-33.3,6.7S4609.447,2519.551,4609.447,2519.551Z" transform="translate(-4182.725 -2492.217)" stroke="#000" stroke-width="4" fill="url(#linear-gradient-3)"/>
    </g>
    <g id="bottom-fade" transform="translate(0.056 -60)">
      <path id="Path_85" data-name="Path 85" d="M-.056,76.3S236.919-121.94,577.413-119.491s446.845,218.59,782.4,228.88S1920-51.832,1920-51.832V243.762H0Z" transform="translate(0 836.238)" fill="url(#linear-gradient-5)"/>
      <line id="Line_1" data-name="Line 1" y1="1080" x2="2" transform="translate(359 60)" fill="none" stroke="rgba(12,2,2,0)" stroke-width="4"/>
    </g>
  </g>
</svg>
