<svg xmlns="http://www.w3.org/2000/svg" width="941.89" height="231.634" viewBox="0 0 941.89 231.634">
  <g id="nesabyte_v1" transform="translate(-418.982 -2787.618)">
    <path id="Path_143" data-name="Path 143" d="M11712.351,2784.9s42.263,89.816,74.071,89.1,48.969-173.463,10.121-175.024-22.878,120.075-22.878,120.075-31.274-120.983-74.764-120.075-28.687,174.913,3.573,175.024C11734.571,2871.724,11712.351,2784.9,11712.351,2784.9Z" transform="translate(-11252.89 89.996)" fill="#c17c03"/>
    <path id="Path_144" data-name="Path 144" d="M11919.984,2750.11c-11.143-.964-31.137.891-43.585,12.662-15.475,14.633-22.105,41.637-19.967,59.656,3.819,32.177,31.168,50.16,58.926,51.864s67.571-20.585,51.132-44.316-20.454,14.942-51.132,14.54-30.057-19.021-28.489-41.568,12.726-23.578,28.489-26.743,21.936,8.23,15.352,7.819-51.43-3.709-54.311,18.924,67.891,24.279,87.643,2.063S11945.308,2752.3,11919.984,2750.11Z" transform="translate(-11291.895 89.616)" fill="#c17c03"/>
    <path id="Path_146" data-name="Path 146" d="M12081.616,2792.624c36.226-21.122-17.465-43-40.616-43s-60.235,36.288-54.207,56.382,77.33,18.512,71.855,32.92c-2.283,6.008-3.207,22.475-17.648,18.1-19.685-5.961,12.124-34.528-39.329-31.08s14.853,48.218,39.329,48.053,54.749-20.627,50.49-44-90.414-39.538-69.811-58.412S12045.391,2813.746,12081.616,2792.624Z" transform="translate(-11303.528 90)" fill="#c17c03"/>
    <path id="Path_148" data-name="Path 148" d="M12177.852,2750c25.263,0,51.05-.017,53.822,31s21.494,91.164,0,93c-14.616,1.25-23.1-31.773-18.658-47.594s-7.771-31.363-21.094-36.359-26.159,6.106-32.2,16.375-6.869,26.09,5.829,33.028,39.135,3.053,47.461-13.045,19.364,1.144,21.555,10.776c5.646,24.824-69.825,37.072-76.742,36.818-47.969-1.761-41.787-46.626-39.473-70.971S12152.589,2750,12177.852,2750Z" transform="translate(-11326.478 89.966)" fill="#c17c03"/>
    <path id="Path_149" data-name="Path 149" d="M12314.672,2874.034c14.665-1.25,26.441-14.811,16.423-28.771-9.607-13.387-3.983-27.016,9.854-36.623s33.256-8.663,45.491-1.806,17.287,19.584,3.449,29.233-43.686,22.664-58.795,9.2-21.443,24.453-16.423,28.771c16.259.954,81.415-.731,94.925-5.943,23.67-9.131,33.833-37.28,24.143-61.258s-52.739-24.918-52.739-24.918,47.168-6.236,43.272-45.438c-2.985-30.041-75.715-44.933-114.686-36.478-1.621.352-.17,41.142,12.64,26.361s25.907-7.226,42.207-1.642,29.93,19.256,19.379,28.9-45.286,15.273-61.586,9.69-8.868-26.934,0-36.952-11.02-26.373-12.64-26.361C12269.167,2700.29,12283.467,2876.693,12314.672,2874.034Z" transform="translate(-11374.583 89.966)" fill="#c17c03"/>
    <path id="Path_150" data-name="Path 150" d="M1206.692,2840c-41.357.34,41.723,86.636,36.609,127.543-2.4,19.226-9.256,19.257-24.374,25.323s-13.917-42.943-28.806-8.863,17.788,36.539,24.119,34.834,19.54,1.794,41.881-42.368,88-138.029,52.624-136.47-50.242,82.161-50.242,82.161S1248.05,2839.66,1206.692,2840Z" transform="translate(-146.007 0.019)" fill="#c17c03"/>
    <path id="Path_151" data-name="Path 151" d="M1365.207,2800.911c-31.124-.677-15.1,108.842-10.227,144.635s71.223,15.413,60.976-24.622-31.33,41.333-41.739,18.993,0-84.517,0-84.517,35.739,12.938,36.523-6.034-32.769-14.858-32.769-14.858S1396.331,2801.588,1365.207,2800.911Z" transform="translate(-170.457 -0.067)" fill="#c17c03"/>
    <path id="Path_156" data-name="Path 156" d="M11919.984,2750.11c-11.143-.964-31.137.891-43.585,12.662-15.475,14.633-22.105,41.637-19.967,59.656,3.819,32.177,31.168,50.16,58.926,51.864s67.571-20.585,51.132-44.316-20.454,14.942-51.132,14.54-30.057-19.021-28.489-41.568,12.726-23.578,28.489-26.743,21.936,8.23,15.352,7.819-51.43-3.709-54.311,18.924,67.891,24.279,87.643,2.063S11945.308,2752.3,11919.984,2750.11Z" transform="translate(-10609.47 90.11)" fill="#c17c03"/>
  </g>
</svg>
