<svg id="portfolio-floral" xmlns="http://www.w3.org/2000/svg" xmlns:xlink="http://www.w3.org/1999/xlink" width="1921.21" height="1197.898" viewBox="0 0 1921.21 1197.898">
  <defs>
    <linearGradient id="linear-gradient" x1="0.5" x2="0.5" y2="1" gradientUnits="objectBoundingBox">
      <stop offset="0" stop-color="#ece7dd"/>
      <stop offset="0.138" stop-color="#ece7dd" stop-opacity="0.82"/>
      <stop offset="0.276" stop-color="#ece7dd"/>
      <stop offset="0.561" stop-color="#d6ad67" stop-opacity="0.702"/>
      <stop offset="0.682" stop-color="#d1a14e" stop-opacity="0.678"/>
      <stop offset="0.816" stop-color="#ca8f2b" stop-opacity="0.78"/>
      <stop offset="1" stop-color="#c17a00" stop-opacity="0.769"/>
    </linearGradient>
    <linearGradient id="linear-gradient-2" x1="0.5" x2="0.5" y2="1" gradientUnits="objectBoundingBox">
      <stop offset="0" stop-color="#c17a00"/>
      <stop offset="1" stop-color="#c17a00" stop-opacity="0.22"/>
    </linearGradient>
    <linearGradient id="linear-gradient-11" x1="0.5" x2="0.5" y2="1" gradientUnits="objectBoundingBox">
      <stop offset="0" stop-color="#c17a00" stop-opacity="0.471"/>
      <stop offset="1" stop-color="#c17a00"/>
    </linearGradient>
    <linearGradient id="linear-gradient-16" x1="0.5" x2="0.5" y2="1" gradientUnits="objectBoundingBox">
      <stop offset="0" stop-color="#c17a00" stop-opacity="0.471"/>
      <stop offset="1" stop-color="#c17a00"/>
    </linearGradient>
  </defs>
  <rect id="Rectangle_30" data-name="Rectangle 30" width="1920" height="202" transform="translate(0 988.554)" fill="#fbfaf8"/>
  <path id="Path_31" data-name="Path 31" d="M0,0H1920l1.21,1197.1L.389,1197.9Z" fill="url(#linear-gradient)"/>
  <g id="floral" transform="translate(1179.979 -2533.552)">
    <path id="Path_32" data-name="Path 32" d="M9738,3873.76s-11.015-84.752,22.671-142.132,51.365-66.208,88.055-93.391,36.021-18.678,58.7-15.343,20.013,66.708-3.335,85.386-33.239-3.48-70.71,15.343-73.1,33.066-79.172,59.949S9738,3873.76,9738,3873.76Z" transform="translate(-9208.002 -221)" fill="url(#linear-gradient-2)"/>
    <path id="Path_33" data-name="Path 33" d="M9738,3873.344c31.353-76.778,41.963-91.037,41.963-91.037s16.729-17.325,21.4-29.332,69.323-66.727,88.669-60.723,24.388-6.656,30.071,6.69,29.351,40.025-7.338,46.7-39.678,11.345-70.043,24.015-25.236.8-51.417,26.664S9738,3873.344,9738,3873.344Z" transform="translate(-9208.002 -227.523)" fill="url(#linear-gradient-2)"/>
    <path id="Path_34" data-name="Path 34" d="M9738,3873.359c-24.076-88.118-18.521-42.492-24.693-103.708s34.688-128.746,0-140.753-49.415-40.024-58.087-18.011-19.294,19.684-19.294,52.032,13.957,58.684,19.294,77.362,35.354,54.7,42.692,67.375S9738,3873.359,9738,3873.359Z" transform="translate(-9208.002 -221)" fill="url(#linear-gradient-2)"/>
    <path id="Path_35" data-name="Path 35" d="M9738,3873.3c46.028-45.426,65.978-66.976,65.978-66.976l19.345-26.683s52.5-48.27,65.426-28c.509.792,21.347,2.668,21.347,2.668s31.352-17.363,37.355,25.33-37.355,35.374-37.355,35.374-30.172-3.831-54.033,0-14.512-2.654-44.027,12.007S9738,3873.3,9738,3873.3Z" transform="translate(-9208.002 -228.957)" fill="url(#linear-gradient-2)"/>
    <path id="Path_36" data-name="Path 36" d="M9738,3873.381c-35.778-40.345-41.42-75.731-41.42-75.731s20.012-56.034,0-60.7-16.01-48.7-42.025-41.359-18.448,5.09-24.6,29.052-34.688,52.123,0,66.8S9738,3873.381,9738,3873.381Z" transform="translate(-9208.002 -227.624)" fill="url(#linear-gradient-2)"/>
    <path id="Path_37" data-name="Path 37" d="M9738,3873.313s-73.432-25.1-93.471-22.666-58.076-43.99-30.06-61.333,43.358,1.854,44.026,25.2S9738,3873.313,9738,3873.313Z" transform="translate(-9208.002 -229.578)" fill="url(#linear-gradient-2)"/>
    <path id="Path_38" data-name="Path 38" d="M9738,3873.313c56.034-42.09,89.378-44.958,103.386-46.292s11.187-25.01,53.366-16.677,38.69,16.677,38.69,32.02,2.168,29.852-20.013,34.688-26.683-2.6-68.709-15.343S9738,3873.313,9738,3873.313Z" transform="translate(-9208.002 -230.093)" fill="url(#linear-gradient-2)"/>
    <path id="Path_39" data-name="Path 39" d="M9738,3873.519l-16.071-102.552s-8.821-73.98,2.519-91.991,18.828-79.446,40.842-78.112,93.391-5.337,87.387,10.673-1.335,56.7-20.68,64.706-48.7,18.678-54.033,26.016-33.231,32.687-39.963,47.362S9738,3873.519,9738,3873.519Z" transform="translate(-9208.002 -221)" fill="url(#linear-gradient-2)"/>
    <path id="Path_40" data-name="Path 40" d="M9738,3873.359s-89.349-3.175-94.685-14.515-17.726-21.741-30.554-27.889-15.067-6.8-25.922-5.207-24.166-6.469-22.165,14.878,14.473,31.168,29.148,33.169,39.775,4.481,39.775,4.481Z" transform="translate(-9208.002 -230.272)" fill="url(#linear-gradient-2)"/>
    <path id="Path_41" data-name="Path 41" d="M9738,3874.348c53.792-15.2,82.929-15.808,118.466-15.808s23.684,7.8,23.684,15.808,25.693,11.635,19.735,22.753-19.66,11.159-40.687,6.984-14.75-10.672-43.419-23.683S9738,3874.348,9738,3874.348Z" transform="translate(-9208 -234.552)" fill="url(#linear-gradient-11)"/>
    <path id="Path_42" data-name="Path 42" d="M9736.729,3874.757c-42.693,10.006-67.35.035-100.036-1.633s-23.5,13.913-41.507,23.919,19.349,17.13,38.467,18.647,27.331,1.432,38-12.576S9736.729,3874.757,9736.729,3874.757Z" transform="translate(-9206.729 -234.934)" fill="url(#linear-gradient-11)"/>
    <path id="Path_43" data-name="Path 43" d="M9738,3873.364s11.513,30.339,12.847,43.014,9.888,30.157-7.456,30.157-19.5-4.777-19.817-16.911,15.889-13.525,17.829-21.53S9738,3873.364,9738,3873.364Z" transform="translate(-9208.002 -233.552)" fill="url(#linear-gradient-11)"/>
    <path id="Path_44" data-name="Path 44" d="M9738,3873.328c-15.818,20.515-34.04,15.048-59.4,24.258s-13.613-7.636-27.641-.968-17.023,10.592-17.69,24.6,25.561,13.767,36.9,8.43,17.593,1.007,34.551-12.853S9738,3873.328,9738,3873.328Z" transform="translate(-9208.002 -233.552)" fill="url(#linear-gradient-11)"/>
    <path id="Path_45" data-name="Path 45" d="M9738,3874.587c30.411.065,34.329-6.2,68.668,5.844s54.954,15.041,60.119,33.7-27.452,56.955-39.46,40.945-3.425-26.913-9.121-40.945-23.063-22.376-43.115-32.185S9738,3874.587,9738,3874.587Z" transform="translate(-9208 -234.796)" fill="url(#linear-gradient-11)"/>
    <path id="Path_46" data-name="Path 46" d="M9738,3873.355c50.013,18.42,34.367,10.894,53.776,20.987s33.119,8.573,29.806,14.818c-1.209,2.28.183,9.949-4.093,14-6.815,6.464-20.856,8.933-25.713,4.32-7.647-7.265,1.267-16.127-12.571-28.8S9738,3873.355,9738,3873.355Z" transform="translate(-9208 -233.552)" fill="url(#linear-gradient-16)"/>
    <path id="Path_47" data-name="Path 47" d="M9738,3873.375c-6.043,18.977,4.038,21.521,0,34.221s-17.476,20.878-17.476,20.878-15.5,8.063-20.216,4.749-6.628-15.677-6.628-15.677,1.5-10.571,8.54-13.638,10.683,9,19.628,1.369S9738,3873.375,9738,3873.375Z" transform="translate(-9208 -233.552)" fill="url(#linear-gradient-11)"/>
    <path id="Path_48" data-name="Path 48" d="M9738,3873.436a322.345,322.345,0,0,0,33.559,33.829s27.338,10.549,19.436,19.343-8.423,14.135-13.139,15.792-12.964.493-18.721-8.788,1.276-11.093-4.309-28.334S9738,3873.436,9738,3873.436Z" transform="translate(-9208 -233.552)" fill="url(#linear-gradient-11)"/>
  </g>
</svg>
