<svg id="pricing-kite" xmlns="http://www.w3.org/2000/svg" width="195.757" height="97.678" viewBox="0 0 195.757 97.678">
  <path id="Path_10" data-name="Path 10" d="M75.613,20.924C76.029,15.512,9.892,12.7,25.087,5.2s70.772-8.742,78.475-2.082-45.694.422-44.185,5.1,71.87,10.3,71.87,15.294-46.631,4.689-44.81,8.436,42.259-.109,52.095,6.552S109.439,54.854,113.706,61.1s31.279-3.024,41.895,2.388S123.647,82.959,131.247,86.91s60.165-17.818,59.948-6.562-72.124,17.912-87.634,12.7,22.062-12.484,7.23-19.874-66.971-.942-66.555-9.685,23.019-2.324,25.34-6.968c6.688-13.384-46.988-6.146-46.78-14.264S83,45.643,75.613,40.907,12.806,32.472-2.806,23.521,75.2,26.336,75.613,20.924Z" transform="translate(4.561 1.219)" fill="rgba(208,217,205,0.56)"/>
  <path id="Path_9" data-name="Path 9" d="M10808.568,3242.395h33.771v34.123l-41.511,7.387Z" transform="translate(-10701.438 -3234.781)" fill="none" stroke="#175935" stroke-linecap="round" stroke-linejoin="bevel" stroke-width="4"/>
  <path id="Path_11" data-name="Path 11" d="M2.435,47.813s1.4-18.267,7.035-27.872S26.107,20.6,36.26,14.8,47.47.7,47.47.7" transform="translate(52.061 47.719)" fill="none" stroke="#175935" stroke-linecap="round" stroke-width="4"/>
  <path id="Path_12" data-name="Path 12" d="M10795.785,3292.392l-2.882-19.375-13.931,13.771,32.024,8.646L10796.426,3306Z" transform="translate(-10701.438 -3234.781)" fill="none" stroke="#175935" stroke-linecap="round" stroke-linejoin="round" stroke-width="2"/>
  <line id="Line_4" data-name="Line 4" y1="40" x2="39" transform="translate(100.061 8.719)" fill="none" stroke="#175935" stroke-width="2"/>
  <line id="Line_5" data-name="Line 5" x1="31" y1="32" transform="translate(108.061 8.719)" fill="none" stroke="#175935" stroke-width="2"/>
</svg>
