<svg id="pricing-rocket" xmlns="http://www.w3.org/2000/svg" width="195.758" height="96.068" viewBox="0 0 195.758 96.068">
  <path id="Path_10" data-name="Path 10" d="M75.613,20.924C76.029,15.512,9.892,12.7,25.087,5.2s70.772-8.742,78.475-2.082-45.694.422-44.185,5.1,71.87,10.3,71.87,15.294-46.631,4.689-44.81,8.436,42.259-.109,52.095,6.552S109.439,54.854,113.706,61.1s31.279-3.024,41.895,2.388S123.647,82.959,131.247,86.91s60.165-17.818,59.948-6.562-72.124,17.912-87.634,12.7,22.062-12.484,7.23-19.874-66.971-.942-66.555-9.685,23.019-2.324,25.34-6.968c6.688-13.384-46.988-6.146-46.78-14.264S83,45.643,75.613,40.907,12.806,32.472-2.806,23.521,75.2,26.336,75.613,20.924Z" transform="translate(4.561 1.219)" fill="rgba(208,217,205,0.17)"/>
  <g id="Group_18" data-name="Group 18" transform="translate(74.103 5.436)">
    <path id="Path_17" data-name="Path 17" d="M11764.39,2358.366s16.911-20.608,33.724-31.59c8.557-5.589,20.762-6.6,22.563-4.643,1.531,1.66,2,13.5-2.372,21.088-9.982,17.307-33.158,37.66-33.158,37.66Z" transform="translate(-11753.225 -2321.217)" fill="none" stroke="#6cd59c" stroke-width="4"/>
    <path id="Path_18" data-name="Path 18" d="M33,0S16.39-1.421,13.357,0C11.732.762-2.37,13.829-2.275,15.913S8.9,24.819,8.9,24.819" transform="translate(2.276 12.283)" fill="none" stroke="#6cd59c" stroke-width="4"/>
    <path id="Path_19" data-name="Path 19" d="M0,.632S16.61-.79,19.642.632c1.625.762,15.727,13.829,15.633,15.913S24.1,25.451,24.1,25.451" transform="matrix(0.017, 1, -1, 0.017, 56.906, 34.651)" fill="none" stroke="#6cd59c" stroke-width="4"/>
    <path id="Path_20" data-name="Path 20" d="M22.43,0s4.772,4.039,1.5,9.644c-1.708,2.926-6.226,2.276-9.051,4.872-2.144,1.973-2.537,7.26-5.4,8.507C3.5,25.631,0,20.077,0,20.077" transform="matrix(0.017, 1, -1, 0.017, 31.16, 37.036)" fill="none" stroke="#6cd59c" stroke-width="4"/>
    <path id="Path_21" data-name="Path 21" d="M3.832-4.588s-9.256,15.871-5.1,19.241S16.076,8.895,16.076,8.895" transform="translate(5.276 52.163)" fill="none" stroke="#6cd59c" stroke-width="4"/>
    <g id="Ellipse_1" data-name="Ellipse 1" transform="translate(38.775 15.783)" fill="none" stroke="#6cd59c" stroke-width="4">
      <circle cx="7.5" cy="7.5" r="7.5" stroke="none"/>
      <circle cx="7.5" cy="7.5" r="5.5" fill="none"/>
    </g>
  </g>
</svg>
