<svg xmlns="http://www.w3.org/2000/svg" xmlns:xlink="http://www.w3.org/1999/xlink" width="294" height="294" viewBox="0 0 294 294">
  <defs>
    <clipPath id="clip-path">
      <ellipse id="Ellipse_4" data-name="Ellipse 4" cx="129.5" cy="118.5" rx="129.5" ry="118.5" transform="translate(1061.999 215)" fill="#0f224a" stroke="#0f224a" stroke-width="1.5"/>
    </clipPath>
  </defs>
  <g id="setgoal_logo" transform="translate(-250 -1429)">
    <circle id="Ellipse_173" data-name="Ellipse 173" cx="147" cy="147" r="147" transform="translate(250 1429)" fill="#fff"/>
    <g id="Mask_Group_1" data-name="Mask Group 1" transform="translate(-793.999 1243)" clip-path="url(#clip-path)">
      <g id="business" transform="translate(1071.138 215)">
        <g id="Group_38" data-name="Group 38">
          <g id="Group_37" data-name="Group 37">
            <path id="Path_389" data-name="Path 389" d="M235.687,95.075,210.9,92.324a94.111,94.111,0,0,0-7-16.883l15.577-19.469a5,5,0,0,0-.37-6.658L190.8,21.04a5,5,0,0,0-6.658-.37l-19.47,15.572a94.081,94.081,0,0,0-16.883-7L145.039,4.452A5,5,0,0,0,140.067,0H100.048a5,5,0,0,0-4.973,4.452L92.324,29.214a94.115,94.115,0,0,0-16.883,7L55.971,20.64a5,5,0,0,0-6.658.37l-28.3,28.3a5,5,0,0,0-.365,6.658l15.6,19.469a94.081,94.081,0,0,0-7,16.883L4.452,95.075A5,5,0,0,0,0,100.047v40.019a5,5,0,0,0,4.452,4.972l24.762,2.751a94.115,94.115,0,0,0,7,16.883L20.64,184.143a5,5,0,0,0,.37,6.658l28.3,28.3a5,5,0,0,0,6.658.34L75.44,203.872a94.08,94.08,0,0,0,16.883,7l2.751,24.787a5,5,0,0,0,4.973,4.452h40.019a5,5,0,0,0,4.973-4.427L147.79,210.9a94.12,94.12,0,0,0,16.883-7l19.469,15.577a5,5,0,0,0,6.658-.37l28.273-28.3a5,5,0,0,0,.37-6.658l-15.572-19.469a94.08,94.08,0,0,0,7-16.883l24.787-2.751a5,5,0,0,0,4.452-4.972V100.047A5,5,0,0,0,235.687,95.075Zm-5.577,40.514h0l-23.646,2.631a5,5,0,0,0-4.282,3.687,84.534,84.534,0,0,1-8.589,20.76,5,5,0,0,0,.42,5.638l14.872,18.589-21.965,21.965L168.33,193.987a5,5,0,0,0-5.638-.42,84.55,84.55,0,0,1-20.76,8.589,5,5,0,0,0-3.687,4.282l-2.631,23.671H104.55l-2.656-23.671a5,5,0,0,0-3.687-4.282,84.534,84.534,0,0,1-20.76-8.589,5,5,0,0,0-5.638.42L53.221,208.859,31.256,186.894,46.128,168.33a5,5,0,0,0,.42-5.638,84.552,84.552,0,0,1-8.589-20.76,5,5,0,0,0-4.282-3.687l-23.671-2.631V104.55l23.671-2.656a5,5,0,0,0,4.282-3.687,84.534,84.534,0,0,1,8.589-20.76,5,5,0,0,0-.42-5.638L31.256,53.22,53.221,31.255,71.835,46.127a5,5,0,0,0,5.638.42,84.552,84.552,0,0,1,20.76-8.589,5,5,0,0,0,3.687-4.282L104.551,10h31.04l2.631,23.671a5,5,0,0,0,3.687,4.282,84.534,84.534,0,0,1,20.76,8.589,5,5,0,0,0,5.638-.42l18.589-14.872L208.86,53.246,193.988,71.835a5,5,0,0,0-.42,5.638,84.551,84.551,0,0,1,8.589,20.76,5,5,0,0,0,4.282,3.687l23.671,2.631Z" fill="#0f224a" stroke="#0f224a" stroke-width="1.5"/>
          </g>
        </g>
        <g id="Group_40" data-name="Group 40" transform="translate(49.999 50.011)">
          <g id="Group_39" data-name="Group 39">
            <path id="Path_390" data-name="Path 390" d="M169.477,74.174A70.033,70.033,0,1,0,47.244,142.566a5,5,0,0,0,7.9,1.1l32.68-32.68,11.545,15.4a5,5,0,0,0,7.539.535l31.48-31.48v17.939h10V83.358h0a5,5,0,0,0-5-5H113.375v10h17.939l-27.4,27.4-11.546-15.4a5,5,0,0,0-3.647-2,5.093,5.093,0,0,0-3.892,1.466l-31.805,31.8a59.885,59.885,0,1,1,95.371,21.285V123.377H138.387v36.847a59.648,59.648,0,0,1-10,4.639V133.381h-10v34.094a60.244,60.244,0,0,1-10,.861V148.389h-10v19.136a59.585,59.585,0,0,1-10-2.572V138.384H78.358v21.964a60.361,60.361,0,0,1-8.079-5.586l-6.358,7.729A70.03,70.03,0,0,0,169.477,74.174Z" transform="translate(-38.315 -38.324)" fill="#0f224a" stroke="#0f224a" stroke-width="1.5"/>
          </g>
        </g>
      </g>
    </g>
  </g>
</svg>
